<svg xmlns="http://www.w3.org/2000/svg" width="26" height="26" viewBox="0 0 26 26"><defs><style>.cls-1{fill:#fff;}</style></defs><title>facebook</title><g id="Layer_2" data-name="Layer 2"><g id="Layer_1-2" data-name="Layer 1"><path class="cls-1" d="M13,0A13,13,0,1,0,26,13,13,13,0,0,0,13,0Zm4.1182,11.59c-.0381.3682-.1028.7349-.1162,1.104-.01.2569-.095.3389-.3514.3335-.7277-.0151-1.456-.0053-2.2319-.0053v9.2114H10.6174v-9.2H8.7056V9.84h1.9c0-.1513-.003-.2817.0005-.4116.0232-.8511.0034-1.706.0813-2.5522A3.1106,3.1106,0,0,1,13.45,3.9053a8.4775,8.4775,0,0,1,1.2866-.1284c.8364-.02,1.6734-.0059,2.53-.0059V6.9575q-.5086,0-1.02,0c-.2717.0005-.5439-.0063-.8152.0044-.6826.0278-.9614.2944-1.0166.9663-.0132.16-.0083.3208-.0088.4815-.0009.4565,0,.9126,0,1.416h2.8879C17.2324,10.4478,17.1772,11.02,17.1182,11.59Z"/></g></g></svg>