<svg id="Layer_1" data-name="Layer 1" xmlns="http://www.w3.org/2000/svg" xmlns:xlink="http://www.w3.org/1999/xlink" width="613" height="218" viewBox="0 0 613 218"><defs><style>.cls-1{fill:none;}.cls-2{fill:#fff;}.cls-3{clip-path:url(#clip-path);}</style><clipPath id="clip-path"><circle class="cls-1" cx="721" cy="90" r="88"/></clipPath></defs><title>images</title><path class="cls-2" d="M470.7526,46.2355a40.3245,40.3245,0,0,0,1.1762-10.03c-.0792-4.1015-1.9989-9.83.2363-13.6662,1.6157-2.7733,5.3643-3.9118,7.318-6.5268A30.2465,30.2465,0,0,0,482.9865,9.06c.5417-1.3424-1.6337-1.926-2.17-.5982-1.8547,4.5961-3.6537,7.067-7.708,9.9054a8.8806,8.8806,0,0,0-3.57,4.6555c-.9688,2.8122-.4832,5.8-.2066,8.682a41.5917,41.5917,0,0,1-.7493,13.9323c-.3287,1.4087,1.84,2.01,2.17.5982Z"/><path class="cls-2" d="M456.5947,8.7011c-2.7485.3214-2.7336,2.9207-2.9968,5.29a104.11,104.11,0,0,0-.422,17.0819c.077,1.44,2.3275,1.4493,2.25,0-.1059-1.979-.9484-19.8741,1.1688-20.1217,1.4211-.1661,1.4378-2.4181,0-2.25Z"/><path class="cls-2" d="M462.616,35.8125c-2.5078-2.2469-6.5394-6.9872-10.1879-4.1367-3.5533,2.7759-3.5689,9.3651-2.9362,13.2906.8159,5.0623,3.4937,10.2637,7.7488,13.2854,3.5035,2.4881,8.3493,2.761,10.4243-1.5705.6226-1.3-1.3168-2.4423-1.9428-1.1356l-6.07,1.5937-2.2163-1.6337A17.8867,17.8867,0,0,1,454.488,51.95a19.5375,19.5375,0,0,1-2.7177-6.8861c-.4316-2.287-.6751-5.54.1576-7.7761,2.0317-5.4557,6.4914-2.2188,9.0971.1158,1.0756.9638,2.6721-.6223,1.591-1.591Z"/><path class="cls-2" d="M458.2538,36.8268a4.4221,4.4221,0,0,0-2.4663-2.7178,2.57,2.57,0,0,0-3.0513,1.1094c-.6846,1.2757,1.2571,2.4133,1.9428,1.1356.0822-.1532.1-.1094.0211-.0794a.4231.4231,0,0,1,.1857-.05c.23.0516.2542.0048.4638.1586a3.8654,3.8654,0,0,1,.9614,1.58,1.1331,1.1331,0,0,0,1.5392.4036,1.1526,1.1526,0,0,0,.4036-1.5392Z"/><path class="cls-2" d="M459.1108,40.5474c-2.2717,1.5073-5.0173,4.6491-4.2107,7.642.3456,1.2826,1.1223,1.6025,2.2844,1.8717,1.2563.2911,1.35.65,2.1,1.4917a3.3967,3.3967,0,0,0,1.664,1.1674c2.8877.6816,3.1688-2.9681,1.7531-4.5687-.9524-1.0769-1.8705-1.6661-1.1686-3.2825a4.5754,4.5754,0,0,0,.4852-1.794,2.4924,2.4924,0,0,0-1.8128-2.6033c-1.3876-.4251-1.9808,1.746-.5982,2.17.5321.1631-.543,2.2053-.6543,2.656a3.19,3.19,0,0,0,.07,1.915,5.1986,5.1986,0,0,0,1.303,1.7667c.5813.594,1.3967,2.0377.2966.6252a5.6787,5.6787,0,0,0-1.1625-1.2815c-.5675-.3939-1.0683-.2941-1.665-.5054-2.3431-.8294,1.3843-4.619,2.4514-5.3271,1.2011-.7969.0756-2.7464-1.1356-1.9428Z"/><path class="cls-2" d="M460.5646,59.6q.15,9.5148.2695,19.03c.04,3.0714.3908,6.2968-.705,9.2061-1.2878,3.4187-4.5126,5.67-7.3673,7.707-1.1687.834-.0463,2.7862,1.1357,1.9428,4.3318-3.091,8.473-6.42,9.1617-12.0151,1.0258-8.3336-.1126-17.4843-.2446-25.8709a1.1257,1.1257,0,0,0-2.25,0Z"/><path class="cls-2" d="M452.0239,96.9619c-.4717,8.4314,6.4977,13.2448,12.4913,17.87,7.6688,5.9176,15.0307,11.5267,24.8929,12.8748,7.3679,1.0071,16.7879.8058,23.0334-3.8281,5.076-3.7663,7.2391-10.92,3.45-16.3117-.8262-1.1758-2.7779-.0528-1.9428,1.1356,5.2731,7.5042-2.4973,14.5623-9.49,16.2694a39.62,39.62,0,0,1-21.334-1.01c-6.1165-2.0969-11.2276-6.2554-16.2786-10.1509-5.5831-4.3058-13.0207-8.8338-12.5723-16.8494.081-1.4468-2.1693-1.4422-2.25,0Z"/><path class="cls-2" d="M515.1251,89.2864c-.2208,11.6674-7.2236,21.3925-10.6639,32.2137-.44,1.3831,1.7318,1.9751,2.17.5981,3.5142-11.0537,10.5184-20.8756,10.7443-32.8118a1.1257,1.1257,0,0,0-2.25,0Z"/><path class="cls-2" d="M512.8249,102.21v16.3587a1.1257,1.1257,0,0,0,2.25,0V102.21a1.1257,1.1257,0,0,0-2.25,0Z"/><path class="cls-2" d="M460.3713,85.2464c-14.8866,7.1783-9.86,25.9928.1894,34.8937,3.5914,3.1808,7.7912,5.5168,11.3489,8.7526a37.395,37.395,0,0,0,9.4866,6.7235c5.9768,2.8518,7.2583,7.6125,8.4816,13.6792q1.6944,8.4022,3.3713,16.8082c.2845,1.4186,2.4536.8182,2.17-.5981l-2.9967-14.9407c-.67-3.342-1.1016-6.922-2.5273-10.0445a12.5273,12.5273,0,0,0-5.359-5.8689c-3.7716-2.2038-7.1992-3.7714-10.473-6.8186-6.1313-5.7068-13.9346-9.2646-18.2079-16.818-4.6118-8.1516-3.5293-19.3983,5.6521-23.8256,1.3039-.6287.1641-2.57-1.1356-1.9428Z"/><path class="cls-2" d="M461.3864,75.0593c-16.4628,7.9227-31.2412,28.7705-20.8414,46.6689,2.8926,4.9782,6.7243,9.3674,9.9595,14.1187,1.8176,2.6693,3.5354,5.4076,5.086,8.2414.8988,1.6428,1.9394,5.6061,3.3868,6.7276,2.123,1.645,3.789-1.4512,5.1056-2.9116L477.88,132.6c.9674-1.073-.6189-2.6692-1.591-1.5909l-10.0342,11.13c-1.65,1.8305-3.5353,3.5976-5.0171,5.5652-.5962.7917-1.75,1.11-.6153,1.5694-.45-.1822-1.227-2.7021-1.4695-3.1981-4.17-8.5285-10.2584-15.583-15.4039-23.47-5.9959-9.191-5.5107-18.3117-.2827-27.7894A42.669,42.669,0,0,1,462.522,77.0021c1.3043-.6277.1644-2.5684-1.1356-1.9428Z"/><path class="cls-2" d="M526.8894,9.4294c5.9874,7.0894,5.2284,14.2608,4.2951,22.8608-.9121,8.4037.91,16.8627-.26,25.2449a53.0531,53.0531,0,0,1-9.8457,23.3724c-4.9538,6.43-12.3386,10.1372-19.4426,13.7025-1.2944.65-.1564,2.5912,1.1356,1.9428,7.3245-3.6759,14.94-7.5682,20.0637-14.1848A56.4336,56.4336,0,0,0,533.18,57.8394c1.3846-10.0411-.3739-20.188.934-30.3043A24.46,24.46,0,0,0,528.48,7.8384c-.9356-1.1076-2.52.4908-1.591,1.591Z"/><path class="cls-2" d="M512.5775,88.8634c-10.51,3.75-19.582-4.0977-28.5851-8.3148-3.5045-1.6415-12.9671-3.4417-14.2958-7.1994-1.5544-4.3961-.8108-10.8583-1.106-15.5127-.0912-1.438-2.3418-1.4483-2.25,0,.2429,3.8309.4735,7.6628.7288,11.4928.1244,1.867.0143,4.1471.8905,5.8735,2.1382,4.213,9.4089,4.8578,13.2551,6.5433,10.1384,4.4426,20.2113,13.4791,31.9606,9.2869,1.3541-.4831.77-2.6579-.5981-2.17Z"/><path class="cls-2" d="M512.77,29.35A26.7781,26.7781,0,0,0,514,38.5658c1.0043,3.0536,3.1458,5.21,4.4248,8.0236q2.2407,2.2416-.54,5.2381l-2.4048-.2964a17.2829,17.2829,0,0,0-3.6148.0362c-2.461.2958-8.157,1.747-9.047-2.1824-.5455-2.4083,2.115-3.8656,3.4523-5.1793,1.0346-1.0164-.5567-2.607-1.591-1.591-2.7031,2.6556-6.4363,4.7887-3.1161,8.8071,3.8433,4.6515,9.7006,2.1332,14.6895,2.4935,3.16.2282,6.2284-.6346,5.9157-4.4872-.2391-2.9463-2.9367-5.15-4.2845-7.5969A24.0324,24.0324,0,0,1,515.02,29.35a1.1257,1.1257,0,0,0-2.25,0Z"/><path class="cls-2" d="M503.3685,51.8757a26.4367,26.4367,0,0,1,2.9647-.7124c.5006-.0869,1.0082-.161,1.5149-.2033a5.8488,5.8488,0,0,1,.8427-.0417,1.2942,1.2942,0,0,1,1.2562.6633c-1.3626-.4967-1.95,1.6769-.5981,2.17,2.407.8774,3.8453-2.1575,2.3317-3.9053-1.9987-2.3081-6.4784-.8577-8.91-.14a1.126,1.126,0,0,0,.5982,2.17Z"/><path class="cls-2" d="M521.552,49.5567a6.2769,6.2769,0,0,0-6.5155.1227,2.0353,2.0353,0,0,0-1.1136,2.3941,1.9726,1.9726,0,0,0,.947.9978c.5422.2851,1.2453.185,1.7221.5489,1.1507.8782,2.2727-1.075,1.1356-1.9428-.2991-.2283-.9755-.645-1.3684-.5047-.2224.08-.3086.36-.0365.3562a6.2976,6.2976,0,0,0,.8562-.399,4.0289,4.0289,0,0,1,3.2375.37,1.1259,1.1259,0,0,0,1.1356-1.9429Z"/><path class="cls-2" d="M505.0056,23.24c3.9565-5.3008-8.9635-5.1082-10.84-5.1388-3.6162-.0591-14.0569,2.0075-12.3153,7.6868a1.1085,1.1085,0,0,0,.7858.7858c2.7073.3918,5.2266-1.9823,7.8624-2.5638,4.5821-1.0109,8.8148.5989,13.3312.0856,1.4224-.1616,1.4387-2.4135,0-2.25-3.3841.3846-6.724-.7644-10.1423-.57a22.11,22.11,0,0,0-7.4148,1.7538c-.9494.4065-3.2866,2.3214-1.5829.6761a11.2193,11.2193,0,0,1,7.2237-3.3525,39.1448,39.1448,0,0,1,4.5476.076c.6738.0231,7.6878.2206,6.6016,1.6758-.8665,1.161,1.0858,2.2839,1.9428,1.1356Z"/><path class="cls-2" d="M522.402,25.8311c.0159-2.359,8.6241,1.7944,9.3358,2.2616,1.2139.7969,2.3424-1.1505,1.1356-1.9428-2.4007-1.576-12.6809-6.3165-12.7214-.3188a1.1257,1.1257,0,0,0,2.25,0Z"/><path class="cls-2" d="M520.3964,24.7262c-.8006,1.6535.1112,2.9528,1.7706,3.4788,3.2145,1.019,6.98,1.2074,10.3077,1.7769,1.4163.2424,2.0248-1.9254.5982-2.17-.938-.16-10.6183-2.1888-10.7336-1.9505.6283-1.2977-1.3113-2.44-1.9429-1.1356Z"/><path class="cls-2" d="M517.291,33.9308c2.1947-2.1,4.4056-3.4319,7.5221-2.252,2.3958.907,4.141,2.8769,5.8351,4.715.9835,1.067,2.5715-.5272,1.591-1.591-2.3457-2.545-4.9558-5.2285-8.5432-5.779-3.2556-.5-5.74,1.1581-7.996,3.316-1.0484,1.003.5442,2.5925,1.591,1.591Z"/><path class="cls-2" d="M517.0691,33.111a7.7445,7.7445,0,0,0,13.5843,2.7567c.892-1.1221-.69-2.7246-1.591-1.591-2.9474,3.7075-8.4573,2.8915-9.8237-1.7639a1.126,1.126,0,0,0-2.17.5982Z"/><path class="cls-2" d="M522.34,30.4469a3.1054,3.1054,0,0,0-.9818,4.7965,3.2746,3.2746,0,0,0,4.8946-.2324,3.4662,3.4662,0,0,0-1.0869-5.0617,3.27,3.27,0,0,0-4.7964,2.2589,2.5408,2.5408,0,0,0,3.9388,2.6279,2.6535,2.6535,0,0,0,1.3433-2.59,2.1652,2.1652,0,0,0-1.9912-1.62c-2.1982-.09-2.58,2.86-.7931,3.7878a1.842,1.842,0,0,0,2.5571-.9693,1.8169,1.8169,0,0,0-1.5912-2.2673,2.1009,2.1009,0,0,0-2.4838,1.942,1.8981,1.8981,0,0,0,2.084,1.9875,1.8119,1.8119,0,0,0,1.4414-2.5651,1.7911,1.7911,0,0,0-2.8269-.3811,1.1586,1.1586,0,0,0-.1759,1.3633,2.4812,2.4812,0,0,0,4.6083-.6228,1.1422,1.1422,0,0,0-1.3839-1.3839,3.4511,3.4511,0,0,0-2.532,1.8769,1.1393,1.1393,0,0,0,1.2705,1.6526l.5766-.1613a1.126,1.126,0,0,0-.5982-2.17l-.5766.1614,1.27,1.6526a1.4111,1.4111,0,0,1,1.1874-.8429L524.31,32.3034c-.0824.3641-.3038.4385-.4959.0853l-.1759,1.3633q.0268-1.1135-.1492-.3755a.1816.1816,0,0,1-.1853-.1072v-.5981c.0574-.2034.5009-.3915.66-.1981-.0616-.0748-.0241-.1018-.0645.0641-.0315.129-.2071.3612-.3692.3178-.1341-.036.0782-.02-.0356-.0419a.2516.2516,0,0,1-.0415-.1359q-.0048-.193-.0921.0215c-.0939.0336-.188.2-.28.259-.1079.0695-.2639.1841-.3908.1116-.39-.2227.0555-.94.2667-1.1011a1.11,1.11,0,0,1,1.452.2026,1.0772,1.0772,0,0,1-.7709,1.8213c-1.0233-.0659-.9722-1.2516-.1627-1.6024a1.1334,1.1334,0,0,0,.4036-1.5392,1.1524,1.1524,0,0,0-1.5392-.4036Z"/><path class="cls-2" d="M503.4722,30.4605c-3.2051-2.07-6.7162-3.7874-10.6332-3.4864-3.8749.2978-7.2181,2.4513-10.3721,4.54a1.1458,1.1458,0,0,0-.2277,1.7669c5.0589,6.0193,17.4311,5.4743,21.5056-1.4018a1.1258,1.1258,0,0,0-1.9428-1.1356c-3.35,5.6526-13.894,5.7983-17.9718.9464l-.2277,1.7669c2.6991-1.7874,5.4915-3.69,8.77-4.1289,3.74-.5011,6.9134,1.1046,9.9645,3.0753,1.22.788,2.3491-1.1589,1.1356-1.9428Z"/><path class="cls-2" d="M490.167,28.552a3.6055,3.6055,0,0,0,.1853,5.99c2.278,1.4442,5.3017.38,6.7-1.795,3.3382-5.1928-7.1357-7.56-8.0316-2.5277-.4867,2.734,2.4885,4.3258,4.8168,3.5986,2.5189-.7869,4-3.91,1.2163-5.4268a3.3609,3.3609,0,0,0-5.0665,2.8347,2.7819,2.7819,0,0,0,4.69,1.9275c2.0844-2.0682-.73-5.4241-3.1883-3.9305a1.9419,1.9419,0,0,0-.5172,3.0529c1.1772,1.1134,2.7057.3791,3.5908-.6723a1.151,1.151,0,0,0,.1759-1.3633,2.1559,2.1559,0,0,0-3.8543.5357,1.1265,1.1265,0,0,0,.517,1.2705c.8545.384,1.9738.4122,2.2986-.6823a1.3391,1.3391,0,0,0-1.2973-1.7228c-1.065-.13-1.35,1.2678-.7955,1.92l1.1819-.021-.7955,1.92.2525.0053-.7955-.33-.238-.18a1.1348,1.1348,0,0,0,.9714,1.6928,3.4128,3.4128,0,0,0,3.5433-3.5726c-.0728-1.4409-2.3233-1.45-2.25,0A1.1761,1.1761,0,0,1,492.1835,32.4l.9714,1.6928c.8143-1.1881.4842-2.8465-1.1618-2.8812a1.1381,1.1381,0,0,0-.7955,1.9205,1.6676,1.6676,0,0,0,2.5136-.1148c.84-1.0121.2133-2.1914-.5135-3.0462l-.7955,1.9205.1671.02-.9714-.5572.0822.1853-.1134-.8669-.0737.1861.7858-.7858-.3027.0546.8669.1134-.3064-.1377.517,1.27q-.1014.2287-.2582.0018l.1759-1.3633c-.5036.5983.6048,1.3428-.1174,1.6532-.33.142-.5581-.1847-.6167-.44-.2225-.967,1.6716-1.486,1.9963-.6906.477,1.1685-2.0928,1.4772-2.6751.8968-.8159-.8134.0057-1.4495.8007-1.6369a3.9065,3.9065,0,0,1,2.2952.1718c1.2022.5109.6946,1.5919-.1487,2.2856a2.575,2.575,0,0,1-2.721.52c-.8172-.3986-1.3593-1.6084-.4819-2.2775,1.1362-.8664.0166-2.8214-1.1357-1.9428Z"/><path class="cls-2" d="M496.9264,47.1877c-7.9913,5.8131-15.8028,17.8726-5.7549,25.7457,1.127.8831,2.73-.6983,1.591-1.591-8.7594-6.8635-1.5746-17.2115,5.3-22.2119,1.16-.8436.038-2.7966-1.1356-1.9428Z"/><path class="cls-2" d="M482.3087,58.7663a12.3706,12.3706,0,0,0,.4428,7.1084c.501,1.3449,2.6766.7628,2.17-.5981a10.1915,10.1915,0,0,1-.4427-5.9122c.3166-1.41-1.8521-2.0126-2.17-.5981Z"/><path class="cls-2" d="M522.0207,52.0466l5.4444,8.7743c.762,1.228,2.7092.0995,1.9428-1.1356l-5.4444-8.7743c-.762-1.228-2.7092-.0995-1.9428,1.1356Z"/><path class="cls-2" d="M495.108,62.7132a79.9407,79.9407,0,0,1,11.19-2.2422c5.4043-.55,10.0023,1.2442,14.8751,3.36l.5678-2.0964q-13.8191-.8195-27.6449-.37a1.13,1.13,0,0,0-.2991,2.21C503.4442,66.81,514.86,72.71,522.9,63.3652c.94-1.0924-.6447-2.6909-1.591-1.591-7.2875,8.47-18.2825,2.5254-26.9139-.3691l-.2991,2.21q13.8362-.4492,27.6449.37c1.0669.0633,1.6-1.6483.5678-2.0964-4.3185-1.8755-8.7559-3.8035-13.5428-3.8487-4.7541-.0449-9.681,1.36-14.256,2.5037a1.126,1.126,0,0,0,.5982,2.17Z"/><path class="cls-2" d="M516.1823,96.2472l8.5157,14.4984c3.77,6.4195,6.0559,11.2168,1.5965,17.9182-1.2746,1.9154-1.6814,2.8984-1.0982,5.0653.441,1.6385,1.653,3.0644,1.7211,4.9394a18.4088,18.4088,0,0,1-.7605,4.385,43.083,43.083,0,0,0-1.1338,6.0994c-.6917,9.3235,5.4848,17.9605,8.9647,26.21a165.3685,165.3685,0,0,1,9.8818,31.4379c.2872,1.418,2.4564.8178,2.17-.5982a166.7662,166.7662,0,0,0-9.9311-31.5752c-1.9217-4.5663-4.1268-8.9847-6.174-13.4913-3.0678-6.7535-2.6234-12.0516-1.2359-19.0626.7046-3.5606-.1676-5.43-1.0522-8.6405-.7972-2.8937,3.4051-7.5268,3.7025-10.8931.372-4.2108-1.6481-7.7028-3.7058-11.2245q-4.74-8.1128-9.5176-16.2041a1.1258,1.1258,0,0,0-1.9428,1.1356Z"/><path class="cls-2" d="M516.7307,94.85c9.6944,3.098,19.4118,6.1326,29.0847,9.2971,9.0792,2.97,17.7085,6.6568,22.5269,15.4638,4.2564,7.78,5.5384,17.1815,7.03,25.8057.8829,5.1052,1.6645,10.2272,2.46,15.3466.6737,4.3364,1.0457,8.714,2.9617,12.7068.6263,1.305,2.567.165,1.9429-1.1356-2.4543-5.1146-2.614-11.4273-3.48-16.9694-.85-5.4379-1.7227-10.8733-2.7506-16.2808-1.611-8.4754-3.3865-17.5168-8.7567-24.5263-4.7231-6.1649-11.8267-9.3607-18.9957-11.8046-10.4064-3.5475-20.952-6.7262-31.4246-10.0729-1.3825-.4418-1.9744,1.73-.5982,2.17Z"/><path class="cls-2" d="M492.8361,165.2019c2.8263,14.2543,1.5282,29.602,1.6179,44.0728a1.1257,1.1257,0,0,0,2.25,0c-.0911-14.7064,1.1753-30.1781-1.6983-44.6709-.2814-1.4191-2.45-.8184-2.17.5981Z"/><path class="cls-2" d="M543.7517,205.82a36.8669,36.8669,0,0,0,.6714,4.2414c.3115,1.4134,2.4812.8153,2.17-.5981a31.6628,31.6628,0,0,1-.591-3.6433c-.144-1.4269-2.3955-1.4418-2.25,0Z"/><path class="cls-2" d="M555.7445,183.3332q7.8195-5.8172,15.838-11.3574c.6363-.4378,4.0862-3.3171,4.8362-3.2863,1.2311.0507,2.3965,1.9818,3.08,2.8108,1.1231,1.362,2.129,2.9521,3.1277,4.4069,1.6465,2.3986,1.9476,2.66,1.4714,5.9506-.5062,3.4969-.844,3.63-3.6973,5.1465-1.1354.6032-2.3606,1.0268-3.4928,1.6423a21.0374,21.0374,0,0,0-4.6663,3.6492c-7.9531,7.7131-14.1075-4.3162-16.1345-10.7979-.4308-1.3774-2.6036-.7894-2.17.5981,1.7389,5.56,6.9379,16.9013,14.427,15.4646,3.3538-.6434,5.369-3.972,7.9634-5.8553,3.19-2.3158,7.5368-3.0306,9.966-6.3741,1.8026-2.4811,1.5641-5.0556.1916-7.681a61.7118,61.7118,0,0,0-5.0437-7.2855c-.83-1.14-1.9476-3.45-3.3646-4.0135-2.6416-1.05-5.6563,2.3239-7.63,3.6818q-8.03,5.5235-15.838,11.3574c-1.1487.8545-.028,2.8085,1.1356,1.9428Z"/><path class="cls-2" d="M574.2629,183.5638a6.1251,6.1251,0,0,0,1.3478,3.1108,1.5144,1.5144,0,0,0,2.5715-.1846,2.9089,2.9089,0,0,0-.5842-2.7713,10.6849,10.6849,0,0,0-2.3641-2.6523,1.1409,1.1409,0,0,0-1.92.7954,2.5864,2.5864,0,0,0,.8242,1.9329c1.0478.9993,2.6414-.5892,1.591-1.591a.2856.2856,0,0,1-.1652-.3419l-1.92.7955a8.9593,8.9593,0,0,1,2.2325,2.5642,3.8749,3.8749,0,0,0,.2374.5041l1.1-.6471a5.5281,5.5281,0,0,1-.292-.4895,5.2161,5.2161,0,0,1-.4883-1.6234c-.2212-1.4265-2.39-.8207-2.17.5982Z"/><path class="cls-2" d="M582.1621,187.2323c1.2344,7.8713,5.0208,15.089,5.7062,23.0656.1231,1.4318,2.3742,1.4448,2.25,0-.7039-8.1926-4.52-15.587-5.7866-23.6637-.2236-1.4263-2.3921-.8207-2.17.5981Z"/><path class="cls-2" d="M437.893,102.0418c-10.9569,7.173-21.981,14.2538-32.8734,21.5242-8.61,5.747-17.4221,12.9158-22.2881,22.2329-4.5831,8.7756-6.2517,18.6987-7.5691,28.406-.7451,5.49-1.65,11.0721-1.0649,16.6193.6666,6.3187,2.83,12.2964,2.43,18.7234-.09,1.446,2.16,1.4407,2.25,0,.3119-5.0157-.8424-9.6567-1.7634-14.5513-1.1253-5.98-.7984-11.5355-.0322-17.52,1.3264-10.36,2.7949-21.1652,7.6919-30.5417,5.1314-9.8255,14.7482-17.0149,23.8292-22.9665q15.2576-9.9995,30.5251-19.9835c1.2067-.79.0806-2.739-1.1356-1.9428Z"/><path class="cls-2" d="M416.8032,179.145c3.3357,9.8963,3.7021,21.0151,3.969,31.3853a1.1257,1.1257,0,0,0,2.25,0c-.2706-10.5106-.6626-21.9356-4.0494-31.9834-.46-1.3649-2.6339-.7794-2.17.5981Z"/><path class="cls-2" d="M572.1345,53.242c3.747-1.4348,7.3839-3.0133,9.44-6.6689a25.8963,25.8963,0,0,0,2.757-12.9044c-.2134-4.4357-2.4311-8.1428-4.2046-12.0946a20.4573,20.4573,0,0,1-1.8421-5.4941c-.0966-.6936-.6582-7.0834,2.6564-4.538,1.0135.7783-2.0769,8.2284-2.517,9.3068-.5468,1.34,1.6289,1.9231,2.17.5981,1.1223-2.75,4.7382-10.929,1.5588-13.6489-2.3648-2.0231-4.8829.855-5.7212,2.9731-2.0247,5.1154,1.1344,10.4025,3.19,14.9193,2.1024,4.6191,2.8566,8.5728,1.89,13.5762-1.2083,6.2558-3.9055,9.4815-9.9756,11.8057-1.3386.5126-.7576,2.6888.5981,2.17Z"/><path class="cls-2" d="M589.4445,33.7261c4.3144,3.2921,9.0986,6.572,14.7853,5.8975,1.42-.1684,1.4374-2.42,0-2.25-5.3093.63-9.6423-2.5324-13.65-5.59-1.1508-.8781-2.2728,1.0751-1.1356,1.9428Z"/><path class="cls-2" d="M595.1413,27.6159a19.7431,19.7431,0,0,1,7.9135-1.3607c1.4482.0474,1.4465-2.2027,0-2.25a21.3576,21.3576,0,0,0-8.5116,1.4411c-1.3352.5188-.7546,2.6952.5981,2.17Z"/><path class="cls-2" d="M593.4936,27.984a11.5887,11.5887,0,0,0,9.5481,3.3788c1.4221-.1621,1.4386-2.414,0-2.25a9.4383,9.4383,0,0,1-7.9571-2.72,1.1256,1.1256,0,0,0-1.591,1.591Z"/><path class="cls-2" d="M594.8754,28.4749a42.6149,42.6149,0,0,1,9.354.7764c1.4144.2781,2.02-1.89.5981-2.17a45.3859,45.3859,0,0,0-9.9521-.8568,1.1257,1.1257,0,0,0,0,2.25Z"/><path class="cls-2" d="M600.4727,13.4577c-2.7881-1.3641-6.8007.5385-5.518,4.0321a2.937,2.937,0,0,0,3.3806,1.9309,20.9948,20.9948,0,0,0,2.5636-1.063,1.451,1.451,0,0,1,.8319-.1363q.3582.45-.3-.0485a5.1042,5.1042,0,0,1-1.9613-.5955l.4036,1.5392-.2044.0878a1.1257,1.1257,0,0,0,0-2.25A1.7564,1.7564,0,0,0,597.93,17.981a1.1468,1.1468,0,0,0,.4036,1.5392c1.371.7747,3.7769,1.5192,5.1391.3117a2.2447,2.2447,0,0,0-.3848-3.3888c-1.6763-1.233-3.2125.1672-4.8093.6754-.8051.2563-1.6136-.2606-1.2543-1.2073.34-.8955,1.6114-.8538,2.3128-.5107,1.2957.634,2.4375-1.3058,1.1356-1.9428Z"/><path class="cls-2" d="M601.44,14.5478a5.8126,5.8126,0,0,0,.4536-3.474,1.1339,1.1339,0,0,0-1.3839-.7858,1.1517,1.1517,0,0,0-.7858,1.3839,3.1035,3.1035,0,0,1-.2267,1.74,1.1594,1.1594,0,0,0,.4036,1.5393,1.1339,1.1339,0,0,0,1.5392-.4036Z"/><path class="cls-2" d="M571.054,51.9355c-.53,2.84.432,5.0369,2.4088,7.1055,3.2346,3.3849,5.6893,7.01,8.6269,10.6254,5.2752,6.4924,13.7581,8.222,21.6946,8.81,1.4444.107,1.4376-2.1435,0-2.25-7.0862-.5246-14.7105-1.9747-19.64-7.5662-1.9769-2.2422-3.2216-5.04-5.1284-7.34-2.1813-2.6313-6.5281-4.8435-5.7919-8.7865.2643-1.4153-1.9038-2.022-2.17-.5982Z"/><path class="cls-2" d="M570.3852,51.8813c-5.9426,3.3959-11.9131,6.8318-18.308,9.3189-4.3659,1.698-9.1014,2.76-12.5169,6.1845-7.8461,7.8664-5.59,20.4265-9.8989,29.9192-.594,1.3086,1.3445,2.4537,1.9428,1.1357,4.0942-9.02,1.98-22.212,9.5471-29.4639,4.006-3.8391,10.0285-4.8539,14.9974-7.051a169.0427,169.0427,0,0,0,15.3721-8.1006,1.1258,1.1258,0,0,0-1.1356-1.9428Z"/><path class="cls-2" d="M546.67,80.197c5.5994,7.5649,5.91,15.0346,6.6507,24.114.1169,1.4332,2.3679,1.4457,2.25,0-.78-9.5683-1.0725-17.2983-6.9579-25.25-.852-1.1512-2.8057-.03-1.9428,1.1356Z"/><path class="cls-2" d="M579.1517,158.725a78.2262,78.2262,0,0,0,8.04,6.4542c2.8249,1.9565,7.1739,3.3549,9.6593,5.6082,4.6075,4.1773-.5932,12.6093-2.684,16.5-.8186,1.5233-1.3566,3.733-3.5627,3.6294-1.371-.0643-4.1429-2.5542-5.3424-3.2937-1.236-.762-2.3673,1.1834-1.1356,1.9428,2.5324,1.5613,6.4181,5.5729,9.4376,3.1043,1.5957-1.3044,2.8093-4.68,3.7291-6.5051a42.56,42.56,0,0,0,3.2441-8.09c1.0558-3.94,1.098-6.9536-2.55-9.23-6.0494-3.774-11.8823-6.84-17.2445-11.7106-1.07-.9717-2.6656.6149-1.5909,1.591Z"/><path class="cls-2" d="M592.5548,192.1669a17.9094,17.9094,0,0,0,10.5987,7.5584,1.126,1.126,0,0,0,.5981-2.17,15.5522,15.5522,0,0,1-9.254-6.5243c-.797-1.201-2.7465-.0755-1.9428,1.1356Z"/><path class="cls-2" d="M600.979,172.8689a2.5929,2.5929,0,0,1,2.4451-.8609,1.1307,1.1307,0,0,0,1.125-1.125,1.1536,1.1536,0,0,0-1.125-1.125,4.7756,4.7756,0,0,0-4.3879,1.9753,1.1314,1.1314,0,0,0,.4036,1.5392,1.1535,1.1535,0,0,0,1.5392-.4036Z"/><path class="cls-2" d="M575.0757,7.6481c-3.2881,4.49-3.7289,9.7633-2.8142,15.1339.3247,1.9067,1.5723,4.3634,1.5021,6.26-.119,3.2123-2.0442,5.6792-4.2253,7.6845-1.9787,1.8191-4,3.7629-5.0978,6.2707-1.121,2.5618-1.5105,7.3359,2.3255,7.8609a3.1348,3.1348,0,0,0,2.9022-1.023c2.7672-3.17.0547-7.6879,6.5749-8.6943l-1.424-1.0848c-.3479,3.4692-3.4207,4.8969-2.4058,8.547a1.1337,1.1337,0,0,0,1.3838.7857c3.08-1.146,5.0028-6.2829,8.0765-6.5074,1.4355-.1049,1.447-2.3557,0-2.25-4.4372.3242-4.8655,5.17-8.6746,6.5878l1.3839.7857c-.6758-2.4306,2.23-5.3909,2.4862-7.9488.08-.8034-.78-1.1843-1.4241-1.0849-3.912.6039-4.9391,2.579-6.9838,5.5548-.1411.2054-.13,1.5587-.33,1.647-4.489,1.9782-.6368-4.148-.3114-4.59,1.71-2.326,4.119-3.8374,6.0635-5.9231,2.56-2.7454,2.3029-5.1324,1.4867-8.6-1.4963-6.3566-2.6886-12.6264,1.4489-18.276.8565-1.1695-1.095-2.2932-1.9428-1.1356Z"/><path class="cls-2" d="M415.0418,7.8791l-.7437-1.6837L412.3553,7.331c3.1763,6.052,9.3329,14.1021,16.8018,14.6141,7.7363.53,14.3111-6.9778,17.4069-13.2861.6355-1.2952-1.3043-2.4368-1.9429-1.1356-2.8586,5.8251-9.3689,13.7042-16.7728,11.954-5.999-1.4181-10.873-8.1811-13.55-13.282-.6858-1.3067-2.5146-.159-1.9428,1.1356l.7437,1.6837c.5838,1.3217,2.5231.1781,1.9428-1.1356Z"/><path class="cls-2" d="M385.3328,41.4778a56.2,56.2,0,0,0,2.1148,15.3545c1.76,6.1028,3.5368,11.46,1.0645,17.723C383.6563,86.8562,369.1753,91.0946,358,84.5857a1.1258,1.1258,0,0,0-1.1356,1.9428c10.2878,5.9918,23.4,4.0177,30.7016-5.6745,9.3556-12.418.0992-25.7453.0172-39.3762a1.1257,1.1257,0,0,0-2.25,0Z"/><path class="cls-2" d="M388.3688,56.212c11.29,3.7206,22.9392,6.923,33.9819,11.3287,11.7458,4.6863,16.6449,14.5549,19.6069,26.2259a1.1259,1.1259,0,0,0,2.17-.5981c-2.6089-10.28-6.7784-20.4269-16.568-25.7113-5.065-2.734-10.7965-4.2547-16.2318-6.0459l-22.36-7.3689c-1.3784-.4543-1.9692,1.7178-.5981,2.17Z"/><path class="cls-2" d="M327.2223,164.83a216.7614,216.7614,0,0,1,24.8871-1.4632,1.1316,1.1316,0,0,0,1.125-1.125c-.4217-3.9516-.8678-7.9441-2.6844-11.5394-2.2923-4.5369-4.52-7.8566-5.3021-13.0535-.2147-1.427-2.3831-.8206-2.17.5982a25.9148,25.9148,0,0,0,3.0707,9.6509,32.0356,32.0356,0,0,1,4.8355,14.3438l1.125-1.125a216.7575,216.7575,0,0,0-24.8871,1.4632c-1.4211.1658-1.4379,2.4178,0,2.25Z"/><path class="cls-2" d="M319.6282,179.5308a52.6153,52.6153,0,0,1,11.6676,18.7441c1.7345,4.91,3.4853,9.56,7.288,13.2576,1.0387,1.01,2.6314-.5793,1.591-1.591-5.0158-4.8775-6.1271-11.7233-8.8339-17.9-2.3675-5.4022-6.1708-9.7992-10.1217-14.1019-.9815-1.0689-2.5694.5255-1.591,1.591Z"/><path class="cls-2" d="M348.1888,163.0676c1.7646,4.8147,3.9066,9.5716,4.6258,14.6728a15.3215,15.3215,0,0,0,2.8111,7.587c4.6837,6.2986,13.168,10.09,20.0642,13.2918,1.305.6059,2.4491-1.333,1.1356-1.9428-6.3817-2.9631-14.0714-6.4094-18.7358-11.8626-2.8011-3.2748-2.6342-6.9-3.6178-10.839-.9746-3.9038-2.7321-7.7362-4.1135-11.5053-.4942-1.3484-2.67-.7658-2.17.5981Z"/><path class="cls-2" d="M307.208,192.793q.7641,9.2878.6376,18.5985a1.1257,1.1257,0,0,0,2.25,0q.1262-9.3184-.6376-18.5985c-.1179-1.4329-2.3689-1.4455-2.25,0Z"/><path class="cls-2" d="M337.62,7.1463c-2.184.6944-4.33,1.4661-6.4564,2.3215a1.1422,1.1422,0,0,0-.4965,1.88c2.5694,2.7636,5.0939,5.5792,7.7159,8.2928,1.74,1.8009,3.637,3.3129,6.254,3.2367,1.4447-.0421,1.4507-2.2923,0-2.25-2.8631.0834-4.8605-2.7838-6.6213-4.6777L332.258,9.7571l-.4964,1.88c2.1261-.8555,4.2724-1.6272,6.4564-2.3216,1.3749-.437.7874-2.61-.5981-2.17Z"/><path class="cls-2" d="M347.5585,18.581a15.6523,15.6523,0,0,1-7.4667-4.0948c-.357-.3612-1.1649-1.0136-1.2826-1.4915-.2406-.9769.503-1.5034,1.098-2.0088a14.758,14.758,0,0,1,3.861-2.3005c1.3279-.5657.1828-2.5045-1.1356-1.9428-2.5669,1.0937-7.8126,3.9055-5.7662,7.3877,2.0305,3.4552,6.35,5.6912,10.0939,6.62a1.126,1.126,0,0,0,.5982-2.17Z"/><path class="cls-2" d="M343.386,13.4781a12.0189,12.0189,0,0,1,6.7336-2.0688,1.1258,1.1258,0,0,0,0-2.25,12.8008,12.8008,0,0,0-8.2587,2.0062,1.1469,1.1469,0,0,0-.2277,1.7669,7.0046,7.0046,0,0,0,7.0258,2.4221c1.4164-.2968.817-2.4662-.5981-2.17a4.7974,4.7974,0,0,1-4.8367-1.8435l-.2277,1.7669a10.8031,10.8031,0,0,1,7.1231-1.699v-2.25a14.1966,14.1966,0,0,0-7.8692,2.376c-1.2009.7972-.0754,2.7468,1.1356,1.9428Z"/><path class="cls-2" d="M344.8993,12.0783a2.5162,2.5162,0,0,0,1.6213,2.1808,2.1934,2.1934,0,0,0,2.3332-.4683c1.2244-1.2516.5-3.7659-1.3855-3.7641s-2.99,2.76-1.2173,3.7873a2.0457,2.0457,0,0,0,2.3319-.3235,1.8906,1.8906,0,0,0,.456-2.3123,1.133,1.133,0,0,0-1.7669-.2277,2.6211,2.6211,0,0,0-.6434,2.7759c.3134.826,1.5829,1.21,2.0562.2687a7.6668,7.6668,0,0,1,1.1734-1.7377l-1.9205-.7955a2.8375,2.8375,0,0,1-.5123,1.5837l1.9428,1.1356,1.213-2.7335a1.16,1.16,0,0,0-.4036-1.5392,1.1335,1.1335,0,0,0-1.5392.4036l-1.213,2.7335a1.1259,1.1259,0,0,0,1.9428,1.1356,5.0285,5.0285,0,0,0,.82-2.7193,1.1366,1.1366,0,0,0-1.9205-.7955A9.83,9.83,0,0,0,346.742,12.86l2.0562.2688c-.0934-.246-.1261-.393.0648-.5868l-1.7669-.2277c-.2783-.6342.176-.6253.4332-.2978.2322.2958-.0032.3049-.2728.1927.078.0325-.1171-.2108-.1072-.13a1.1607,1.1607,0,0,0-1.125-1.125,1.1317,1.1317,0,0,0-1.125,1.125Z"/><path class="cls-2" d="M335.8911,17.3251c-.8587,5.8252-1.4276,12.3535,3.5195,16.5608,1.0971.933,2.6961-.6512,1.591-1.591-4.2965-3.654-3.6835-9.3341-2.9409-14.3717.2088-1.4164-1.9589-2.0277-2.17-.5981Z"/><path class="cls-2" d="M318.1637,7.3411A31.3781,31.3781,0,0,0,322.2708,27.69c1.8462,3.07,4.2683,5.2734,6.6792,7.8684,2.2167,2.3859,3.44,5.5069,6.2271,7.2869,1.2239.7818,2.3536-1.1648,1.1356-1.9428-2.3829-1.5221-3.81-4.8864-5.7717-6.9351-2.3032-2.4052-4.5782-4.5043-6.3274-7.4131a29.4541,29.4541,0,0,1-3.8-19.2128c.1862-1.4317-2.0656-1.4181-2.25,0Z"/><path class="cls-2" d="M303.7583,8.0427c3.779,4.3231,3.5063,10.0323,4.37,15.3826.8366,5.1813,3.7277,9.3874,3.292,14.76-.8272,10.2022.5372,19.4326,5.6947,28.4108a1.1258,1.1258,0,0,0,1.9428-1.1356,42.3818,42.3818,0,0,1-5.7167-18.1748c-.3678-5.1861,1.4785-10.8032-.224-15.8008a71.4886,71.4886,0,0,1-3.51-14.2887C309.05,13.12,308.0835,9.58,305.3493,6.4517c-.9548-1.0923-2.5407.5045-1.591,1.591Z"/><path class="cls-2" d="M230.58,8.814a8.5934,8.5934,0,0,1,2.56,2.91,4.57,4.57,0,0,0,1.2345,1.8567c1.3742.9265,3.9317.6047,5.3832.1007a5.5409,5.5409,0,0,0,2.9432-7.8827c-.6584-1.29-2.6-.1528-1.9428,1.1356a3.4967,3.4967,0,0,1-4.8079,4.5573c-.9116-.5343-1.25-1.6324-1.9162-2.473a11.5155,11.5155,0,0,0-2.3185-2.1471c-1.17-.8556-2.294,1.0959-1.1356,1.9428Z"/><path class="cls-2" d="M234.0633,13.8868c2.0678,10.7919-.7054,22.0558,3.5388,32.4612.54,1.3229,2.7171.7442,2.17-.5981-4.2189-10.3435-1.4774-21.7026-3.5388-32.4612-.2722-1.4206-2.4412-.8191-2.17.5981Z"/><path class="cls-2" d="M240.952,11.6223c3.1259,7.286,1.9521,14.7972,4.1158,22.1924,2.259,7.7213,4.9736,15.3408,7.4581,22.9927.4453,1.3714,2.6186.7846,2.17-.5981-2.6172-8.06-5.8912-16.179-7.87-24.4206-.8937-3.7233-.56-7.5251-1.0489-11.2957a37.4418,37.4418,0,0,0-2.8824-10.0063c-.5693-1.3268-2.5081-.182-1.9428,1.1356Z"/><path class="cls-2" d="M281.0113,31.7608c4.7934,10.4046,5.3747,20.7786,3.92,31.9753a60.61,60.61,0,0,0,.1668,13.3773c.3614,4.1955.1284,8.3616,1.2328,12.4635,1.2312,4.5731,3.8063,9.16,2.8541,14.0113-.9636,4.9088-4.9623,8.2439-7.0092,12.6595-3.3821,7.2957,5.48,6.2954,10.4341,6.7212,1.4424.124,1.4342-2.1267,0-2.25-1.66-.1427-8.5123.1011-8.955-2.2242-.2735-1.436,2.8443-5.0181,3.6706-6.2266,1.8075-2.6437,3.6277-5.2552,4.1831-8.4757.5621-3.26-.29-6.39-1.2688-9.47a51.6062,51.6062,0,0,1-2.6887-13.9182c-.2128-4.4959-1.0624-8.9548-.7477-13.4649.3-4.3014,1.2753-8.4719,1.34-12.8039a54.1109,54.1109,0,0,0-5.19-23.51c-.6052-1.3137-2.5451-.1719-1.9428,1.1356Z"/><path class="cls-2" d="M283.8233,120.8462a38.5687,38.5687,0,0,0-3.3289,21.3688c.1824,1.4163,2.4347,1.4344,2.25,0a36.5186,36.5186,0,0,1,3.0217-20.2332c.6008-1.3066-1.3379-2.4511-1.9428-1.1356Z"/><path class="cls-2" d="M238.8477,169.4259c8.64,9.3822,19.5117-3.6427,24.8732-9.9031,5.0746-5.9255,10.1086-11.1455,16.6773-15.4487,5.1693-3.3865,8.83-6.9448,10.7133-12.9695,2.3617-7.5551,3.4306-14.9987,7.2913-22.08,3.4419-6.3129,8.209-11.7619,11.0365-18.4257,3.22-7.59,4.6894-15.9112,9.0157-23.0188,3.8064-6.2533,9.1758-11.4861,13.5653-17.3309a156.0538,156.0538,0,0,0,23.3-44.95c.4543-1.3784-1.7178-1.9693-2.17-.5982a153.432,153.432,0,0,1-25.5168,47.5766c-5.0274,6.3173-10.6134,11.9967-13.8488,19.52-3.5378,8.2263-5.1669,17.0238-10,24.6932-4.3629,6.9224-8.9616,13.2993-11.546,21.1645-1.3021,3.9629-1.8694,8.0933-3.06,12.08-1.6351,5.4779-4.5517,8.8581-9.2659,11.9718a78.3894,78.3894,0,0,0-16.7328,14.996c-4.6517,5.4268-14.9195,19.6261-22.7415,11.1322-.9831-1.0674-2.571.5268-1.591,1.591Z"/><path class="cls-2" d="M389.2985,6.54c-6.9522,8.0736-9.2942,19.7953-12.66,29.6539-4.2123,12.3365-8.13,24.8407-13.883,36.5706C357.2125,84.0647,351.1678,95.1566,345.26,106.27a87.5271,87.5271,0,0,1-10.3242,15.9251c-2.8593,3.3637-5.5736,6.5724-6.9621,10.8351-.45,1.38,1.7223,1.9712,2.17.5982,1.6968-5.2091,5.778-8.8068,9.0053-13.06a100.741,100.741,0,0,0,8.4767-13.9593c5.7491-10.86,11.662-21.6765,17.0731-32.709,4.8515-9.8916,8.3734-20.3076,11.9271-30.7156L382.55,25.8331c2.124-6.22,3.9708-12.6285,8.34-17.7024.94-1.0921-.6442-2.6906-1.591-1.591Z"/><path class="cls-2" d="M338.754,118.1393a366.0364,366.0364,0,0,1-16.486,52.0721c-5.9217,15.0358-19.7237,24.2266-27.2918,38.1922-.69,1.2733,1.2519,2.41,1.9428,1.1357,7.3585-13.5789,20.7925-22.5816,26.8329-37.0284,3.5205-8.42,6.1714-17.2994,9.0684-25.9515,3.07-9.1694,5.9525-18.3879,8.1033-27.822.3214-1.41-1.8473-2.0115-2.17-.5981Z"/><path class="cls-2" d="M303.7278,119.5609c.2631,3.2643,4.6016,4.502,7.3049,5.5618a33.1231,33.1231,0,0,0,13.917,2.1482c1.4407-.0745,1.45-2.3249,0-2.25a31.5029,31.5029,0,0,1-10.1849-1.0108c-1.8113-.5061-8.612-2.2783-8.787-4.4492-.1154-1.4335-2.3664-1.4459-2.25,0Z"/><path class="cls-2" d="M242.8319,171.4171c6.7112-2.0726,8.5,6.671,11.098,10.634,1.8849,2.8752,4.5433,4.9743,7.2177,7.071a76.4208,76.4208,0,0,1,18.66,21.6982,1.1258,1.1258,0,0,0,1.9428-1.1356,97.2,97.2,0,0,0-9.0549-13.0325c-3.7836-4.45-8.3244-7.5283-12.7052-11.2984-4.3138-3.7125-5.3166-8.5628-8.6846-12.7986-2.28-2.8669-5.5007-4.4107-9.0722-3.3077-1.3792.4259-.7908,2.5986.5982,2.17Z"/><path class="cls-2" d="M232.4558,170.1577a129.2971,129.2971,0,0,1,.6377,19.7206c-.3557,7.4762-.845,14.6115-6.9651,19.6694-1.117.9231.4825,2.5071,1.591,1.5909,5.0181-4.1471,6.6225-9.3055,7.2269-15.6314a126.6732,126.6732,0,0,0-.24-25.35c-.15-1.4254-2.4019-1.4408-2.25,0Z"/><path class="cls-2" d="M239.6172,167.2822c-2.076.983.0483,3.0919,1.1331,3.7624a11.9663,11.9663,0,0,0,6.8774,1.7179c1.4415-.0688,1.45-2.3192,0-2.25a10.0752,10.0752,0,0,1-3.5675-.4118c-.3676-.1163-3.0618-1.2393-3.0008-1.4484l-.517.6724.21-.1c1.3079-.6193.1674-2.56-1.1356-1.9428Z"/><path class="cls-2" d="M225.0159,62.3389c6.1695,2.3793,9.7326,10.6407,13.129,15.8627,1.6575,2.5484,3.3579,5.0743,4.97,7.6514,2.1413,3.4221,2.5281,6.2605,2.2845,10.2023-.2745,4.4411.8889,6.6238,3.7149,9.9212,5.1746,6.0375,7.8457,14.4378,1.0518,20.5788-1.0765.973.5186,2.56,1.591,1.591a14.6144,14.6144,0,0,0,3.9258-15.91,21.3094,21.3094,0,0,0-4.0527-6.8407c-1.0691-1.2663-2.5472-2.451-3.3079-3.954-1.5028-2.9693-.3341-5.6221-.4051-8.6221-.1594-6.7416-5.85-12.7082-9.3554-18.0985-3.4965-5.3759-6.6171-12.11-12.9482-14.5513-1.352-.5214-1.9373,1.6532-.5982,2.17Z"/><path class="cls-2" d="M252.2128,125.8659c.8485,6.1235.9,11.0281-1.6465,16.79a22.3447,22.3447,0,0,0-1.84,10.4925c.15,6.293-1.7167,11.68-8.3416,13.4517-5.9773,1.5986-11.858-1.265-16.6718-4.5857-1.1948-.8242-2.3211,1.125-1.1357,1.9428,7.9778,5.5033,22.353,9.025,27.3607-2.4173a17.9438,17.9438,0,0,0,1.0671-7.5748A25.5728,25.5728,0,0,1,253.17,142.47c2.3964-5.7181,2.052-11.1429,1.2123-17.2025-.1979-1.428-2.3662-.82-2.17.5982Z"/><path class="cls-2" d="M234.6253,166.888c-2.5412.1625-4.92.8661-7.433,1.2265a36.9449,36.9449,0,0,1-9.2358-.2094,78.1785,78.1785,0,0,1-16.1774-2.9267A32.2571,32.2571,0,0,1,180.4,142.756a1.1259,1.1259,0,0,0-2.17.5981,34.2573,34.2573,0,0,0,19.5629,22.5387,57.715,57.715,0,0,0,15.1457,3.6866,97.66,97.66,0,0,0,10.5844,1.055c3.8515.0786,7.2891-1.2526,11.1017-1.4964,1.4379-.0919,1.4482-2.3426,0-2.25Z"/><path class="cls-2" d="M225.1957,98.2873c2.541,6.26,5.2336,12.5438,10.4274,17.0826,1.0861.9492,2.6838-.6359,1.591-1.5909-4.898-4.28-7.452-10.1851-9.8488-16.09-.5375-1.3242-2.7149-.7452-2.17.5982Z"/><path class="cls-2" d="M235.4289,113.9219a10.137,10.137,0,0,1,4.8172,3.2353c.8971,1.1076-.1091,1.3245-1.0722,1.8495l-3.0987,1.689,1.6928.9714a2.137,2.137,0,0,1,1.6331-2.31l-1.3839-1.3839a1.8482,1.8482,0,0,1-1.1515,1.4073l1.3633,1.7669.48-.4645c1.0427-1.0086-.5493-2.5986-1.591-1.591l-.48.4645c-.9666.935.256,2.2886,1.3633,1.7669a3.8564,3.8564,0,0,0,2.1855-2.752,1.1372,1.1372,0,0,0-1.3839-1.3838,4.372,4.372,0,0,0-3.2849,4.48,1.138,1.138,0,0,0,1.6928.9714,43.4718,43.4718,0,0,0,4.87-2.6726,2.197,2.197,0,0,0,.87-2.7529c-1.0255-2.703-4.34-4.6258-6.9228-5.4607-1.381-.4464-1.9725,1.7254-.5982,2.17Z"/><path class="cls-2" d="M222.8994,123.4614q.2149.9834.68.16l.5637-.4276a8.8993,8.8993,0,0,1,1.3169-.7215,10.2843,10.2843,0,0,1,3.2623-1.1287c.2725.0062-.8355.4708-1.0989.5925a14.5358,14.5358,0,0,1-1.8176.6911,15.9058,15.9058,0,0,1-3.8248.6685c-1.44.0815-1.4491,2.332,0,2.25A16.9736,16.9736,0,0,0,230,123.2337c1.6255-1.022,1.9077-3.2321-.159-3.9826-2.3116-.8393-11.8367,3.3988-8.077,6.1531,1.1693.8567,2.293-1.0949,1.1356-1.9428Z"/><path class="cls-2" d="M222.6428,114.6357c-2.29,2.0835-6.0873,3.084-6.6791,6.5813-.4239,2.5052,1.885,5.05,4.4467,4.1757,1.3627-.465.7776-2.6391-.5981-2.17-1.2439.4244-1.8759-1.0754-1.528-2.052a5.1743,5.1743,0,0,1,2.0738-2.2668,33.76,33.76,0,0,0,3.8757-2.6775c1.0733-.9766-.5215-2.5641-1.591-1.591Z"/><path class="cls-2" d="M217.92,116.31a91.7188,91.7188,0,0,1-17.7187,17.8774c-1.1353.8674-.0158,2.8225,1.1356,1.9429a95.5623,95.5623,0,0,0,18.5259-18.6846c.8693-1.1587-1.0832-2.2814-1.9428-1.1357Z"/><path class="cls-2" d="M241.6178,117.2677a7.3467,7.3467,0,0,0,2.9474,3.6552,9.9041,9.9041,0,0,1,3.8944,5.3253,1.126,1.126,0,0,0,2.17-.5981,11.2151,11.2151,0,0,0-2.7886-4.9134c-1.3055-1.3182-3.4778-2.1925-4.0533-4.0672-.4237-1.38-2.5963-.7915-2.17.5982Z"/><path class="cls-2" d="M215.9978,106.2905a10.2023,10.2023,0,0,0-10.4716-4.511c-5.3787.8517-8.7837,5.3312-13.4373,7.6637-1.2947.649-.1566,2.59,1.1356,1.9429,6.1451-3.08,14.76-12.9952,20.83-3.96.8035,1.1957,2.7534.0707,1.9429-1.1356Z"/><path class="cls-2" d="M195.2635,109.9615a18.3966,18.3966,0,0,0,20.5235-2.5293c1.0994-.9461-.4982-2.5315-1.591-1.591a16.03,16.03,0,0,1-17.7969,2.1775c-1.29-.6492-2.4307,1.2911-1.1356,1.9428Z"/><path class="cls-2" d="M204.6846,102.6764a4.774,4.774,0,0,0-1.7626,6.8943c1.6289,2.2921,5.1012,2.1315,6.9911.2658,2.3423-2.3123,1.0678-6.15-1.752-7.3935-2.7965-1.2335-6.5288.9939-6.0506,4.2393.4124,2.7982,4.5414,4.4415,6.1287,1.6326,1.4061-2.4883-1.0432-5.7793-3.8119-4.29-2.6574,1.43-2.0815,5.6584.9982,6.0324a3.1889,3.1889,0,0,0,2.49-5.5968,2.8529,2.8529,0,0,0-4.1875.3136,2.6443,2.6443,0,0,0,1.2036,3.7686c3.37,1.6966,5.656-3.05,2.753-5.076a1.1359,1.1359,0,0,0-1.6526,1.27,7.1289,7.1289,0,0,1,.2842,2.597l1.6928-.9714a2.3231,2.3231,0,0,1-1.3169-1.4362,1.13,1.13,0,0,0-2.21.299l-.0445,1.3676.5572-.9714q.8127,1.2791.847.5456a.8519.8519,0,0,0-.02-.4486c.0811-.383.0572-.6686.3095-.0053.2215.5824.0483,1.0818.63,1.5381a1.4639,1.4639,0,0,0,2.2818-.8708,1.1756,1.1756,0,0,0-.517-1.27l-.1178-.0859a1.1323,1.1323,0,0,0-1.6928.9714l.037,1.9007a1.1378,1.1378,0,0,0,1.9205.7955l-.71-1.15,1.4241,1.0848-.047-3.2566a1.13,1.13,0,0,0-2.21-.2991,1.9411,1.9411,0,0,0,.929,2.3377l-.5171-1.27a2.4533,2.4533,0,0,1-1.8577,1.9227,1.1259,1.1259,0,0,0,.5981,2.17,4.7185,4.7185,0,0,0,3.4293-3.4942,1.1562,1.1562,0,0,0-.517-1.27l.105.2033-2.21-.2991.047,3.2566a1.1435,1.1435,0,0,0,1.4241,1.0848,1.6206,1.6206,0,1,0-1.4788-2.6109l1.9205.7955-.037-1.9007-1.6929.9714.1179.0859-.517-1.27.8685-.4993.6723.517c-.2839-.54-.0872-1.1468-.5163-1.7164a2.4873,2.4873,0,0,0-1.5162-.9532,2.424,2.424,0,0,0-2.8066,1.9651,2.2339,2.2339,0,0,0,1.0039,2.6119,1.4915,1.4915,0,0,0,1.5511-.1431c.7572-.5464.5746-1.5072.6016-2.339l-2.21.2991a4.5605,4.5605,0,0,0,2.3509,2.7809,1.1408,1.1408,0,0,0,1.6928-.9714,8.893,8.893,0,0,0-.3646-3.1951l-1.6526,1.27c.5109.3565.3522,1.2669-.3318,1.2214-.7153-.0477-.8482-1.0559.0782-.5738,1.8442.96-1.1367,2.8589-1.3518,1.0228-.0673-.5747.6788-1.6145,1.2931-1.0051a1.0716,1.0716,0,0,1-.0079,1.2c-.4235.4988-1.18.1983-1.5568-.2292a1.4935,1.4935,0,0,1,.2032-2.0815c2.48-2.579,6.1408,2.8652,2.2559,3.9586-2.8772.81-3.7546-3.1912-1.3111-4.304,1.316-.5993.1737-2.539-1.1356-1.9428Z"/><path class="cls-2" d="M195.6576,115.407a24.7863,24.7863,0,0,0,16.029-1.354c1.327-.5688.1821-2.5076-1.1356-1.9428a22.2264,22.2264,0,0,1-14.2953,1.1272c-1.4058-.3465-2.0055,1.8227-.5981,2.17Z"/><path class="cls-2" d="M234.405,101.8569a11.0686,11.0686,0,0,1,3.9633-3.32,10.3585,10.3585,0,0,1,2.869-.9149c1.4127-.2159,2.3513-.4448,2.0978,1.2864-.55,3.7533-8.2051,2.4492-10.71,1.3618-1.3148-.5709-2.4618,1.367-1.1356,1.9428a14.9767,14.9767,0,0,0,10.1348.8667c2.1873-.6161,5.892-2.2112,5.08-5.1529-.69-2.5-3.9546-2.8611-6.0661-2.4744a13.2081,13.2081,0,0,0-8.1769,5.2692c-.8736,1.1548,1.0793,2.2771,1.9428,1.1356Z"/><path class="cls-2" d="M240.2283,96.5087a3.0909,3.0909,0,0,0-3.1783,2.4819,3.0259,3.0259,0,0,0,5.4333,2.2078,3.2429,3.2429,0,0,0-.1548-3.8537,3.1178,3.1178,0,0,0-3.7766-.6733,2.7633,2.7633,0,0,0-1.1258,3.5117,2.5046,2.5046,0,1,0,4.5285-2.1325,2.5184,2.5184,0,0,0-3.7383-.4485c-1.4607,1.43.35,3.3824,1.9992,3.29a1.16,1.16,0,0,0,1.125-1.125,1.67,1.67,0,0,0-1.3148-1.7068,2.2928,2.2928,0,0,0-2.1632.9054l1.92.7955a3.6409,3.6409,0,0,1-.03-.9879c.0185-.105.0622-.1979.0866-.2951.0552-.2205.0156.09-.0835.0058.552.4707.1084,1.4127-.1249,2.037-.5075,1.3581,1.6665,1.9445,2.17.5981a4.6786,4.6786,0,0,0,.3327-3.0362,2.6515,2.6515,0,0,0-2.0272-1.8058c-2.0666-.3405-2.7473,1.8609-2.5737,3.4841a1.14,1.14,0,0,0,1.9205.7955,2.961,2.961,0,0,1,.2323-.2416q.2766-.212-.3074-.0817l-.2894-.4964.0015.03,1.125-1.125c-.1773.01-.2921.0371-.3587-.1809l-.1134.8669c.0721-.1574.2019-.1757.3563-.0343-.1939-.1775.03-.041-.1471.0461-.1219.06-.1928.1751-.347.1545.1149.0153-.0718-.0906-.1257-.2019a.6317.6317,0,0,1-.0233-.4528c.16-.363.7277-.3506,1.0168-.1587.6456.4285.2942,1.6489-.53,1.5062-1.095-.19-.705-1.5171.2848-1.4284,1.4417.1292,1.433-2.1216,0-2.25Z"/><path class="cls-2" d="M233.1089,105.4491a8.44,8.44,0,0,0,11.2647.0785c1.0917-.9554-.505-2.5414-1.591-1.591a6.1293,6.1293,0,0,1-8.0827-.0785c-1.0718-.9691-2.6678.6173-1.591,1.591Z"/><path class="cls-2" d="M228.6462,88.0744c2.0875-3.7754,8.8874-4.2166,12.6869-4.4788a1.1257,1.1257,0,0,0,0-2.25A26.1465,26.1465,0,0,0,231.2962,83.2c-1.7075.6963-6.1264,2.23-5.4495,4.8985.4711,1.8571,2.7944,1.9262,4.3168,1.6,4.3649-.935,8.7025-2.94,12.9224-4.3983,1.36-.47.7756-2.6445-.5981-2.17l-6.4024,2.2129-2.91,1.0059c-.4057.14-2.703,1.2278-3.176,1.0794-1.3862-.4348.5357-1.4342.9566-1.6338a22.45,22.45,0,0,1,3.24-1.2442,24.6342,24.6342,0,0,1,7.1371-.9548v-2.25c-4.8078.3318-12.0129.86-14.63,5.5932-.7012,1.2682,1.2412,2.4045,1.9428,1.1356Z"/><path class="cls-2" d="M197.4593,93.369c2.7488-1.545,7.3428-3.7667,10.6746-3.2455q2.06-.66,2.514,1.6265l-1.4616-.1074c-1.3709.4541-3.6152.033-5.1159.2217a31.4537,31.4537,0,0,0-14.6479,5.9117c-1.1612.8418-.04,2.7947,1.1356,1.9428a29.3093,29.3093,0,0,1,17.1635-5.8581c2.1755-.0076,6.3474,1.1085,6.7407-2.1945.94-7.8887-15.54-1.7007-18.1387-.24a1.1259,1.1259,0,0,0,1.1357,1.9429Z"/><path class="cls-2" d="M223.87,57.9274c.3681,5.085-4.6585,3.9265-6.6815,6.97-.48.7219-.3537,1.68-.6849,2.4186-1.1764,2.6246-2.5494,3.5374-4.8344,4.6258a5.0118,5.0118,0,0,0-2.8439,2.776c-.8745,1.956.4179,1.2426-.9727,3.4444-1.4245,2.2554-2.3147,1.4757-4.61,2.2857a4.7625,4.7625,0,0,0-3.2911,2.992c-.2763.7315-.1327,1.5354-.3477,2.2564-.91,3.0522-2.4183,2.6546-4.0108,4.0687-1.424,1.2644-1.3972,2.4516-2.5077,3.9517-1.7641,2.383-4.4059,3.8518-6.0885,6.462-1.3827,2.1449-3.1877,4.9016-3.5558,7.4723-.5015,3.5028,1.8739,5.7655-1.1866,8.8126-1.2894,1.2837-2.9824,2.4807-3.4388,4.3686a11.8053,11.8053,0,0,0,.0389,2.2777c-.167,2.5217-1.0579,3.3947-2.6889,5.0289a5.6585,5.6585,0,0,0-1.8319,5.1709c.2576,2.3026.8792,2.8283.518,5.2993-.2732,1.8695-1.2338,3.1737-1.523,4.9409-.5226,3.193,1.0356,5.3707-.7373,8.6647-1.1188,2.0785-1.9821,3.4594-1.5377,5.9686.29,1.6395,1.2159,3.0274,1.6561,4.6088.7594,2.7278-.3391,4.2352-.7761,6.5178a7.3992,7.3992,0,0,0,.2436,2.6719c.5558,4.9478.4492,4.3623-2.3071,6.59-2.1487,1.737-3.562,5.0851-5.7383,6.3735-1.7983,1.0646-3.11.4749-3.8635,2.7352-.4591,1.3768,1.7131,1.9673,2.17.5982.4348-1.304,3.8358-1.4425,4.9415-2.4631.698-.6442,1.1551-2.1442,1.6515-2.9231,1.1138-1.7478,2.5178-2.6109,4.0179-3.9527a6.1331,6.1331,0,0,0,2.4462-3.7817c.1211-1.1333-.41-1.5853-.5988-2.7349-.3819-2.33.0778-3.7611.5047-5.8563.5124-2.5158-.7369-4.6024-1.5349-6.9172-1.6417-4.7626,2.1549-6.1768,2.7578-10.1933a9.3581,9.3581,0,0,0-.1891-2.2533,23.46,23.46,0,0,1,.6528-6.45,10.1519,10.1519,0,0,0,.5848-3.2088c-.1382-2.8456-2.3339-4.6062.0842-7.8149,1.2421-1.6481,3.2614-2.1323,3.6079-4.4442.2148-1.4328-.1162-2.3358.3561-3.9171.6873-2.3011,1.7979-2.6976,3.2488-4.4191a5.8751,5.8751,0,0,0,1.7291-3.95c-.0139-2.4947-1.3176-3.8964-.4671-6.6178a22.6172,22.6172,0,0,1,2.7082-5.067c1.7481-2.7065,4.8129-3.7613,6.5112-6.1988.5432-.78.3007-1.7968.73-2.4243.9788-1.4316,2.7181-1.2654,3.9335-2.23,1.5483-1.2294,1.0827-2.5167,1.6989-4.1395,1.1323-2.9816,2.5407-3.6769,5.1818-4.3116a6.9666,6.9666,0,0,0,2.6846-.9272c2.6537-2.0126.4369-5.14,3.6252-7.3476,1.9826-1.3725,3.7807-1.0083,4.8978-3.53.4576-1.0333.1652-2.55.68-3.5005.9558-1.7667,2.7135-1.39,4.1809-2.2716a6.673,6.673,0,0,0,3.0572-6.5052c-.1039-1.4358-2.3548-1.4472-2.25,0Z"/><path class="cls-2" d="M250.6127,153.7934c2.1193,2.4658-1.2469,7.4339,1.3083,9.655,1.6565,1.44,3.8262.2979,5.0391-1.097,1.1827-1.36,1.3692-2.7654,2.9486-3.8,1.0716-.7016,2.3091-.7541,3.2521-1.5917,1.9315-1.7156.73-3.8329,1.0838-6.0031.6139-3.7647,3.9175-2.2153,5.89-4.4734,1.2262-1.4036,1.1078-3.5.6831-5.1817-.7108-2.8143-2.21-4.52-1.32-7.7107.379-1.359,1.1585-2.23,1.1814-3.7141.0564-3.6522-3.158-6.8832-1.7288-10.53l-2.21-.2991c-.124,9.1942,14.344,2.96,9.54-4.2048a10.2078,10.2078,0,0,0-1.5326-1.5371,6.6971,6.6971,0,0,1-.379-6.313,21.7989,21.7989,0,0,0,.4334-3.02c-.0854-2.2991-1.3062-4.3284-2.5162-6.1977-2.2458-3.4693-3.9808-5.8935-4.2274-10.251-.1531-2.7058.2541-5.6386-.9373-8.1848-1.3856-2.9613-5.1584-3.5844-6.5041-6.4814-1.0167-2.1887-.4367-4.8634-2.1279-6.8192-1.3716-1.5862-2.8857-1.2234-4.7044-1.7695-5.5722-1.6731-3.9758-3.0823-6.8539-6.7865-2.1155-2.7226-4.8128-1.6557-5.6938-5.9828-.3537-1.7372.4034-2.9858-.7479-4.5676-1.1128-1.5288-2.9957-2.0394-4.7512-2.406-4.397-.9181-8.0758-1.3749-11.7744-4.2841-1.1257-.8855-2.7287.696-1.591,1.591,3.8129,2.9991,7.5,3.9545,12.182,4.757,1.7151.294,2.2514.4133,3.4348,1.9134,1.5283,1.9374.9121,1.4545.8574,3.9838-.0293,1.3541-.1047,2.4289.8111,3.5061,1.33,1.5643,3.5017.9886,5.059,2.3021,1.4691,1.2391,1.8756,3.7317,2.9352,5.2908,2.6059,3.8345,8.226,2.1068,10.0492,6.3461.6631,1.5417.4231,3.3291,1.3025,4.8548,1.18,2.0475,3.5167,2.8962,5.0009,4.6668,3.1573,3.7664,1.0116,9.4159,2.89,13.9058.9342,2.2326,2.5677,4.0377,3.7986,6.0929,2.16,3.6059,1.28,6.0424.5847,9.89a5.5877,5.5877,0,0,0,.3069,3.6723c.54,1.1116.9338.8768,1.5714,1.8821l.82.74q2.4965,6.5592-4.9858,3.4109c.0182-1.3488-1.77-1.4208-2.21-.299-.8619,2.1994-.4554,3.9794.2689,6.1684a20.3412,20.3412,0,0,1,1.2125,3.5235c.565,4.5073-1.078,2.902-1.5345,5.7541-.52,3.2478,1.7067,4.7867,1.9207,7.7053.355,4.8421-3.6487,3.0194-5.5533,5.0053-1.0831,1.1293-1.115,2.5573-1.1,4.0517.02,2.0919.7759,2.86-1.508,4.7228-.6448.526-1.8642.4616-2.6587,1.12-.735.6093-.9744,1.988-1.64,2.4909l-2.6695.7208a4.6175,4.6175,0,0,0,.5648-1.7871c-.2542-2.6186.0258-3.8051-1.88-6.0223-.9454-1.1-2.5307.4976-1.591,1.591Z"/><path class="cls-2" d="M224.4644,40.63c-2.1215-3.3905-4.3615-5.7566-8.4563-5.1118-2.1986.3461-.526,1.9184-4.24,1.3577-1.1813-.1783-2.5664-1.4358-3.55-2.0916-1.6662-1.1105-3.4633-2.4563-5.56-2.54-1.6654-.0666-2.6078.7222-4.1041,1.2143-4.7268,1.5546-5.6513-.6608-9.5123-2.0381a6.3887,6.3887,0,0,0-4.2788-.28,8.3294,8.3294,0,0,0-2.3132,1.3448c-2.6558,1.8151-3.5494,2.7165-7.02,2.116-2.7738-.48-5.8794-1.6287-7.8327,1.2709-.5657.84-.3278,1.9138-.7569,2.7266-1.6416,3.109-3.223,2.5468-5.9812,2.6525-1.9608.0752-4.1915.0237-5.8159,1.35-.9823.802-.9383,1.8-1.6151,2.6315-3.5384,4.346-4.8507,2.1815-8.9366,3.1742a7.0181,7.0181,0,0,0-4.1441,2.4416c-1.6779,2.345.2323,5.2969-2.1584,7.0444-2.6145,1.9111-6.7647,1.108-8.8807,3.9876a6.3923,6.3923,0,0,0-.8763,2.2124l.1117,1.73q-.6151,3.0722-3.17,3.1818c-1.5617.54-3.1306.3618-4.6644,1.1531-4.5743,2.36-3.2674,7.65-6.6253,10.4932-1.5546,1.316-3.1317,1.9551-4.3826,3.6847-1.433,1.9815-1.5158,3.6752-2.2154,5.8963-1.5025,4.77-2.932,3.0563-5.8111,5.3642a5.3834,5.3834,0,0,0-2.0307,3.8852c-.1905,1.3992.3257,2.8109.1844,4.2016-.3388,3.3328-2.1875,4.4506-3.8627,6.9089a10.3072,10.3072,0,0,0-2.0359,4.29,5.3208,5.3208,0,0,0,.996,4.2681c1.1754,1.548,2.7415,1.2733,1.9407,4.211a11.0636,11.0636,0,0,1-1.7494,2.6238c-1.7205,2.5558-2.8922,5.0836-1.01,7.8908,2.2611,3.3729,5.4988,3.6027,4.4631,8.84-.3617,1.8295-1.505,3.5444-.7111,5.45.6045,1.4508.6738.6914,1.524,1.8572a4.4576,4.4576,0,0,0,1.1646.6937q1.9281,2.7989-.0311,4.8805c-.479,1.4072-1.5573,2.4663-1.3543,4.11a3.3171,3.3171,0,0,0,2.6374,3.0947,10.6618,10.6618,0,0,0,1.7916-.0385c4.5116.4271,5.2651,2.542,5.3,6.303.0346,3.7591,1.6518,8.0829,6.2142,6.8519l-1.3839-.7858c1.5,3.6647-5.3166,10.2449-.6144,13.5249,1.7113,1.1937,4.1975-.7228,4.46,2.1875.1431,1.5875-1.5346,3.3553-1.3614,5.2218a4.44,4.44,0,0,0,1.8614,3.5579c1.4247.86,3.7453-.4594,4.72.8121.8583,1.12.025,2.6684,1.41,3.9693a5.2468,5.2468,0,0,0,4.0681,1.2525,6.0362,6.0362,0,0,0,3.8858-2.2726c1.8874-2.2156,1.7859-7.7512,5.5231-6.19,2.9443,1.23,5.3869,4.8569,8.7337,2.1393,1.3932-1.1313,1.3249-3.2126,2.5109-4.35,2.5218-2.4185,5.8314,1.145,8.73.3258,3.7982-1.0735,4.7618-5.8608,5.2066-9.1732.1921-1.43-2.06-1.4162-2.25,0-.4335,3.2286-1.1617,7.2919-5.496,6.8738-1.51-.1456-2.74-1.4606-4.3533-1.408a4.3881,4.3881,0,0,0-3.78,2.246c-1.3363,1.9545-.89,4.8573-4.813,3.6747-1.1982-.3613-2.2788-1.6412-3.3531-2.2713-1.1992-.7032-2.5891-1.3776-4.0074-.9292-1.7141.542-2.0379,1.9181-2.6711,3.3312a12.5648,12.5648,0,0,1-1.1495,3.5012q-6.3434,2.1974-6.0182-1.8987c-.3429-.4465-.3469-1.24-.9159-1.6591-1.7355-1.2795-4.198,1.1732-5.5274-1.1136-1.0025-1.7243,1.3438-4.6847,1.6451-6.3552a6.9737,6.9737,0,0,0-.0984-3.1855,1.128,1.128,0,0,0-1.0848-.8259c.7539-.0529-4.0287.2588-3.0339.6617-4.1134-1.6657-.9148-5.1392-.1471-7.17a5.9675,5.9675,0,0,0,.0908-5.0755,1.1546,1.1546,0,0,0-1.3838-.7857c-4.3848,1.183-2.9723-7.5423-3.3953-9.3285a6.043,6.043,0,0,0-2.1087-3.6008c-1.1027-.7891-1.9724-.5341-3.1467-.7969-1.2243-.2739-4.0644,2.139-4.3331-1.4322-.0753-1,2.0082-3.3779,2.364-4.4272,1.0107-2.9813-.5439-3.5162-2.2041-5.3894-3.4153-3.8534,1.4233-7.6658-1.3252-11.8026-.8672-1.3053-2.282-1.9968-3.2714-3.1615-2.5837-3.0416-1.068-5.0727.61-7.5757,1.3706-2.0441,2.5605-4.1993,1.0527-6.4937-.378-.575-1.1415-.9026-1.4853-1.4515-2.5683-4.1018.4227-5.8951,2.2772-8.4765a11.8547,11.8547,0,0,0,2.3919-4.449c.7717-3.6115-1.612-5.7531,2.8486-8.7846,1.3885-.9436,3.0215-.8665,4.0757-2.4631.9957-1.5079.65-3.26,1.05-4.9422.8846-3.72,3.4548-5.15,6.37-7.0542a5.16,5.16,0,0,0,2.2048-2.0858,10.6411,10.6411,0,0,0,.3-1.63q-.6031-4.0827,3.8138-6.6151a13.4329,13.4329,0,0,1,1.651-.3412c2.4594-.767,5.3929-.3984,6.4156-3.3413.7024-2.021-.2891-4.4043,1.843-5.8856,1.5967-1.1093,4.0021-1.1443,5.7905-1.9225,1.6649-.7244,3.1071-1.6554,3.5142-3.53.15-.69-.2937-1.6169-.09-2.1876.7618-2.1351,4.5354-3.7877,6.3752-4.117,1.9138-.3425,4.2079.463,5.9469-.8344,1.5167-1.1315.5816-1.2831,1.4753-2.7452,2.3218-3.7979,2.93-3.215,6.6377-3.3473a9.9143,9.9143,0,0,0,4.3338-.8131c1.7231-.9295,1.5307-2.0745,2.52-3.5259l.21-1.2743,4.2263-1.5644c1.4127-.0923,2.9675,1.0691,4.4775,1.0266a7.1554,7.1554,0,0,0,4.1442-1.59c.9648-.6534,1.6485-1.7492,2.7326-2.2406,2.2329-1.0121,3.7486.142,5.5922,1.0792,1.6122.82,3.1992,1.923,5.0771,2.0112,2.8216.1327,5.0756-2.49,7.9239-1.9965,2.3913.4147,4.4034,2.9121,6.5571,3.8974a6.1062,6.1062,0,0,0,3.7358.6663c.4176-.0808.8264-.3665,1.2393-.43,3.996-.6137,5.3951-.5351,7.5975,2.9846.7663,1.2248,2.7138.0967,1.9428-1.1356Z"/><path class="cls-2" d="M141.4011,197.75c-6.1368,1.74-15.7617,3.8443-16.7412,11.4081-.1854,1.4318,2.0664,1.4182,2.25,0,.776-5.9923,10.3013-7.8806,15.0893-9.2385a1.1259,1.1259,0,0,0-.5981-2.17Z"/><path class="cls-2" d="M159.3754,192.2086c5.6463,9.602,12.7891,17.7971,24.0864,20.25,1.4116.3065,2.0148-1.862.5982-2.17-10.7468-2.3334-17.3849-10.1062-22.7418-19.2161a1.1258,1.1258,0,0,0-1.9428,1.1356Z"/><path class="cls-2" d="M183.53,191.5846c3.21,3.8566,6.5079,7.6029,11.1694,9.6958,5.4427,2.4437,10.8558,3.4257,15.6648,7.2344,1.1234.89,2.726-.6921,1.5909-1.591a36.1035,36.1035,0,0,0-11.5169-6.0039c-6.7141-2.2118-10.8612-5.5721-15.3172-10.9263-.9272-1.114-2.5114.4851-1.591,1.591Z"/><path class="cls-2" d="M228.3315,190.3868A22.4569,22.4569,0,0,0,216.27,203.3592c-.4992,1.3615,1.6745,1.9487,2.17.5982A20.2822,20.2822,0,0,1,229.4671,192.33c1.3223-.5823.1786-2.5215-1.1356-1.9428Z"/><path class="cls-2" d="M217.8561,6.9116c.2826,5.5476-.45,10.4813,1.6475,15.754a44.7134,44.7134,0,0,1,3.6327,18.08,1.1257,1.1257,0,0,0,2.25,0,42.2381,42.2381,0,0,0-2.4294-15.5745c-.954-2.6009-2.2217-4.9834-2.647-7.7466-.5333-3.4643-.0258-7.0193-.2038-10.513-.0734-1.4409-2.3238-1.45-2.25,0Z"/><path class="cls-2" d="M214.06,7.3826c3.0635,4.0251.86,9.6227,1.5246,14.2991.7224,5.0821,2.628,9.7626,2.4767,14.9737a1.1257,1.1257,0,0,0,2.25,0c.1706-5.874-2.3609-11.1894-2.7-16.9813-.28-4.7885,1.5346-9.2967-1.609-13.4271-.8655-1.1372-2.82-.0175-1.9428,1.1356Z"/><path class="cls-2" d="M199.5242,14.7213a21.6945,21.6945,0,0,0,2.7446,9.3951,14.5039,14.5039,0,0,0,2.16,3.696,4.214,4.214,0,0,0,.8765.6978,1.9855,1.9855,0,0,0,.8939.2176q2.2883.0644.6251,3.4761c-1.3508.49-.7677,2.6649.5981,2.17,2.6311-.9539,4.3449-3.8466,2.2583-6.3413-1.3257-1.585-3.2752-1.6565-4.5706-3.3923a18.7229,18.7229,0,0,1-3.3355-9.9187c-.05-1.4438-2.3006-1.4506-2.25,0Z"/><path class="cls-2" d="M194.4231,24.6113a6.16,6.16,0,0,0-6.48,2.1672c-1.2389,1.6689-1.4053,3.8723.3364,5.2338,2.3087,1.8047,5.24.5915,7.7041.1009,3.1584-.6291,4.5476,2.7491,7.689,2.22,1.4247-.24.8205-2.4086-.5982-2.17-2.0128.3391-3.758-2.6361-6.064-2.5536-1.4485.0519-2.7516.8313-4.1929,1.0016a5.7633,5.7633,0,0,1-2.1817.0015l-.6188-2.8275c.5049-1.19,2.8359-1.225,3.8079-1.0046,1.41.32,2.012-1.849.5982-2.17Z"/><path class="cls-2" d="M204.8922,16.9321c3.4527-1.9181,7.9687.6577,11.761-.0284l-.5981-2.17a29.3477,29.3477,0,0,1-11.8721.2167l-.2991,2.21,1.6263.16-.299-2.21a4.0284,4.0284,0,0,0-2.8113,1.841c-.5358.733.1994,1.6581.9714,1.6929A38.7482,38.7482,0,0,0,215.57,17.2556a1.126,1.126,0,0,0-.5981-2.17,36.7775,36.7775,0,0,1-11.6007,1.3085l.9714,1.6928,1.4666-.8071c1.3412-.229.866-2.0954-.2991-2.21l-1.6263-.16c-1.2528-.123-1.5448,1.9787-.299,2.21a32.27,32.27,0,0,0,13.0683-.2168c1.4266-.3163.8093-2.4242-.5981-2.17-4.2069.7611-8.2658-1.9851-12.2985.2552-1.266.7033-.1326,2.6473,1.1356,1.9428Z"/><path class="cls-2" d="M189.1116,14.9314a16.6761,16.6761,0,0,0-11.0037.1983,27.834,27.834,0,0,1-6.2552,1.0351,3.0774,3.0774,0,0,0-2.4745,1.1618,1.1411,1.1411,0,0,0,.4964,1.88,13.4517,13.4517,0,0,0,8.1981.2013c3.65-1.1272,6.4308-2.5229,10.3724-1.9939,1.43.1919,1.4163-2.06,0-2.25-6.4023-.8592-11.6862,3.8549-17.9723,1.873l.4964,1.88c.7411-.8838,2.7362-.4137,3.698-.5165a16.4144,16.4144,0,0,0,3.4661-.8933,16.171,16.171,0,0,1,10.38-.4067,1.126,1.126,0,0,0,.5981-2.17Z"/><path class="cls-2" d="M189.6879,9.2436c-2.07-3.0735-5.9617-3.2172-9.3724-3.4-3.7341-.2-9.0737.12-11.5123,3.5228-1.2722,1.775-.6243,3.24,1.4051,3.7127,2.3716.5526,5.12-.71,7.3857-1.17a35.2284,35.2284,0,0,1,10.8991-.3992c1.4379.1543,1.427-2.0969,0-2.25a37.4123,37.4123,0,0,0-8.4221-.0206c-2.0857.2461-5.1789,1.7293-7.1447,1.424q-2.191.9864-.8387-1.1377l1.9018-.87a15.7851,15.7851,0,0,1,4.8943-.6249c2.5421-.0079,7.2259-.0791,8.8614,2.3489.8048,1.1947,2.7548.07,1.9428-1.1356Z"/><path class="cls-2" d="M213.3157,5.5993a12.8737,12.8737,0,0,0-7.5129.608c-1.5033.6142-4.7414,2.0852-4.2278,4.2093.4234,1.7514,2.5707,1.629,3.9305,1.3161a44.5765,44.5765,0,0,0,9.8435-3.78c1.294-.65.1561-2.592-1.1356-1.9429-2.8617,1.4384-6.4882,3.3528-9.7381,3.6667-1.1858.1145.1239-.3018.78-.6975a9.9046,9.9046,0,0,1,2.1234-.965,10.5859,10.5859,0,0,1,5.3388-.245c1.414.2822,2.0192-1.8861.5981-2.17Z"/><path class="cls-2" d="M167.2014,8.8207a67.0424,67.0424,0,0,0-3.6755,14.6208,62.31,62.31,0,0,0-.5384,7.8172c-.0127,3.2015.7282,6.6983-.6257,9.7427-.5832,1.3115,1.355,2.4575,1.9428,1.1356,1.8876-4.2446.794-8.9666,1.0072-13.4906A63.993,63.993,0,0,1,169.371,9.4189c.5027-1.36-1.6711-1.947-2.17-.5982Z"/><path class="cls-2" d="M127.83,7.5692a39.2865,39.2865,0,0,0-8.7406,20.2445c-.7157,5.5429-.7731,11.1138-3.0109,16.3254-2.1363,4.9753-5.5582,9.2052-8.9489,13.3756-.7669.9433.1854,2.4466,1.3633,1.7669a28.3291,28.3291,0,0,0,9.6927-9.1218l-2.0964-.5678c.0274,7.316-3.1046,13.6473-6.4391,19.9828a1.134,1.134,0,0,0,1.5392,1.5393,41.17,41.17,0,0,0,7.5755-5.65l-1.88-1.0945A78.72,78.72,0,0,1,111.54,78.735a1.1355,1.1355,0,0,0,1.5392,1.5392,12.1532,12.1532,0,0,0,5.5579-4.7141c.81-1.2052-1.1385-2.3326-1.9428-1.1356a10.23,10.23,0,0,1-4.7507,3.9069l1.5392,1.5392a81.7336,81.7336,0,0,0,5.571-14.9033,1.134,1.134,0,0,0-1.88-1.0946,38.987,38.987,0,0,1-7.12,5.2986l1.5392,1.5392c3.5232-6.694,6.7753-13.3923,6.7463-21.1185a1.1346,1.1346,0,0,0-2.0964-.5678,25.9771,25.9771,0,0,1-8.8855,8.3146l1.3633,1.7669c5.3585-6.5907,10.28-13.1983,11.5834-21.8091,1.59-10.4988,2.1057-19.5515,9.117-28.1364.9086-1.1125-.6742-2.7136-1.591-1.591Z"/><path class="cls-2" d="M111.0838,76.0305l-25.0254,30.378c-6.8679,8.3368-12.4786,15.8226-15.6938,26.279-3.4477,11.2123-3.6157,21.7833-2.9271,33.3883l2.27,38.261c.0854,1.439,2.336,1.4488,2.25,0l-2.0433-34.4349c-.71-11.9665-1.2866-23.1817,2.094-34.86,1.5828-5.4676,3.4268-10.8844,6.6166-15.6415,3.2344-4.8235,7.212-9.2017,10.9011-13.68l23.1484-28.1c.9139-1.1093-.6692-2.71-1.5909-1.591Z"/><path class="cls-2" d="M69.53,202.84v9.2947a1.1257,1.1257,0,0,0,2.25,0V202.84a1.1257,1.1257,0,0,0-2.25,0Z"/><path class="cls-2" d="M90.9626,8.7848c-.2494,2.5054-.3044,5.1341-.7575,7.61-.884,4.8289-2.1082,6.9589-7.2175,6.8833-3.4639-.0512-6.7658-.9439-10.2584-.51-4.8106.5978-9.3339,2.64-14.2073,1.0623-6.4249-2.08-9.6608-8.1522-9.1742-14.6242.1085-1.4442-2.142-1.4373-2.25,0C46.67,14.8926,48.753,20.412,53.5053,23.7938c5.2393,3.7284,10.5366,2.9111,16.4218,1.78,4.2926-.8249,7.9392-.3518,12.2432-.1044,2.3733.1365,5.051.0443,7.1126-1.3159,4.4529-2.9379,3.4838-10.89,3.93-15.369.1434-1.44-2.1076-1.43-2.25,0Z"/><path class="cls-2" d="M84.88,25.5643c1.6209,4.4206-.3239,10.13,2.7226,14.1137a6.5077,6.5077,0,0,0,2.4235,1.971c2.0431,1.0332,3.4594.1784,4.4694,3.4171a10.52,10.52,0,0,1-.1168,3.6612c-.8084,5.367-3.9239,6.6621-8.55,8.2632a48.8327,48.8327,0,0,1-10.518,2.3887A50.461,50.461,0,0,1,55.336,57.4818a1.1259,1.1259,0,0,0-.5981,2.17,52.2508,52.2508,0,0,0,22.5677,1.722c5.1849-.7673,14.6528-2.3065,18.0348-6.9458,1.8787-2.5771,2.4982-9.5286.8255-12.1648-1.7755-2.7981-5.69-2.2808-7.57-5.5328-1.81-3.1323-.24-8.2008-1.5464-11.7639-.4944-1.3483-2.67-.7657-2.17.5982Z"/><path class="cls-2" d="M34.3927,8.21c-7.0942,8.3641-.0027,19.0723,7.0549,24.7568.7723.6221,2.3178.076,1.88-1.0945-1.6031-4.2895-4.2482-8.83-3.4139-13.4092q-.59-3.9368,3.3113-2.7122a10.2755,10.2755,0,0,1,.4936,3.612,11.4924,11.4924,0,0,1-3.2422,7.51c-.9716,1.07.615,2.6657,1.591,1.591,2.5035-2.7568,7.5642-15.1884.4167-15.7586-2.823-.2252-4.97,2.5633-5.436,5.0645-.8783,4.7134,2.5129,10.4272,4.11,14.7l1.88-1.0945C37.14,26.6251,29.7352,17.168,35.9837,9.801c.9314-1.0981-.6527-2.6973-1.591-1.591Z"/><path class="cls-2" d="M37.8086,30.1481a8.3321,8.3321,0,0,0-3.2307,7.0937,11.7277,11.7277,0,0,0,.7466,2.89c1.0345,3.1781.6383-1.6362.92,3.6162.17,3.1736.1476,1.9121-1.2964,3.6343-2.0615,2.4585-4.18,3.63-4.3963,7.1755-.2687,4.4006,3.9012,7.0439,3.1062,11.5772-.5685,3.2415-2.1873,5.8377-.7378,9.1313,1.1334,2.5754,3.5469,4.2758,5.7781,5.8359,8.9266,6.2417,14.1043,15.3324,10.8466,26.4208-.301,1.0243,1.1467,1.9849,1.88,1.0946,4.997-6.0652,9.6215-13.537,10.7866-21.4584a14.2237,14.2237,0,0,0-1.3958-9.3347c-2.6224-4.51-7.106-6.0965-6.7537-12.23.2-3.4793,1.6-6.8847.7566-10.3838-.85-3.5283-3.7221-5.5682-5.5067-8.568-3.0054-5.0515,1.178-10.8793,2.14-15.9708a28.6759,28.6759,0,0,0-.7285-12.97,1.126,1.126,0,0,0-2.17.5981A27.1639,27.1639,0,0,1,47.84,35.0916c-.9632,2.7505-2.2081,5.4989-1.9262,8.4871.2493,2.6414,1.646,4.53,3.2112,6.5389,1.9173,2.4608,3.6664,4.31,3.734,7.6356.0451,2.2232-.6667,4.441-.9474,6.6326-.9516,7.4294,3.6762,8.8749,6.9612,14.5741,5,8.6743-3.6859,21.5692-9.039,28.0665l1.88,1.0945a24.8828,24.8828,0,0,0-2.19-19.47,23.7511,23.7511,0,0,0-6.3727-7.2152c-3.9751-2.9995-9.5036-5.1944-8.3618-11.25.5609-2.9743,2.2355-5.6266,1.0527-8.6838-.4639-1.1989-1.5-1.9755-2.1047-3.0761-1.9634-3.575-.3059-6.5688,2.3051-9.03,1.6034-1.5112,3.8163-3.0123,3.7887-5.484-.0137-1.2234-.5731-1.8152-1.1078-2.858-1.7527-3.4183-2.8488-6.4233.6758-9.3154,1.12-.9191-.48-2.5028-1.591-1.591Z"/><path class="cls-2" d="M94.6417,9.3146c3.1571,3.7894,2.0331,11.5811-.441,15.1439-2.1152,3.0461-5.0631,5.7288-7.565,8.457-.9772,1.0655.61,2.6609,1.591,1.5909,3.7965-4.14,9.1862-8.3552,10.1792-14.1732.7082-4.15.6219-9.2546-2.1732-12.6095-.9278-1.1137-2.512.4855-1.591,1.5909Z"/><path class="cls-2" d="M66.1874,14.4137c3.75-2.19,6.9481-3.6217,11.2974-1.8524,1.7477.7109,3.0926,1.3066,5.0225,1.0964l-.7955-1.9205c-3.9709,3.348-12.7969,1.4553-17.4382.7854-1.4164-.2044-2.028,1.9632-.5982,2.17,5.7809.8344,14.7036,2.7874,19.6274-1.364a1.1351,1.1351,0,0,0-.7955-1.9205c-3.11.3388-5.7088-2.13-8.8731-2.1048-3.1224.0249-5.9618,1.6372-8.5824,3.168a1.1258,1.1258,0,0,0,1.1356,1.9428Z"/><path class="cls-2" d="M64.3424,14.3019a21.9976,21.9976,0,0,0,4.5851-.115c1.7641-.2476,3.4975-1.0638,5.26-1.099,2.4571-.0491,4.2821,1.8642,6.6709.3375,1.2165-.7775.0893-2.7257-1.1356-1.9428-1.5393.9837-3.3753-.6656-4.8823-.8039a5.7447,5.7447,0,0,0-1.8723.1766c-2.9562.6867-5.5341,1.4069-8.6262,1.1966-1.4453-.0983-1.4392,2.1521,0,2.25Z"/><path class="cls-2" d="M57.02,48.7571A72.4469,72.4469,0,0,0,71.1138,57.52c1.3026.6136,2.446-1.3255,1.1356-1.9428A70.0645,70.0645,0,0,1,58.611,47.1661c-1.1242-.8884-2.7269.6933-1.591,1.591Z"/><path class="cls-2" d="M85.543,43.3325q-3.9392,5.1795-8.1016,10.1808c-.9192,1.1059.6641,2.7061,1.591,1.591q4.3436-5.2254,8.4534-10.6361c.8764-1.1524-1.0767-2.2745-1.9428-1.1357Z"/><path class="cls-2" d="M95.2925,43.9907a72.512,72.512,0,0,0,19.6332,4.6068c1.4409.135,1.4317-2.1158,0-2.25a70.4123,70.4123,0,0,1-19.035-4.5265c-1.3506-.5244-1.9357,1.65-.5982,2.17Z"/><path class="cls-2" d="M35.7744,41.6469A51.8787,51.8787,0,0,1,17.8082,54.35c-4.1789,1.7843-7.6874,3.2808-9.192,7.8855-4.0435,12.3749-1.2151,26.5555,4.2167,37.9954,5.6535,11.9068,12.8527,24.6508,21.8861,34.3224,8.7414,9.359,20.5649,18.7723,32.7092,23.0884,1.3669.4858,1.9552-1.6873.5982-2.17-11.6131-4.1273-22.6355-13.0636-31.1109-21.8808-8.52-8.8635-14.9392-20.5013-20.5785-31.3629C10.3029,90.6069,6.68,76.4355,10.5825,63.4794c1.8529-6.1517,9.6734-7.3715,14.6617-10.3161a53.5815,53.5815,0,0,0,12.1212-9.9254c.9808-1.0628-.6065-2.6579-1.591-1.591Z"/><path class="cls-2" d="M74.0682,123.9534c-6.1395-6.1549-12.0414-11.708-15.9726-19.5659-.6479-1.2951-2.5894-.1569-1.9428,1.1357,4.04,8.0753,10.0057,13.6867,16.3244,20.0212a1.1257,1.1257,0,0,0,1.591-1.591Z"/><path class="cls-2" d="M16.807,112.3205c2.8823,14.1377,6.3874,27.5425,6.8241,42.1026a158.6078,158.6078,0,0,1-4.8344,43.5074,1.126,1.126,0,0,0,2.17.5982,160.8311,160.8311,0,0,0,4.9148-44.1056,160.6509,160.6509,0,0,0-1.9353-20.4652c-1.2023-7.5391-3.449-14.7792-4.9691-22.2356-.2891-1.4177-2.4583-.8177-2.17.5982Z"/><path class="cls-2" d="M23.2488,207.7743c-4.3547-12.686,2.9865-24.9071,13.6214-31.6841a40.9654,40.9654,0,0,1,16.039-6.3093c6.3989-.8967,11.0129,2.2883,17.0477,2.9554,1.4371.1589,1.4258-2.0924,0-2.25-3.7334-.4127-6.95-2.4913-10.6687-3.0277a26.2818,26.2818,0,0,0-10.0905.7341,46.37,46.37,0,0,0-17.2667,8.6721c-9.4393,7.5322-14.9256,19.64-10.8518,31.5076.4674,1.3616,2.6416.7767,2.17-.5981Z"/><path class="cls-2" d="M215.2085,144.9426c8.8752.7688,15.3159-6.2551,22.9829-9.471,1.689-.7084,2.6465-1.6765,3.7813-.0426,1.1461,1.65-.2141,1.9418-1.7191,2.8259a34.0172,34.0172,0,0,1-7.1529,2.86,60.9924,60.9924,0,0,1-17.0322,2.6222,1.13,1.13,0,0,0-.2991,2.21c8.4155,1.99,19.9168,5.0529,28.2247,1.1327,5.2265-2.4662,4.0415-9.6489-2.0474-9.2364-1.437.0973-1.4478,2.3481,0,2.25q4.3587,5.1889-.8778,5.5908a30.7777,30.7777,0,0,1-5.0967.6821,40.6778,40.6778,0,0,1-5.4468-.0717,91.3287,91.3287,0,0,1-14.1579-2.5171l-.299,2.21a61.0685,61.0685,0,0,0,21.9976-4.2407c2.4908-1.0164,9.289-4.0433,8.4744-7.8606-.867-4.0621-7.1833-1.3752-9.2321-.5168-7.3319,3.0719-13.6312,10.0569-22.1,9.3233-1.4423-.125-1.4339,2.1258,0,2.25Z"/><g class="cls-3"><path class="cls-2" d="M608.596,57.9038c16.5718-.659,33.2224-1.3219,49.7551.3908,14.57,1.5094,29.7068,6.9047,44.1661,2.0624,1.8214-.61,1.04-3.5084-.7975-2.8928-14.6578,4.9087-30.47-.987-45.3081-2.3594-15.9-1.4706-31.89-.8343-47.8156-.201-1.924.0765-1.9338,3.0769,0,3Z"/><path class="cls-2" d="M609.2739,102.4144q17.7227-1.0393,35.4455-2.0787c11.4393-.6585,23.7869-1.1925,33.1673,6.537,1.4789,1.2186,3.6131-.8922,2.1214-2.1213-8.5241-7.0239-19.2216-8.1074-29.9042-7.6991-13.6153.52-27.2281,1.5644-40.83,2.3621-1.9189.1126-1.9319,3.1133,0,3Z"/></g></svg>