<svg id="Layer_1" data-name="Layer 1" xmlns="http://www.w3.org/2000/svg" xmlns:xlink="http://www.w3.org/1999/xlink" width="180.6369" height="180.6369" viewBox="0 0 180.6369 180.6369"><defs><style>.cls-1{fill:none;}.cls-2{fill:#105dfb;}.cls-3{clip-path:url(#clip-path);}.cls-4{fill:#fff;}.cls-5{clip-path:url(#clip-path-2);}</style><clipPath id="clip-path"><circle class="cls-1" cx="90.3184" cy="90.3184" r="88"/></clipPath><clipPath id="clip-path-2"><circle class="cls-1" cx="290.9553" cy="90.3184" r="88"/></clipPath></defs><title>images</title><circle class="cls-2" cx="90.3184" cy="90.3184" r="88"/><g class="cls-3"><g id="g3170"><g id="path2396"><path class="cls-4" d="M138.62,213.9879H14.6174l.5367-1.9063c3.9853-14.165,10.8891-26.7422,19.6294-42.6655,4.0825-7.438,8.71-15.8682,13.4287-25.26,4.4009-8.7627,7.3813-23.7158,6.8867-34.3716-1.5186-1.3305-6.1231-5.435-7.8066-7.705-2.18-2.9458-7.4874-10.5406-9.691-17.4424a65.849,65.849,0,0,1-2.5161-22.6631c.5215-6.3853,2.3291-15.1675,5.8384-20.6675,3.9038-6.1157,11.7241-12.061,17.7427-15.2407,6.7051-3.5449,16.2178-5.6343,22.6709-6.1318,7.3691-.566,16.77.9956,22.5771,2.5,7.4634,1.9341,17.6114,5.79,23.71,10.8091,13.7114,11.9761,14.539,27.211,15.415,43.34q.0952,1.749.1963,3.5161c.9727,3.75,4.2427,8.2153,6.6372,11.4863l.0943.1279a12.818,12.818,0,0,0,1.6362,1.6543,11.29,11.29,0,0,1,2.7031,3.1192c.582,1.1636,1.4551,3.38.7432,5.0986-.7012,1.7031-2.6045,2.6152-4.1338,3.3486-.3867.1851-.7564.3609-1.0728.5381a6.6348,6.6348,0,0,1-1.6118.5694,5.5132,5.5132,0,0,0-1.001.3213,5.0893,5.0893,0,0,0,.47,2.455c.5322,1.58,1.1953,3.5454-.0147,5.1778a4.38,4.38,0,0,1-2.2583,1.3867c1.791,2.7095,1.3887,3.5288,1.1533,4.0078a1.7629,1.7629,0,0,1-1.2465.958,8.2278,8.2278,0,0,0-1.8228,3.6367c.3.7227,1.8081,4.4478,1.8384,6.4473.0215,1.6147-.1455,5.5947-2.1611,7.7183-1.3819,1.4477-3.5948,1.8251-5.5469,2.1577-.67.1142-1.3032.2221-1.8111.36a30.27,30.27,0,0,1-6.2314.6695,31.1988,31.1988,0,0,0-5.7163.5668,26.6641,26.6641,0,0,0-6.9263,2.7906c-.8389.53-3.0693,1.938-3.6382,3.2046-1.17,2.5908-.8076,6.3618-.457,10.0083a36.3485,36.3485,0,0,1,.2241,7.435,21.8025,21.8025,0,0,1-1.0761,4.1045c-.5879,1.7778-1.1963,3.6162-1.0274,4.9951.4077,3.3223,3.3941,7.563,4.9985,9.8409a31.509,31.509,0,0,0,4.0674,4.2788,37.9906,37.9906,0,0,1,3.9551,4.0756,72.7188,72.7188,0,0,1,5.06,7.9727c1.2954,2.2422,2.519,4.36,3.7446,6.1084,1.03,1.4688,3.76,4.78,3.7871,4.8135Zm-120.02-3H132.2932c-.7246-.9121-1.479-1.8843-1.9428-2.5459-1.3008-1.856-2.6148-4.13-3.8858-6.33a70.6391,70.6391,0,0,0-4.8291-7.63,35.3365,35.3365,0,0,0-3.6372-3.7285,33.4626,33.4626,0,0,1-4.47-4.7407c-2.61-3.7061-5.085-7.628-5.5239-11.2041-.251-2.0474.4648-4.21,1.1567-6.3028a19.4844,19.4844,0,0,0,.9453-3.5161,33.8457,33.8457,0,0,0-.2314-6.7939c-.3877-4.0371-.7891-8.2119.708-11.5269.8262-1.84,2.8764-3.313,4.7724-4.51a29.5993,29.5993,0,0,1,7.8023-3.1646,33.1553,33.1553,0,0,1,6.3164-.6533,28.41,28.41,0,0,0,5.5713-.5674c.6465-.1758,1.3486-.2954,2.0918-.4219,1.4931-.2544,3.1855-.5429,3.8784-1.269.959-1.0107,1.3618-3.5449,1.334-5.6074a22.0555,22.0555,0,0,0-1.6319-5.3941c-.832-1.9287,1.1553-5.0581,1.5621-5.666a6.9367,6.9367,0,0,1,1.206-1.4331,22.8217,22.8217,0,0,0-1.8618-2.7212l-1.7544-2.2231,2.8272-.2022a6.287,6.287,0,0,0,2.6044-.6562c.2505-.3423-.1347-1.4844-.4438-2.4019-.5259-1.5586-1.1211-3.3247-.2134-4.9453a4.0944,4.0944,0,0,1,2.8364-1.6943,5.1173,5.1173,0,0,0,.8965-.2823c.3677-.206.7945-.4116,1.2422-.6264,1.01-.4844,2.3941-1.1475,2.6577-1.7881a4.3717,4.3717,0,0,0-.6557-2.6172,9.381,9.381,0,0,0-2.0327-2.2334,15.0175,15.0175,0,0,1-2.04-2.1011l-.0962-.1308c-2.57-3.51-6.09-8.3179-7.1626-12.67l-.041-.271q-.1084-1.8443-.2046-3.6709c-.8774-16.1509-1.6352-30.1-14.36-41.2144-5.6879-4.6807-15.37-8.3393-22.5229-10.1929-5.584-1.4477-14.5952-2.9506-21.5947-2.4135-7.2666.5605-16.1075,2.9424-21.4986,5.7929-5.4863,2.8985-13.0258,8.5791-16.6157,14.2022-3.2139,5.0371-4.8848,13.2715-5.3769,19.2973A62.4737,62.4737,0,0,0,40.46,83.7252c1.4336,4.4917,4.8892,10.686,9.2432,16.5683,1.7876,2.4107,7.7793,7.5894,7.84,7.6416l.479.4136.0381.6318c.6719,11.14-2.476,27.1827-7.167,36.5225C46.15,154.9439,41.5086,163.4,37.4133,170.86,29.1643,185.8878,22.5686,197.9044,18.5994,210.9879Zm124.914-86.9644v0Zm-.0356-.1177.0049.0122Zm1.4126-3.5141h.0337A.2525.2525,0,0,0,144.89,120.3917Z"/></g><g id="path3168"><path class="cls-4" d="M83.1668,105.18a6.7615,6.7615,0,0,1-3.2549-.75,2.1355,2.1355,0,0,1-1.2339-1.853v-1.5571a7.1614,7.1614,0,0,1-1.5142.6767,7.8784,7.8784,0,0,1-4.5068-.0493,6.8472,6.8472,0,0,1-2.1909-1.7636,11.725,11.725,0,0,1-9.0117-1.7613,14.2367,14.2367,0,0,1-5.545-8.5947c-1.0766-.2534-2.5766-.5825-3.3359-.6606C47.18,88.2955,45.3377,76.6959,45.3328,76.58c-.7852-18.6934,2.3442-27.3345,13.9521-38.5259,5.4825-5.293,13.5855-7.94,25.5-8.3306,7.711-.2505,13.9151.1245,19.1377,2.772.8912.374,10.5054,4.4389,14.2442,7.31a52.5821,52.5821,0,0,1,10.4175,11.52l.1181.2109c2.583,5.6323,2.6182,12.8677.086,17.5937a10.0214,10.0214,0,0,1-7.4244,5.4522l-9.13,1.4526c.0322.1255.0669.2544.0981.3682.5479,2.02,1.6821,6.2051-3.9185,9.6782-5.4819,5.3867-11.6757,2.896-14.332,1.8281-.07-.0278-.144-.0576-.2178-.0869A49.3735,49.3735,0,0,0,90.99,92.38a33.585,33.585,0,0,0-2.0674,5.7612,6.8169,6.8169,0,0,0-.02,1.5005c.0708,1.4594.168,3.4575-1.4614,4.3911A8.5846,8.5846,0,0,1,83.1668,105.18Zm-1.4888-3.2256a5.386,5.386,0,0,0,4.1855-.4766,6.8,6.8,0,0,0,.042-1.69,8.299,8.299,0,0,1,.1094-2.3872,36.3216,36.3216,0,0,1,2.2813-6.3413,62.5378,62.5378,0,0,1,3.6919-5.7915l.1855-.2159c.8394-.8032,1.8525-.3969,3.0264.0747,2.4829.9981,7.1035,2.8565,11.2153-1.289l.2891-.2271c3.8437-2.3222,3.2529-4.5,2.7319-6.4218a3.5984,3.5984,0,0,1,.0347-2.9971,2.31,2.31,0,0,1,1.64-1.0152l9.7822-1.5566a7.0345,7.0345,0,0,0,5.2505-3.9058c2.0684-3.8608,2.0147-10.0732-.1186-14.8183a48.7062,48.7062,0,0,0-9.6846-10.71c-3.5308-2.7109-13.5264-6.9013-13.6269-6.9433l-.1041-.0484c-4.6611-2.38-10.4575-2.708-17.7265-2.4721-11.1265.3647-18.5986,2.7451-23.5147,7.4917C50.3821,50.8048,47.58,58.5943,48.33,76.4532c.208,1.8315,2.3476,9.1968,4.5561,9.4307a47.23,47.23,0,0,1,4.7041.9648l1.002.252.122,1.0254a11.2833,11.2833,0,0,0,4.4473,7.53,8.9258,8.9258,0,0,0,7.5112,1.1167l.9365-.2309.6.7573a7.9186,7.9186,0,0,0,1.5566,1.562,5.1226,5.1226,0,0,0,2.6074-.0576,14.1887,14.1887,0,0,0,2.9009-1.771l2.4043-1.8164Z"/></g></g></g><g class="cls-5"><path class="cls-4" d="M168.56,93.9577l56.6391,1.6484c13.6645.3977,30.2173,1.3613,40.5656-9.3793,5.4858-5.6938,7.3466-13.1228,10.8437-19.9578,1.964-3.8385,5.2678-5.9738,8.4924-8.6368a59.0137,59.0137,0,0,0,8.27-8.362,61.1362,61.1362,0,0,0,10.2649-18.42c.5434-1.565.76-3.8191,1.5574-5.2706l.29-1.1428,5.265-1.2626c.8829.3916,2.1287,3.9556,2.265,4.3568a24.8832,24.8832,0,0,1,.24,15.0667c-2.36,7.7519-8.3311,13.8625-11.8485,21.0644a27.5073,27.5073,0,0,0-1.6049,20.5339,1.5013,1.5013,0,0,0,2.8928-.7976c-2.5019-8.6853-.4825-15.802,4.17-23.2823,3.925-6.31,8.7062-12.3519,10.0129-19.8578,1.0307-5.9207.4925-14.6241-4.0062-19.2055-3.82-3.89-8.6864-2.1971-10.2791,2.5865-2.943,8.839-5.7767,16.812-11.8342,24.12-4.884,5.8924-12.6738,9.6462-16.4085,16.3345-4.55,8.1495-6.1068,17.51-14.3717,23.1234-7.2324,4.9126-16.4862,5.58-24.9706,5.5975-22.127.0461-44.3269-1.2138-66.4448-1.8575-1.9311-.0562-1.93,2.9438,0,3Z"/><path class="cls-4" d="M255.3605,136.761c-16.1192,2.9855-32.2741,5.8239-48.3559,9.0057-14.4247,2.854-28.6664,6.47-42.026,12.732-1.7468.8188-.2254,3.4058,1.5141,2.59,13.6587-6.4027,28.3181-9.9065,43.0639-12.7733,15.5082-3.0151,31.0671-5.7847,46.6014-8.6619,1.8958-.3512,1.0928-3.243-.7975-2.8929Z"/></g></svg>