<svg id="Layer_1" data-name="Layer 1" xmlns="http://www.w3.org/2000/svg" xmlns:xlink="http://www.w3.org/1999/xlink" width="180.6369" height="180.6369" viewBox="0 0 180.6369 180.6369"><defs><style>.cls-1{fill:none;}.cls-2{clip-path:url(#clip-path);}.cls-3{fill:#fff;}.cls-4{fill:#105dfb;}</style><clipPath id="clip-path"><circle class="cls-1" cx="-110.3184" cy="90.3184" r="88"/></clipPath></defs><title>images</title><g class="cls-2"><path class="cls-3" d="M17.6868,46.872C-12.3353,57.0474-42.6655,67.215-74.4284,70.03c-1.908.1691-1.9258,3.1707,0,3C-42.38,70.19-11.8118,60.0331,18.4843,49.7649c1.8186-.6164,1.0381-3.515-.7975-2.8929Z"/><path class="cls-3" d="M-66.55,107.94c13.5857-6.9916,28.911-5.2046,43.6346-4.9239,7.1017.1354,13.9223-.6711,20.96-1.4039,6.6172-.6891,13.2976.18,19.7734-1.6249a1.5013,1.5013,0,0,0-.7975-2.8928c-7.17,1.998-14.9928,1.01-22.3641,1.9342a144.6806,144.6806,0,0,1-23.3493.8145c-13.4563-.4768-27.0794-.8193-39.3711,5.5064-1.7172.8837-.2014,3.4733,1.5141,2.59Z"/></g><circle class="cls-4" cx="90.3184" cy="90.3184" r="88"/><path class="cls-3" d="M132.7319,120.0958a28.2236,28.2236,0,0,1-11.1587-2.3491C109.41,112.545,102.3022,101.461,100.02,95.732c-.3413-.8574-.6445-1.6792-.9316-2.4585-1.7031-4.6186-2.5581-6.937-7.4717-7.0112-4.9341-.07-6.2075.6494-7.0967,4.083-3.3378,12.8887-9.25,20.6675-19.1723,25.2222-12.43,5.7041-23.4976,4.5371-34.8335-3.6739-6.021-4.3618-10.0493-12.04-11.9727-22.8222a6.1823,6.1823,0,0,0-3.2461-4.6641,4.1523,4.1523,0,0,1-2.1225-3.645c.0039-3.0869.0122-9.48,4.5976-9.5957a19.4552,19.4552,0,0,0,6.5816-2.4995c12.6284-8.4649,26.0722-10.2725,41.1015-5.524,4.4507,1.4058,9.7217,5.1138,15.667,11.0215,1.2334,1.2163,1.9932.9449,2.6045.5713,4.7246-3.31,9.9409-3.38,15.5073-.21,2.7051,1.4878,3.9424.7891,4.6348.1333,9.5894-9.0732,18.7319-12.8012,29.6484-12.104,8.396.54,15.4214,2.7422,21.4781,6.7339a46.0811,46.0811,0,0,0,7.7392,4.0518,7.33,7.33,0,0,1,4.3106,4.89,20.0362,20.0362,0,0,1,.6274,4.9995,4.4726,4.4726,0,0,1-3.2065,4.3667l-.2241.05c-.2574.0381-1.6163.5835-3.0752,7.6328-1.9673,9.5088-6.3545,16.35-13.0386,20.3321A29.91,29.91,0,0,1,132.7319,120.0958ZM91.0737,83.2579c.1933,0,.3891.0015.5888.0044,6.9707.1055,8.4859,4.2153,10.24,8.9736.2788.7564.5727,1.5537.9043,2.3858,2.1108,5.2993,8.6875,15.5517,19.9458,20.3662,7.831,3.3486,16.0732,2.6733,23.8383-1.9522a22.2782,22.2782,0,0,0,7.9522-8.2261,27.2735,27.2735,0,0,1-22.2359,11.1348c-14.7587,0-26.7661-11.2524-26.7661-25.0835s12.0074-25.0835,26.7661-25.0835S159.0737,77.03,159.0737,90.8609q0,.1648-.0025.3291c1.19-4.13,2.6314-6.126,4.606-6.4888a1.4785,1.4785,0,0,0,.9936-1.436,17.0729,17.0729,0,0,0-.5249-4.2568,4.3513,4.3513,0,0,0-2.5654-2.8975,49.0158,49.0158,0,0,1-8.2373-4.3164c-5.61-3.6968-12.1582-5.74-20.02-6.2446-10.0078-.6441-18.4619,2.8374-27.3941,11.2886-1.4614,1.3842-4.0635,2.56-8.1626.3056-4.5654-2.6011-8.6-2.5742-12.3525.0718l-.0737.0483c-2.1172,1.315-4.3667.97-6.33-.9677-5.5279-5.4922-10.5269-9.05-14.46-10.293C50.2353,61.483,37.98,63.13,25.9814,71.1861l-.085.0532a22.3266,22.3266,0,0,1-7.78,2.9092l-.22.0166c-1.1538.001-1.7178,2.16-1.7236,6.6006a1.15,1.15,0,0,0,.5757,1.0166,9.2107,9.2107,0,0,1,4.7461,6.7617c1.7827,9.9912,5.4091,17.03,10.7793,20.92,10.5092,7.6128,20.3242,8.6548,31.8222,3.377,9.0259-4.1431,14.4292-11.313,17.5195-23.2476C82.97,84.3634,85.9989,83.2579,91.0737,83.2579Zm41.2338-14.4805c-13.1045,0-23.7661,9.9068-23.7661,22.0835s10.6616,22.0835,23.7661,22.0835,23.7662-9.9067,23.7662-22.0835S145.412,68.7774,132.3075,68.7774ZM50.7519,114.983c-14.7588,0-26.7661-11.2525-26.7661-25.0835S35.9931,64.816,50.7519,64.816,77.5175,76.0684,77.5175,89.9,65.5107,114.983,50.7519,114.983Zm0-47.167c-13.1045,0-23.7661,9.9067-23.7661,22.0835S37.6474,111.983,50.7519,111.983,74.5175,102.0762,74.5175,89.9,63.8564,67.816,50.7519,67.816Z"/></svg>