<svg id="Layer_1" data-name="Layer 1" xmlns="http://www.w3.org/2000/svg" width="1321" height="218" viewBox="0 0 1321 218"><defs><style>.cls-1{fill:#fff;}</style></defs><title>images</title><path class="cls-1" d="M261.1434,230.4307l-37.729-.9981-.0279-1.4321c-.21-10.7168.3638-21.86.919-32.6358,1.0014-19.4326,2.0371-39.5263-1.439-58.1362a16.46,16.46,0,0,0-2.4531-4.7309,36.0757,36.0757,0,0,1-5.33-11.4234,143.4071,143.4071,0,0,0-5.6489-18.146c-.8545-2.3135-3.4488-5.8471-6.1949-9.5879-5.894-8.0293-12.5747-17.1294-8.5727-22.5542l.1455-.1972.2007-.1407a5.5446,5.5446,0,0,1,4.6152-1.0781c3.1485.7735,5.0967,4.5371,6.6621,7.5611.4058.7841.7891,1.5249,1.1387,2.103a57.5081,57.5081,0,0,0,6.7661,8.0683A106.8586,106.8586,0,0,0,209.1077,75.2c-6.0229-12.7515-9.688-21.3721-5.91-24.8726a5.0067,5.0067,0,0,1,4.7441-1.5419c3.7173.9262,5.9145,6.4174,8.02,12.4492.39,1.1181.7271,2.0835.9854,2.66a54.8116,54.8116,0,0,0,4.1865,7.2535l.7388,1.146a19.2156,19.2156,0,0,1,1.6411,3.75c.1025.2856.2094.583.32.8818-1.15-7.5166-4.47-22.0356-5.6187-25.6748-.0234-.07-2.8476-8.8.7017-12.0029.9741-.8794,2.7837-1.6382,5.8691-.2569,5.1363,2.314,11.252,28.7544,11.3008,29.0157.2149,1.0937.3877,2.374.5542,3.6118a41.6388,41.6388,0,0,0,.8037,4.7021,5.9683,5.9683,0,0,0,.5225,1.397,5.2986,5.2986,0,0,0,.3237-1.18c.3013-1.77.2012-15.9692-.0557-18.3672a36.8811,36.8811,0,0,0-.7294-3.8877c-.961-4.3213-2.05-9.2187,1.1543-12.4609l.1928-.1953.25-.1143a6.1468,6.1468,0,0,1,5.7554-.1123c3.7158,2.0611,4.5244,8.3184,5.0078,12.0567l.0274.21c.2495,1.9229.6054,3.9673.9819,6.1319a86.21,86.21,0,0,1,1.5034,11.666c.05,1.6152.0342,3.1543.0191,4.6425-.0484,4.7574-.09,8.8663,1.9853,13.439l.0586.1284c2.2554,4.9737,4.4414,9.0733,8.1987,9.0074a51.0287,51.0287,0,0,0,3.3828-4.4981c4.5538-6.44,10.7818-15.271,16.667-14.85,2.3472.1641,4.294,1.7153,5.7871,4.6108l.19.3682-.0259.4131c-.2251,3.6006-4.0957,8.4184-7.206,12.29-.7984.9937-1.5523,1.9322-2.0943,2.6724a51.0283,51.0283,0,0,0-4.8911,8.3677c-.9424,1.9-1.9165,3.8657-3.2607,6.041a75.3077,75.3077,0,0,1-6.7857,9.039c-4.7558,5.6758-8.5122,10.1587-8.9228,19.8765-.4453,10.4341,1.644,33.3252,3.4868,53.522,1.4038,15.3823,2.6162,28.667,2.2949,32.4853ZM226.3626,226.51l31.9546.8447c-.0049-4.9912-1.1416-17.4434-2.3374-30.5479-1.8521-20.29-3.9507-43.2876-3.4966-53.9218.4536-10.7359,4.7017-15.8057,9.6206-21.6758a72.8814,72.8814,0,0,0,6.5337-8.6909c1.27-2.0547,2.2124-3.9561,3.124-5.7945a54.1889,54.1889,0,0,1,5.1607-8.811c.5791-.791,1.3535-1.7554,2.1738-2.7759,2.4229-3.0161,6.0264-7.501,6.5034-10.21-.936-1.6675-1.959-2.5191-3.1181-2.6-4.1958-.271-10.337,8.3969-14.0083,13.5888-2.1783,3.0811-3.36,4.7222-4.34,5.439l-.3257.2383-.4008.043c-6.5064.6884-9.6338-6.1749-11.6968-10.7222l-.0581-.1279c-2.35-5.1783-2.3032-9.8077-2.253-14.71.0147-1.4575.03-2.9653-.0185-4.5195a84.0874,84.0874,0,0,0-1.46-11.2442c-.3823-2.1973-.7436-4.2724-1.0014-6.26L246.89,53.84c-.3559-2.7563-1.0971-8.4922-3.4873-9.8178-.2744-.1524-1.0825-.6006-2.7885.102-1.8223,2.12-.9878,5.8731-.18,9.5059a38.999,38.999,0,0,1,.7846,4.2212c.2491,2.3271.4063,16.9765.0289,19.1919-.6089,3.5336-2.3916,3.9873-3.13,4.0185-.93.0308-2.6465-.4243-3.5733-3.9756a43.3885,43.3885,0,0,1-.8764-5.0678c-.168-1.2491-.3272-2.4288-.5274-3.4478-1.0532-5.6416-6.9326-25.5576-9.5844-26.8442-.7232-.3233-2.0337-.79-2.629-.2525-1.205,1.0869-.9126,5.6524.1431,8.8545.0928.2935,7.6465,29.2544,5.76,32.2866l-.7217,1.16-1.2227-.6108c-2.309-.8472-3.31-3.64-4.1958-6.1089a17.0239,17.0239,0,0,0-1.3442-3.1451l-.7314-1.1342a57.0588,57.0588,0,0,1-4.4063-7.6592c-.3091-.6895-.6655-1.711-1.0786-2.8941-1.1231-3.2187-3.4605-9.916-5.9131-10.5268-.21-.0537-.8516-.2134-1.9805.832-2.4477,2.2681,3.2061,14.2383,6.5845,21.39,4.4092,9.3354,6.6465,14.3237,5.2871,16.8354l-.4809.8887-1.0044-.1118c-2.9932-.333-10.022-9.73-10.7583-10.9414-.4029-.6661-.8081-1.45-1.2378-2.2793-1.2183-2.354-2.8872-5.5782-4.7139-6.0269a2.371,2.371,0,0,0-1.9629.479c-2.3335,3.7607,4.0361,12.4375,8.709,18.8027,2.9995,4.086,5.59,7.6143,6.59,10.3233a145.989,145.989,0,0,1,5.7544,18.4956,33.5633,33.5633,0,0,0,4.94,10.5005c1.3628,2.1367,2.54,3.9824,2.8735,5.7973,3.54,18.9556,2.4961,39.2305,1.4854,58.8374C226.7737,205.7612,226.2288,216.3364,226.3626,226.51Z"/><path class="cls-1" d="M173.3328,276.6743l-38.4858-.1821.1606-1.6382c1.6182-16.5269,4.7945-65.2192.72-75.916-1.7128-4.5322-5.6171-9.062-9.393-13.4429-3.2813-3.8071-6.6743-7.7441-8.8145-11.8452a88.9019,88.9019,0,0,0-10.1235-14.6016c-4.6128-5.7275-7.9458-9.8657-5.94-13.3027l.22-.29a7.2148,7.2148,0,0,1,5.7358-2.4473c5.5254.3286,10.7032,7.1059,15.271,13.0854,2.002,2.62,4.0655,5.3208,5.4009,6.294,3.5933-1.0132,5.8306-5.7969,7.3916-9.9195,1.604-4.2661,1.2813-9.6025.97-14.7636-.07-1.1636-.14-2.3106-.185-3.4258-.01-.2651-.6822-26.2949,6.5444-29.9507,1.2212-.6186,3.207-.9307,5.7407,1.0874l-.3735.4693.4575-.3985-.6167.7188.7446-.5738c1.3267,1.7227,1.396,6.5625,1.2378,17.1953-.1025,6.8843-.2426,16.3106.9444,18.04.4311-1.0742.9433-3.6582,1.3711-9.5244.0591-.8091.1059-1.4155.146-1.6968a71.9408,71.9408,0,0,1,1.8486-7.81c.5679-2.0581,1.1558-4.1865,1.561-6.2309l.1514-.7818c.84-4.3779,2.2461-11.7055,7.0713-12.6411,2.4624-.4663,4.333-.0224,5.5727,1.32,2.6543,2.8765,1.0474,8.7266.1841,11.8692a217.5145,217.5145,0,0,0-3.7719,24.5805c.01-.0332.0195-.0664.0288-.0991a17.2579,17.2579,0,0,1,1.42-3.792,80.8639,80.8639,0,0,0,5.6763-12.6694c2.4477-6.4614,4.2158-11.13,7.8339-11.2993l.2066-.0093.2021.0464a6.9924,6.9924,0,0,1,5.0225,3.5552c1.9761,3.9594-.5791,9.7226-2.6323,14.353-.5586,1.26-1.0865,2.45-1.4458,3.4355-.1607.438-.4043,1.0757-.7041,1.8614a131.7109,131.7109,0,0,0-5.0567,14.9629,53.5463,53.5463,0,0,0,5.9336-7.8409c.2481-.5219.5-1.1005.7608-1.7011,1.3774-3.1665,2.9384-6.7554,6.019-7.7456a6.2186,6.2186,0,0,1,5.1943.8842l.3189.191.1933.3173c3.8262,6.2862-2.5771,15.1831-7.7226,22.3326a52.089,52.089,0,0,0-4.686,7.1982c-1.75,3.9067-2.8492,9.2329-3.9117,14.3838-1.4643,7.0977-2.8471,13.8013-5.8955,17.8823-6.2729,8.3911-3.1816,33.2017-.6972,53.1372,1.3227,10.6182,2.4658,19.7886,2.2524,25.8833Zm-35.185-3.1665,32.2607.1528c-.0054-5.9057-1.1006-14.6928-2.2544-23.9536-2.6836-21.5356-5.7251-45.9453,1.2715-55.3032,2.6479-3.5459,4.0268-10.23,5.36-16.6929,1.0953-5.3086,2.2276-10.7983,4.1143-15.0107a52.5288,52.5288,0,0,1,4.9863-7.7178c4.5225-6.2837,10.125-14.0683,7.773-18.7012a3.1043,3.1043,0,0,0-2.4033-.4155c-1.7891.5752-3.1187,3.6314-4.1866,6.0864-.2749.6324-.5405,1.2417-.8042,1.7969-.8139,1.6958-7.3925,10.6807-9.8608,11.3306l-1.0259.27-.5962-.8774c-1.09-1.6026-.6006-5.2979,5.0957-20.2085.2945-.77.5332-1.395.69-1.8208.3926-1.0777.94-2.3135,1.52-3.6216,1.7031-3.8408,4.0356-9.1016,2.6909-11.7974a3.9657,3.9657,0,0,0-2.771-1.9116c-1.6094.3784-3.41,5.1318-5.0044,9.3418a83.2056,83.2056,0,0,1-5.8955,13.1274,15.3493,15.3493,0,0,0-1.125,3.1075c-.7178,2.4736-1.46,5.0312-3.6587,5.9409l-1.0674.4414-.7-.9194c-2.2861-3.0044,3.0718-30.3951,3.3946-31.5738.5551-2.0215,2.0293-7.3882.5039-9.041-.4893-.5322-1.4341-.6694-2.8023-.4087-2.8271.5479-4.0859,7.1079-4.69,10.26l-.1548.7988c-.4272,2.1538-1.0293,4.3359-1.6123,6.4468a68.7061,68.7061,0,0,0-1.7734,7.4565c-.0323.2261-.0689.7588-.1206,1.47-.6568,9.0083-1.5479,12.084-3.667,12.6573-.7828.2109-1.9693.0986-3.1661-1.6475-1.6147-2.3384-1.6342-9.0356-1.4746-19.7876.086-5.7505.2017-13.562-.55-15.1973-1.4-1.0278-2.06-.6933-2.2856-.58-3.83,1.938-5.227,18.708-4.9014,27.1548.045,1.0922.1128,2.22.1822,3.3642.3305,5.4746.6723,11.1353-1.1573,16.0034-1.2339,3.2569-4.1191,10.876-10.2031,11.9341l-.4834.084-.44-.2183c-1.9219-.9531-4.1-3.8037-6.857-7.4121-3.7607-4.9228-8.9116-11.665-13.0654-11.9121a4.203,4.203,0,0,0-3.2549,1.3921c-.7221,1.73,2.4263,5.6387,5.7544,9.7715a91.311,91.311,0,0,1,10.4488,15.0981c1.9775,3.7906,5.2553,7.5938,8.4252,11.2715,3.9458,4.5781,8.0264,9.312,9.9258,14.3369C142.9476,209.4644,139.5027,258.6577,138.1478,273.5078Zm13.2114-132.1455h0Z"/><path class="cls-1" d="M447.1946,225.6743l-38.4858-.1821.1606-1.6382c1.6182-16.5269,4.7945-65.2192.72-75.916-1.7129-4.5322-5.6172-9.062-9.3931-13.4429-3.2813-3.8071-6.6743-7.7441-8.8145-11.8452a88.88,88.88,0,0,0-10.1235-14.6016c-4.6133-5.7275-7.9458-9.8657-5.9414-13.3027l.22-.2895a7.2343,7.2343,0,0,1,5.7354-2.4473c5.5258.3286,10.7036,7.1059,15.2715,13.0854,2.0019,2.62,4.0654,5.3208,5.4008,6.294,3.5938-1.0137,5.8311-5.7969,7.3916-9.9195,1.604-4.2666,1.2818-9.604.97-14.7651-.07-1.1631-.14-2.31-.1851-3.4243-.01-.2651-.6821-26.2949,6.5444-29.9507,1.2212-.6186,3.2075-.9307,5.7407,1.0874l-.3735.4693.4575-.3985-.6167.7188.7447-.5738c1.3266,1.7227,1.3955,6.562,1.2373,17.1944-.1021,6.8838-.2427,16.31.9443,18.04.4312-1.0747.9439-3.6587,1.3716-9.5249.0591-.8086.1059-1.415.146-1.6963a71.9408,71.9408,0,0,1,1.8486-7.81c.5679-2.0581,1.1558-4.1865,1.561-6.2309l.15-.7793c.84-4.3789,2.2456-11.708,7.0723-12.6436,2.4619-.4682,4.3335-.0224,5.5728,1.32,2.6547,2.8775,1.0473,8.7266.1836,11.8692a217.6323,217.6323,0,0,0-3.771,24.58l.0283-.0982a17.263,17.263,0,0,1,1.42-3.792,80.8891,80.8891,0,0,0,5.6763-12.67c2.4472-6.4614,4.2153-11.13,7.8335-11.2988l.2065-.0093.2022.0464a6.9923,6.9923,0,0,1,5.0229,3.5552c1.9756,3.96-.58,9.7226-2.6323,14.353-.5591,1.26-1.0864,2.45-1.4458,3.4355-.1607.438-.4043,1.0762-.7046,1.8623a131.6759,131.6759,0,0,0-5.0562,14.9615,53.6263,53.6263,0,0,0,5.9341-7.8408c.2476-.5215.499-1.1.76-1.7007C457.5579,86.5889,459.119,83,462.2,82.01a6.2239,6.2239,0,0,1,5.1944.8842l.3188.191.1934.3173c3.8261,6.2862-2.5772,15.1831-7.7227,22.3326a52.1078,52.1078,0,0,0-4.686,7.1982c-1.75,3.9067-2.8492,9.2329-3.9117,14.3838-1.4643,7.0977-2.8471,13.8013-5.8955,17.8823-6.2729,8.3911-3.1816,33.2017-.6972,53.1372,1.3227,10.6182,2.4658,19.7886,2.2524,25.8833Zm-35.185-3.1665,32.2607.1528c-.0054-5.9057-1.1006-14.6928-2.2544-23.9536-2.6836-21.5356-5.7251-45.9453,1.2715-55.3032,2.648-3.5459,4.0269-10.23,5.36-16.6929,1.0952-5.3086,2.2275-10.7983,4.1142-15.0107a52.5288,52.5288,0,0,1,4.9863-7.7178c4.5225-6.2837,10.125-14.0683,7.773-18.7012a3.1,3.1,0,0,0-2.4033-.4155c-1.7891.5752-3.1187,3.6314-4.1865,6.0864-.275.6324-.5406,1.2417-.8042,1.7969-.8145,1.6958-7.3936,10.6807-9.8609,11.3306l-1.0254.27-.5967-.8769c-1.09-1.6031-.601-5.2979,5.0957-20.2081.294-.77.5332-1.3955.69-1.8217.3926-1.0777.94-2.313,1.52-3.6211,1.7031-3.8413,4.0356-9.1021,2.69-11.7979a3.9649,3.9649,0,0,0-2.771-1.9116c-1.6093.3784-3.41,5.1314-5.0039,9.3413A83.21,83.21,0,0,1,442.97,86.5815a15.3493,15.3493,0,0,0-1.125,3.1075c-.7182,2.4736-1.46,5.0312-3.6587,5.9409l-1.0673.4414-.6993-.919c-2.2856-3.0024,3.0708-30.395,3.3936-31.5742.5557-2.0215,2.03-7.3877.5044-9.041-.49-.5312-1.4341-.6694-2.8023-.4087-2.8281.5484-4.0864,7.1094-4.6909,10.2622l-.1543.7969c-.4272,2.1538-1.0293,4.3359-1.6123,6.4468a68.7061,68.7061,0,0,0-1.7734,7.4565c-.0322.2261-.0689.7588-.1206,1.4693-.6573,9.0092-1.5484,12.0849-3.6675,12.6577-.7822.2124-1.9688.0986-3.1655-1.6475-1.6148-2.3384-1.6348-9.0361-1.4746-19.7886.0854-5.75.2016-13.561-.55-15.1963-1.4-1.0278-2.0606-.6933-2.2857-.58-3.83,1.938-5.227,18.708-4.9013,27.1548.0449,1.0918.1127,2.2187.1821,3.3627.33,5.4751.6723,11.1363-1.1577,16.0049-1.2334,3.2569-4.1177,10.8755-10.2032,11.9341l-.4834.084-.44-.2183c-1.9219-.9531-4.1-3.8037-6.8569-7.4121-3.7608-4.9228-8.9117-11.665-13.0655-11.9121a4.2109,4.2109,0,0,0-3.2548,1.3921c-.7217,1.73,2.4267,5.6387,5.7548,9.771a91.3319,91.3319,0,0,1,10.4488,15.0986c1.9775,3.7906,5.2553,7.5938,8.4253,11.2715,3.9458,4.5781,8.0263,9.312,9.9257,14.3369C416.8094,158.4644,413.3646,207.6577,412.01,222.5078Zm37.188-120.5825ZM438.91,93.51v0Zm-13.6885-3.148Z"/><path class="cls-1" d="M632.8475,244.6743l-38.4859-.1821.1607-1.6382c1.6181-16.5269,4.7944-65.2192.72-75.916-1.7129-4.5322-5.6172-9.062-9.3931-13.4429-3.2812-3.8071-6.6743-7.7441-8.8144-11.8452a88.8744,88.8744,0,0,0-10.1236-14.6016c-4.6132-5.7275-7.9458-9.8657-5.9414-13.3027l.22-.2895a7.2449,7.2449,0,0,1,5.7358-2.4473c5.5259.3286,10.7031,7.1059,15.2715,13.0854,2.0014,2.62,4.0649,5.3208,5.4,6.294,3.5937-1.0137,5.831-5.7969,7.3916-9.92,1.6045-4.2666,1.2817-9.603.97-14.7641-.07-1.1636-.14-2.31-.1851-3.4253-.01-.2651-.6821-26.2949,6.5445-29.9507,1.2207-.6186,3.207-.93,5.7407,1.0874l-.3736.4693.4576-.3985-.6167.7188.7446-.5738c1.3267,1.7227,1.3955,6.562,1.2373,17.1944-.1021,6.8838-.2427,16.31.9443,18.04.4312-1.0747.9439-3.6587,1.3716-9.5249.0591-.8086.106-1.415.146-1.6963a71.9408,71.9408,0,0,1,1.8486-7.81c.5679-2.0581,1.1558-4.1865,1.5611-6.2309l.15-.7793c.84-4.3789,2.2456-11.708,7.0722-12.6436,2.462-.4677,4.334-.0224,5.5728,1.32,2.6548,2.8775,1.0474,8.7266.1836,11.8692a217.6437,217.6437,0,0,0-3.771,24.58c.0093-.0332.019-.066.0283-.0987a17.268,17.268,0,0,1,1.42-3.792,80.88,80.88,0,0,0,5.6763-12.67c2.4473-6.4614,4.2153-11.13,7.8335-11.2988l.2065-.0093.2022.0464a6.9921,6.9921,0,0,1,5.0229,3.5552c1.9756,3.96-.58,9.7226-2.6323,14.353-.5591,1.26-1.0864,2.45-1.4458,3.4355-.1606.438-.4043,1.0762-.7046,1.8623a131.6456,131.6456,0,0,0-5.0561,14.9615,53.6335,53.6335,0,0,0,5.9341-7.8408c.2475-.5215.499-1.1.76-1.7007,1.3774-3.1665,2.9385-6.7554,6.019-7.7456a6.22,6.22,0,0,1,5.1944.8842l.3188.191.1934.3173c3.8262,6.2862-2.5772,15.1831-7.7227,22.3326a52.1078,52.1078,0,0,0-4.686,7.1982c-1.75,3.9067-2.8491,9.2329-3.9116,14.3838-1.4644,7.0977-2.8472,13.8013-5.8955,17.8823-6.273,8.3911-3.1817,33.2017-.6973,53.1372,1.3228,10.6182,2.4658,19.7886,2.2524,25.8833Zm-35.1851-3.1665,32.2607.1528c-.0053-5.9057-1.1005-14.6928-2.2543-23.9536-2.6836-21.5356-5.7251-45.9453,1.2714-55.3032,2.648-3.5459,4.0269-10.23,5.36-16.6929,1.0952-5.3086,2.2275-10.7983,4.1142-15.0107a52.5223,52.5223,0,0,1,4.9864-7.7178c4.5224-6.2837,10.125-14.0683,7.7729-18.7012a3.1,3.1,0,0,0-2.4033-.4155c-1.7891.5752-3.1186,3.6314-4.1865,6.0864-.2749.6324-.54,1.2417-.8042,1.7969-.8145,1.6958-7.3936,10.6807-9.8609,11.3306l-1.0253.27-.5967-.8769c-1.09-1.6031-.6011-5.2979,5.0957-20.2081.2939-.77.5332-1.3955.6894-1.8217.3926-1.0777.94-2.313,1.52-3.6211,1.7032-3.8413,4.0357-9.1021,2.6905-11.7979a3.9654,3.9654,0,0,0-2.771-1.9116c-1.6094.3784-3.41,5.1314-5.0039,9.3413a83.2192,83.2192,0,0,1-5.8955,13.1279,15.3372,15.3372,0,0,0-1.125,3.1075c-.7178,2.4736-1.46,5.0312-3.6587,5.9409l-1.0674.4414-.6992-.919c-2.2857-3.0024,3.0708-30.395,3.3935-31.5742.5557-2.0215,2.03-7.3877.5044-9.041-.4892-.5322-1.4336-.6694-2.8022-.4087-2.8282.5484-4.0865,7.1094-4.691,10.2622l-.1542.7969c-.4273,2.1538-1.0293,4.3359-1.6124,6.4468a68.73,68.73,0,0,0-1.7734,7.4565c-.0322.2261-.0688.7588-.1206,1.4693-.6572,9.0092-1.5483,12.0849-3.6675,12.6577-.7817.2124-1.9687.0986-3.1655-1.6475-1.6147-2.3384-1.6348-9.0361-1.4746-19.7886.0854-5.75.2016-13.561-.55-15.1963-1.4-1.0278-2.061-.6938-2.2857-.58-3.83,1.938-5.227,18.708-4.9013,27.1548.0449,1.0922.1128,2.22.1821,3.3637.3306,5.4746.6724,11.1358-1.1582,16.0039-1.2329,3.2569-4.1172,10.8755-10.2026,11.9341l-.4834.084-.44-.2183c-1.9218-.9531-4.1-3.8037-6.8569-7.4121-3.7607-4.9228-8.9111-11.665-13.0654-11.9121a4.2113,4.2113,0,0,0-3.2549,1.3921c-.7217,1.73,2.4267,5.6387,5.7549,9.771a91.3318,91.3318,0,0,1,10.4487,15.0986c1.9775,3.7906,5.2554,7.5938,8.4253,11.2715,3.9458,4.5781,8.0264,9.312,9.9258,14.3369C602.4622,177.4644,599.0174,226.6577,597.6624,241.5078ZM634.85,120.9253Zm-10.2881-8.415v0Zm-13.6885-3.148Z"/><path class="cls-1" d="M71.67,275.4873l-30.978-.0469.0054-1.5029a162.8436,162.8436,0,0,0-2.41-31.6c-.2817-1.6284-.4536-2.86-.5918-3.8472-.4951-3.5415-.4951-3.5415-3.957-8.2207-2.6861-3.65-3.7432-8.1557-4.9673-13.373-1.6323-6.958-3.4824-14.8447-9.7813-23.1724-.372-.4931-.8227-1.07-1.3266-1.7153-4.7837-6.127-12.7906-16.3818-8.7881-22.4072l.1689-.2544.2554-.168a5.88,5.88,0,0,1,4.8643-1.0117c3.2451.87,5.1889,4.75,6.75,7.8667.2793.5571.5459,1.0893.8038,1.57a53.4028,53.4028,0,0,0,6.7749,8.2842c-.8482-3.2251-3.5782-9.0166-5.3858-12.8506-4.9512-10.5024-9.6279-20.4224-5.6914-24.0068A5.1508,5.1508,0,0,1,22.24,147.49c3.955.99,6.229,7.3423,7.89,11.9805.4321,1.208.8057,2.251,1.0933,2.8477a68.6853,68.6853,0,0,0,4.8549,8.5136,21.4983,21.4983,0,0,1,2.001,4.2632c-.436-3.0635-1.3213-8.0327-3.0088-16.0693l-.2949-1.415c-.1743-.8951-.6123-2.2583-1.1186-3.8375-1.6973-5.289-3.8091-11.871-1.1119-14.9814,1.1656-1.3433,2.9737-1.8184,5.3775-1.4077,4.9258.8476,7.0039,9.1338,8.6743,15.792.4111,1.64.7661,3.0561,1.0855,3.978a77.7738,77.7738,0,0,1,3.0209,12.57c.6119,3.5025,1.01,5.4268,1.6338,6.106.9317-3.3208.2642-12.126-.2373-18.7417-.7715-10.1841-.9624-14.5054.2813-16.2466l.26-.28c2.3824-1.9848,4.3482-1.7216,5.5767-1.1533,7.5078,3.4722,8.3686,30.3218,8.3711,30.59.1626,16.6294,3.4853,25.8906,9.8794,27.5473a48.469,48.469,0,0,0,4.3745-5.497c4.6621-6.3565,10.4482-14.3028,16.0269-14.1231,2.1015.0547,3.9047,1.2061,5.36,3.4224l.1665.3413c1.3135,3.8686-2.8618,9.53-8.456,16.5283-1.3555,1.6958-2.5264,3.16-3.1958,4.1851a32.4049,32.4049,0,0,0-2.441,4.8466,31.28,31.28,0,0,1-3.1289,5.9385c-1.2265,1.7075-2.5561,3.4121-3.8427,5.0606-.9917,1.2714-1.981,2.54-2.9229,3.8071-.5361.7139-1.04,1.3774-1.5156,2.0054-5.64,7.437-7.1553,9.436-7.1187,20.0273Zm-27.97-3.042,24.7832.0371-1.7065-28.2993c-.043-11.6914,2.0722-14.481,7.7255-21.936.4732-.6241.9737-1.2842,1.5025-1.9878.9507-1.28,1.9546-2.5669,2.9609-3.857,1.2686-1.6254,2.58-3.3066,3.77-4.9633A28.5689,28.5689,0,0,0,85.553,206.05a35.1686,35.1686,0,0,1,2.6778-5.2861c.75-1.1475,1.9619-2.6641,3.3657-4.42,3.0312-3.7924,8.6216-10.7861,8.0034-13.53a3.626,3.626,0,0,0-2.8091-1.89c-3.9858-.105-9.7319,7.7207-13.53,12.8985-2.7695,3.7754-4.4038,5.9467-5.7885,6.6606l-.4541.2344-.5025-.0918c-12.6513-2.3047-12.8594-23.6006-12.9277-30.5986-.0659-6.8692-2.2051-25.85-6.63-27.8965-.2534-.1162-.9067-.419-2.1929.5722-.6308,1.5381-.0795,8.81.3257,14.1587.8492,11.2056,1.2613,18.7622-.6714,21.5865l-.3906.5708-.688.0737c-3.9648.416-4.6884-3.6694-5.5932-8.8526a75.2255,75.2255,0,0,0-2.9019-12.1074c-.3613-1.0429-.7309-2.5185-1.16-4.2265-1.1435-4.5606-3.2729-13.0494-6.27-13.5655-1.2978-.2207-2.1743-.0805-2.6045.417-1.5918,1.835.5508,8.5117,1.7017,12.0991a42.1118,42.1118,0,0,1,1.2036,4.1661l.29,1.3862c4.0512,19.2939,3.727,21.7749,2.937,22.8755l-.4492.6255H39.4349l-.3521-.1075c-1.9888-.7954-2.8266-3.0273-3.7143-5.3906a20.1374,20.1374,0,0,0-1.8028-3.94,71.439,71.439,0,0,1-5.05-8.8594c-.352-.7305-.75-1.8428-1.2114-3.1309-1.186-3.3134-3.394-9.4809-5.7935-10.0815-.22-.0557-.892-.2231-2.0776.8516-2.2949,2.0893,2.93,13.1728,6.3877,20.5068,4.5366,9.6226,7.0225,15.1968,5.3672,17.8682l-.5762.9306-1.0625-.2656c-2.7407-.6846-9.5088-9.44-10.479-11.2773-.2656-.4947-.5454-1.0523-.8379-1.6363-1.2246-2.4443-2.9013-5.7915-4.8447-6.3125a2.7974,2.7974,0,0,0-2.1641.4488c-2.3447,4.3676,5.4424,14.3418,8.8047,18.6484.5156.66.9761,1.25,1.3555,1.7534,6.6811,8.8325,8.6924,17.4063,10.3086,24.2954,1.1484,4.896,2.1406,9.1245,4.46,12.2769,3.731,5.042,3.9419,5.49,4.5147,9.5864.1343.9624.3022,2.1636.5767,3.75A162.2409,162.2409,0,0,1,43.7005,272.4453Z"/><path class="cls-1" d="M531.1849,230.4873l-30.9785-.0469.0053-1.5029a162.804,162.804,0,0,0-2.41-31.6c-.2813-1.6284-.4537-2.86-.5914-3.8472-.4951-3.5415-.4951-3.5415-3.9575-8.2207-2.686-3.65-3.7426-8.1557-4.9668-13.3725-1.6323-6.958-3.4824-14.8448-9.7812-23.1729-.3721-.4931-.8228-1.07-1.3267-1.7153-4.7837-6.127-12.7905-16.3818-8.7881-22.4072l.169-.2544.2554-.168a5.8824,5.8824,0,0,1,4.8642-1.0117c3.2451.87,5.189,4.7495,6.7505,7.8667.2793.5571.5459,1.0893.8037,1.57a53.4484,53.4484,0,0,0,6.7744,8.2842c-.8481-3.2256-3.5781-9.0161-5.3852-12.85-4.9512-10.503-9.628-20.4234-5.6914-24.0078a5.1506,5.1506,0,0,1,4.8227-1.5411c3.9551.99,6.23,7.3423,7.89,11.981.4321,1.2075.8056,2.2505,1.0932,2.8472a68.6988,68.6988,0,0,0,4.855,8.5136,21.5159,21.5159,0,0,1,2.0015,4.2637c-.4366-3.0635-1.3218-8.0332-3.0093-16.07l-.2949-1.415c-.1744-.8951-.6123-2.2588-1.1187-3.8375-1.6973-5.289-3.81-11.8715-1.1118-14.9814,1.165-1.3442,2.9741-1.8184,5.3769-1.4077,4.9258.8476,7.0044,9.1343,8.6748,15.7925.4112,1.64.7662,3.0556,1.0855,3.9775a77.81,77.81,0,0,1,3.0205,12.5689c.6113,3.5024,1.01,5.4277,1.6343,6.1069.9311-3.32.2641-12.125-.2373-18.74-.772-10.1855-.9624-14.5068.2812-16.2485l.26-.28c2.3818-1.9848,4.3476-1.7212,5.5766-1.1533,7.5079,3.4722,8.3687,30.3218,8.3711,30.59.1617,16.6289,3.4844,25.8906,9.8794,27.5478a48.5071,48.5071,0,0,0,4.3745-5.4975c4.6626-6.3565,10.4732-14.2627,16.0269-14.1231,2.1016.0547,3.9048,1.2061,5.36,3.4224l.1665.3413c1.3134,3.8686-2.8619,9.53-8.4561,16.5283-1.3555,1.6958-2.5264,3.16-3.1958,4.1851a32.3592,32.3592,0,0,0-2.4414,4.8466,31.2661,31.2661,0,0,1-3.1289,5.939c-1.2256,1.7056-2.5542,3.4087-3.8394,5.0557-.9926,1.2729-1.9829,2.542-2.9258,3.8115-.5366.7143-1.04,1.3779-1.5161,2.0063-5.64,7.4366-7.1552,9.4356-7.1181,20.0264Zm-27.97-3.042,24.7836.0371-1.7065-28.2993c-.0435-11.6909,2.0718-14.4805,7.7246-21.9351.4736-.6245.9746-1.2846,1.5034-1.9887.9517-1.2813,1.9566-2.57,2.9639-3.8614,1.2671-1.624,2.5771-3.3037,3.7666-4.9589a28.5167,28.5167,0,0,0,2.8169-5.3892,35.1768,35.1768,0,0,1,2.6782-5.2866c.75-1.147,1.9619-2.6636,3.3657-4.4195,3.0313-3.7924,8.6216-10.7861,8.0035-13.53a3.6263,3.6263,0,0,0-2.8091-1.89c-3.9532-.1006-9.732,7.7207-13.53,12.8985-2.7695,3.7754-4.4038,5.9467-5.7886,6.6606l-.4541.2344-.5024-.0918c-12.6529-2.3052-12.86-23.6006-12.9278-30.5986-.0659-6.8692-2.205-25.85-6.63-27.8965-.2535-.1162-.9058-.418-2.1934.5722-.6309,1.5376-.08,8.81.3257,14.1607.8491,11.2046,1.2612,18.76-.6709,21.5845l-.3906.5708-.688.0737c-3.9634.42-4.689-3.6694-5.5938-8.8535a75.2484,75.2484,0,0,0-2.9013-12.1065c-.3609-1.0429-.731-2.518-1.16-4.2261-1.144-4.5605-3.2734-13.05-6.271-13.5659-1.2964-.2207-2.1729-.0805-2.6045.417-1.5913,1.835.5513,8.5117,1.7022,12.0987a42.1455,42.1455,0,0,1,1.2036,4.1665l.29,1.3862c4.0513,19.2939,3.7271,21.7749,2.937,22.8755l-.4492.6255H498.95l-.352-.1075c-1.9893-.7954-2.8272-3.0278-3.7144-5.3906a20.1606,20.1606,0,0,0-1.8027-3.94,71.4263,71.4263,0,0,1-5.05-8.8594c-.3521-.7305-.75-1.8428-1.2115-3.13-1.186-3.3134-3.3945-9.4814-5.7934-10.082-.2217-.0552-.8911-.2241-2.0776.8516-2.295,2.0893,2.93,13.1733,6.3881,20.5078,4.5362,9.6216,7.0215,15.1958,5.3672,17.8672l-.5766.9306-1.0625-.2656c-2.7408-.6846-9.5088-9.44-10.479-11.2773-.2657-.4947-.5455-1.0523-.8379-1.6363-1.2246-2.4443-2.9014-5.7915-4.8448-6.3125a2.8028,2.8028,0,0,0-2.164.4488c-2.3447,4.3676,5.4424,14.3418,8.8047,18.6484.5156.66.976,1.25,1.3554,1.7534,6.6812,8.8325,8.6924,17.4068,10.3086,24.2959,1.1485,4.896,2.14,9.124,4.46,12.2764,3.7314,5.042,3.9424,5.49,4.5151,9.5869.1343.9624.3018,2.1636.5762,3.75A162.2045,162.2045,0,0,1,503.2147,227.4453Z"/><path class="cls-1" d="M339.89,277.4263l-.3394-1.52c-.8564-3.8369-1.4805-7.9272-2.0835-11.8828a123.6785,123.6785,0,0,0-3.5044-17.393c-2.581-8.4527-6.5132-11.52-13.0273-16.6021l-1.3057-1.02c-9.9438-7.8169-11.4419-9.8008-12.8906-11.7192a23.7364,23.7364,0,0,0-3.9849-4.1812c-.9556-.8408-2.397-1.8994-3.9228-3.02-5.5166-4.0522-12.3819-9.0952-11.9263-14.3359l.0342-.3946.2241-.3261a7.8171,7.8171,0,0,1,5.5166-3.6231c5.5068-.708,11.6147,4.5986,17.0093,9.2754a41.0326,41.0326,0,0,0,5.9878,4.6773c3.3437-1.5406,5.1411-5.6343,5.3442-12.1827a60.8694,60.8694,0,0,0-2.1636-16.561,74.27,74.27,0,0,1-2.1167-13.0581c-.186-1.8706-.3789-3.8052-.6484-5.7954-.5493-4.1372-.9468-9.9531,1.9243-12.7251a5.7954,5.7954,0,0,1,5.2617-1.3643l.7534.127.1753.353c3.9278,2.3716,4.0484,7.52,4.146,11.6865a29.8288,29.8288,0,0,0,.3013,4.3848,51.1168,51.1168,0,0,0,2.1939,7.2788l.43,1.2188a23.9717,23.9717,0,0,1,1.1367,5.2807,18.3687,18.3687,0,0,0,.5586,3.0357,3.3567,3.3567,0,0,0,.896,1.5918,3.7248,3.7248,0,0,0,.2793-1.4659,32.4116,32.4116,0,0,0-.3877-4.0556c-.1718-1.2949-.3491-2.6338-.4082-3.7725-.0131-.2807-.74-27.7817,3.1187-31.1059,2.2959-1.983,4.3608-2.5415,6.1362-1.6636,4.1128,2.0356,3.6958,10.938,3.6348,11.9463-.2129,3.374.2724,17.94,1.0088,25.5273l.0053-.0556a21.7185,21.7185,0,0,1,.7984-4.6412l.4682-1.45a62.5774,62.5774,0,0,0,2.2071-7.95c.0962-.5429.1758-1.5166.2685-2.644.4038-4.9155,1.0137-12.3433,4.751-14.3052,1.0215-.5356,2.7266-.896,5.0459.4385,4.1333,2.3745,2.772,11.918.2232,26.2061-.8306,4.6572-1.8252,10.2319-1.8311,13.042a8.0618,8.0618,0,0,0,.3682-1.1622,14.4989,14.4989,0,0,1,1.0859-2.9668c.4863-.958.9-1.6391,1.2661-2.24a13.68,13.68,0,0,0,1.6948-3.72c.2461-.8306.4541-1.8062.6744-2.8394.9228-4.331,2.1933-10.2651,8.3164-9.5293l.3086.0367.2685.1567c6.7583,3.9385,1.6851,16.064-1.3462,23.3086-.332.7939-.6289,1.5029-.8647,2.1-3.7554,9.4292-4.293,15.1411-4.1294,25.166.1845,13.3745-1.1529,15.5747-2.2281,17.3423-.6723,1.1055-1.2031,1.979-.5454,9.1245.357,3.8618.8252,7.7334,1.2784,11.4775l.3945,3.2827a59.0278,59.0278,0,0,0,1.9145,8.5137c.6661,2.4107,1.355,4.9029,1.8052,7.5059l.2349,1.3564Zm-50.0039-81.0406c.1542,3.522,6.4834,8.1709,10.7211,11.2837,1.6495,1.2115,3.0743,2.2578,4.127,3.1846a26.5084,26.5084,0,0,1,4.3989,4.627c1.3335,1.7656,2.7124,3.5918,12.3491,11.1674l1.2984,1.0147c6.7407,5.2583,11.1933,8.7319,14.0508,18.0893a125.874,125.874,0,0,1,3.601,17.8189c.5391,3.5327,1.0523,6.8965,1.72,10.1582l24.0839-6.33c-.4126-1.9936-.9555-3.9575-1.4834-5.8682a62.1852,62.1852,0,0,1-2.0014-8.9526l-.3946-3.2822c-.4555-3.7652-.9262-7.6582-1.2871-11.562-.7138-7.7554-.1279-9.1543.97-10.959.8286-1.3633,1.9638-3.23,1.791-15.7388-.1665-10.2417.42-16.4736,4.3408-26.3174.2407-.6093.5454-1.3369.8862-2.1513,2.2554-5.3921,6.9019-16.4966,2.857-19.3946-2.69-.1577-3.606,2.0572-4.7032,7.2051-.2329,1.0918-.4526,2.1231-.7363,3.08a16.5477,16.5477,0,0,1-2.0034,4.4116c-.354.5825-.72,1.1846-1.1577,2.0464a11.6378,11.6378,0,0,0-.8643,2.3955c-.4526,1.6509-1.0161,3.7051-4.3437,3.9546l-1.07.0806-.4218-.9868c-.9737-2.2779-.1275-7.3965,1.4511-16.2481,1.44-8.07,3.8492-21.5767,1.2354-23.0781-1.3779-.7935-1.9639-.4839-2.1567-.3833-2.2764,1.1948-2.87,8.4214-3.1553,11.8945-.1026,1.251-.1836,2.24-.3037,2.919a64.8121,64.8121,0,0,1-2.3081,8.3564l-.4654,1.44a19.1553,19.1553,0,0,0-.6684,4.0093c-.2432,2.5557-.4951,5.1983-2.78,6.4165l-.9951.53-.7862-.8086c-2.3559-2.4233-2.4511-31.8022-2.4336-32.08.2251-3.7158-.5288-8.3579-1.9711-9.0718-.5665-.2778-1.6041.1739-2.8462,1.2461-1.8037,1.982-2.4121,21.6084-2.0816,28.6871.0523,1.0112.2217,2.29.3858,3.5258a33.1817,33.1817,0,0,1,.4121,4.5406c-.1509,3.8125-2.208,4.37-2.835,4.4511-1.7588.2256-3.4473-1.2983-4.208-3.7929a20.7683,20.7683,0,0,1-.6645-3.5269,21.2116,21.2116,0,0,0-.9917-4.6689l-.4273-1.2115a53.1468,53.1468,0,0,1-2.3174-7.7417,31.6794,31.6794,0,0,1-.35-4.8545c-.0908-3.8818-.185-7.8955-2.95-9.33a2.5808,2.5808,0,0,0-2.3037.6157c-1.4028,1.354-1.751,4.7754-1.0352,10.1684.2764,2.0381.4717,4,.6607,5.8965A71.9183,71.9183,0,0,0,321.75,175.82c2.8384,10.3184,4.855,28.7915-5.5884,32.5811l-.5195.1884-.5176-.1938c-1.9673-.7358-4.4853-2.9185-7.4-5.4463-4.6748-4.0527-10.4941-9.103-14.6645-8.5659A4.6942,4.6942,0,0,0,289.8856,196.3857Z"/><path class="cls-1" d="M906.3108,230.4307l-37.729-.9981-.0278-1.4321c-.21-10.7168.3638-21.86.919-32.6358,1.0014-19.4326,2.0371-39.5263-1.439-58.1362a16.4659,16.4659,0,0,0-2.4531-4.7309,36.0735,36.0735,0,0,1-5.33-11.4234,143.3913,143.3913,0,0,0-5.649-18.146c-.8544-2.3135-3.4487-5.8471-6.1948-9.5879-5.894-8.0293-12.5747-17.1294-8.5727-22.5542l.1455-.1972.2007-.1407a5.5613,5.5613,0,0,1,4.6147-1.0786c3.1484.774,5.0962,4.5366,6.6616,7.5606.4063.7846.79,1.5254,1.14,2.1035a57.4455,57.4455,0,0,0,6.7661,8.0688A106.9362,106.9362,0,0,0,854.2752,75.2c-6.0234-12.7515-9.6885-21.3721-5.91-24.8726a5.0115,5.0115,0,0,1,4.7447-1.5419c3.7173.9262,5.915,6.4174,8.02,12.4492.39,1.1181.727,2.0835.9853,2.66a54.7378,54.7378,0,0,0,4.1846,7.25l.7407,1.149a19.24,19.24,0,0,1,1.6416,3.75c.1026.2861.209.5835.32.8828-1.149-7.5166-4.47-22.0366-5.6192-25.6758-.0234-.07-2.8476-8.8.7017-12.0029.9746-.8794,2.7837-1.6382,5.8691-.2569,5.1367,2.314,11.2525,28.7544,11.3013,29.0157.2153,1.0937.3877,2.3745.5542,3.6128a41.5136,41.5136,0,0,0,.8032,4.7011,5.94,5.94,0,0,0,.523,1.3975,5.3047,5.3047,0,0,0,.3237-1.1807c.3013-1.77.2012-15.9692-.0557-18.3672a36.8832,36.8832,0,0,0-.73-3.8877c-.9609-4.3213-2.05-9.2187,1.1543-12.4609l.1929-.1953.25-.1143a6.1468,6.1468,0,0,1,5.7554-.1123c3.7158,2.0611,4.5244,8.3184,5.0078,12.0567l.0273.21c.25,1.9229.6055,3.9673.982,6.1319a86.226,86.226,0,0,1,1.5034,11.666c.05,1.6142.0342,3.1528.019,4.64-.0488,4.7583-.09,8.8677,1.9854,13.4414l.0591.13c2.2553,4.9726,4.415,9.0718,8.1982,9.0059a51.0287,51.0287,0,0,0,3.3828-4.4981c4.5533-6.44,10.7989-15.271,16.667-14.85,2.3472.1641,4.294,1.7153,5.7871,4.6108l.1895.3682-.0259.4131c-.2251,3.6006-4.0957,8.4184-7.2061,12.29-.7983.9937-1.5522,1.9322-2.0942,2.6724a51.0283,51.0283,0,0,0-4.8911,8.3677c-.9424,1.9-1.9165,3.8657-3.2607,6.041a75.3077,75.3077,0,0,1-6.7857,9.039c-4.7558,5.6758-8.5122,10.1587-8.9228,19.8765-.4458,10.4356,1.6435,33.33,3.4873,53.5288,1.4033,15.3789,2.6157,28.6607,2.2944,32.4785ZM871.53,226.51l31.9546.8447c-.0054-4.9907-1.1416-17.44-2.3374-30.541-1.8521-20.293-3.9512-43.2935-3.4966-53.9287.4536-10.7359,4.7016-15.8057,9.6206-21.6758a72.8814,72.8814,0,0,0,6.5337-8.6909c1.27-2.0547,2.2124-3.9561,3.124-5.7945a54.1816,54.1816,0,0,1,5.1607-8.811c.5791-.791,1.354-1.7554,2.1738-2.7759,2.4228-3.0161,6.0263-7.501,6.5034-10.21-.936-1.6675-1.959-2.5191-3.1182-2.6-4.1865-.271-10.3374,8.3969-14.0083,13.5888-2.1782,3.0811-3.36,4.7222-4.34,5.439l-.3257.2383-.4009.043c-6.5039.6884-9.6337-6.1739-11.6962-10.7207l-.0586-.1294c-2.3506-5.1788-2.3033-9.81-2.2535-14.7115.0152-1.4575.03-2.9643-.0175-4.518a84.1767,84.1767,0,0,0-1.46-11.2437c-.3823-2.1973-.7436-4.2724-1.0015-6.26l-.0278-.2115c-.3559-2.7563-1.0972-8.4922-3.4873-9.8178-.2744-.1524-1.083-.6006-2.7886.102-1.8222,2.12-.9878,5.8731-.18,9.5059a38.999,38.999,0,0,1,.7846,4.2212c.2491,2.3271.4063,16.9765.0288,19.1919-.6088,3.5332-2.3916,3.9873-3.13,4.0185-.9336.0444-2.647-.4243-3.5733-3.9751a43.3019,43.3019,0,0,1-.8765-5.0679c-.1679-1.249-.3271-2.4292-.5273-3.4482-1.0532-5.6416-6.9331-25.5576-9.585-26.8442-.7236-.3238-2.0336-.79-2.6289-.2525-1.205,1.0869-.9126,5.6524.1431,8.8545.0928.2935,7.648,29.2525,5.76,32.2866l-.7217,1.16-1.2227-.6108c-2.3091-.8472-3.31-3.64-4.1958-6.1089a17.0648,17.0648,0,0,0-1.3442-3.1451l-.7329-1.1367a56.9131,56.9131,0,0,1-4.4048-7.6572c-.3091-.689-.6655-1.71-1.0786-2.8936-1.1231-3.2187-3.4605-9.916-5.9131-10.5268-.2119-.0537-.8521-.2134-1.981.832-2.4477,2.2681,3.2066,14.2383,6.5845,21.39,4.41,9.3354,6.647,14.3237,5.2876,16.8354l-.481.8887-1.0044-.1118c-2.9931-.333-10.0219-9.73-10.7583-10.9414-.4028-.6661-.8085-1.45-1.2382-2.28-1.2188-2.3535-2.8877-5.5772-4.7134-6.0259a2.3607,2.3607,0,0,0-1.9629.479c-2.3335,3.7607,4.0361,12.4375,8.709,18.8027,3,4.086,5.59,7.6143,6.59,10.3233a145.989,145.989,0,0,1,5.7544,18.4956,33.5579,33.5579,0,0,0,4.9395,10.5005c1.3628,2.1372,2.54,3.9824,2.8735,5.7973,3.54,18.9556,2.4961,39.2305,1.4853,58.8374C871.9412,205.7612,871.3963,216.3364,871.53,226.51Z"/><path class="cls-1" d="M818.5,276.6743l-38.4858-.1821.1606-1.6382c1.6182-16.5269,4.7944-65.2192.72-75.916-1.7129-4.5322-5.6172-9.062-9.393-13.4429-3.2813-3.8071-6.6744-7.7441-8.8145-11.8452a88.88,88.88,0,0,0-10.1235-14.6016c-4.6133-5.7275-7.9458-9.8657-5.9414-13.3027l.22-.29a7.2333,7.2333,0,0,1,5.7358-2.4473c5.5259.3286,10.7036,7.1059,15.272,13.0859,2.0015,2.62,4.0649,5.32,5.4,6.2935,3.5933-1.0132,5.8311-5.7969,7.3921-9.9195,1.604-4.2661,1.2812-9.6025.97-14.7636-.07-1.1636-.14-2.3106-.185-3.4258-.01-.2651-.6822-26.2949,6.5444-29.9507,1.2212-.6186,3.207-.9307,5.7407,1.0874l-.3735.4693.4575-.3985-.6167.7188.7446-.5738c1.3267,1.7227,1.3955,6.562,1.2373,17.1944-.102,6.8838-.2426,16.31.9444,18.0405.4311-1.0747.9438-3.6587,1.3715-9.5249.0591-.8086.106-1.415.146-1.6963a71.9647,71.9647,0,0,1,1.8487-7.81c.5678-2.0581,1.1557-4.1865,1.561-6.2309l.15-.7793c.84-4.3789,2.2456-11.708,7.0723-12.6436,2.4614-.4663,4.3335-.0224,5.5727,1.32,2.6543,2.8765,1.0474,8.7266.1841,11.8692a217.4266,217.4266,0,0,0-3.772,24.581l.0288-.1a17.2631,17.2631,0,0,1,1.42-3.792,80.8631,80.8631,0,0,0,5.6762-12.6694c2.4473-6.4614,4.2159-11.13,7.834-11.2993l.2066-.0093.2021.0464a6.9926,6.9926,0,0,1,5.0225,3.5552c1.976,3.9594-.5791,9.7226-2.6324,14.353-.5585,1.26-1.0864,2.45-1.4458,3.4355-.1606.438-.4043,1.0762-.7045,1.8623a131.5758,131.5758,0,0,0-5.0562,14.962,53.51,53.51,0,0,0,5.9336-7.8409c.248-.5219.5-1.1005.7607-1.7011,1.3775-3.1665,2.9385-6.7554,6.0191-7.7456a6.2187,6.2187,0,0,1,5.1943.8842l.3189.191.1933.3173c3.8262,6.2862-2.5771,15.1831-7.7226,22.3326a52.1005,52.1005,0,0,0-4.6861,7.1982c-1.75,3.9067-2.8491,9.2329-3.9116,14.3838-1.4643,7.0977-2.8472,13.8013-5.8955,17.8823-6.2729,8.3911-3.1816,33.2017-.6973,53.1372,1.3228,10.6182,2.4659,19.7886,2.2525,25.8833Zm-35.1851-3.1665,32.2608.1528c-.0054-5.9057-1.1006-14.6928-2.2544-23.9536-2.6836-21.5356-5.7251-45.9453,1.2715-55.3032,2.6479-3.5459,4.0268-10.23,5.36-16.6929,1.0952-5.3086,2.2276-10.7983,4.1143-15.0107a52.52,52.52,0,0,1,4.9863-7.7178c4.5225-6.2837,10.125-14.0683,7.773-18.7012a3.1048,3.1048,0,0,0-2.4034-.4155c-1.789.5752-3.1186,3.6314-4.1865,6.0864-.2749.6324-.5405,1.2417-.8042,1.7969-.8135,1.6958-7.3921,10.68-9.8608,11.3306l-1.0254.27-.5967-.8769c-1.09-1.6031-.6011-5.2979,5.0957-20.2081.294-.77.5332-1.3955.6895-1.8217.3925-1.0777.94-2.3135,1.5205-3.6216,1.7031-3.8408,4.0356-9.1016,2.6909-11.7974a3.9657,3.9657,0,0,0-2.771-1.9116c-1.6094.3784-3.41,5.1318-5.0044,9.3418a83.26,83.26,0,0,1-5.8955,13.1274,15.3493,15.3493,0,0,0-1.125,3.1075c-.7178,2.4736-1.46,5.0312-3.6587,5.9409l-1.0674.4414-.6992-.919c-2.2866-3.0039,3.0713-30.395,3.394-31.5742.5552-2.0215,2.0293-7.3882.5039-9.041-.49-.5322-1.4335-.6694-2.8022-.4087-2.8281.5484-4.0864,7.1094-4.6909,10.2622l-.1543.7969c-.4273,2.1538-1.0293,4.3359-1.6123,6.4468a68.7307,68.7307,0,0,0-1.7735,7.4565c-.0322.2261-.0688.7588-.1206,1.4693-.6572,9.0092-1.5483,12.0849-3.6674,12.6577-.7832.2109-1.9683.0986-3.1656-1.6475-1.6147-2.3384-1.6347-9.0361-1.4746-19.7886.0855-5.75.2017-13.561-.55-15.1963-1.4-1.0278-2.061-.6933-2.2856-.58-3.83,1.938-5.2271,18.708-4.9014,27.1548.0449,1.0922.1128,2.22.1821,3.3642.3306,5.4746.6724,11.1353-1.1572,16.0034-1.2339,3.2569-4.1191,10.876-10.2036,11.9341l-.4834.084-.44-.2183c-1.9219-.9531-4.1-3.8032-6.856-7.4116-3.7612-4.9233-8.9121-11.6655-13.0664-11.9126a4.2193,4.2193,0,0,0-3.2549,1.3921c-.7217,1.73,2.4268,5.6387,5.7549,9.771a91.3318,91.3318,0,0,1,10.4487,15.0986c1.9776,3.7906,5.2554,7.5938,8.4253,11.2715,3.9458,4.5781,8.0264,9.312,9.9258,14.3369C788.115,209.4644,784.67,258.6577,783.3152,273.5078Zm37.188-120.5825Zm-10.2881-8.415v0Zm-13.6884-3.148Z"/><path class="cls-1" d="M1092.3616,225.6743l-38.4858-.1821.1606-1.6382c1.6187-16.5259,4.7959-65.2168.72-75.916-1.7129-4.5322-5.6172-9.062-9.3926-13.4429-3.2813-3.8071-6.6743-7.7441-8.8145-11.8452a88.88,88.88,0,0,0-10.1235-14.6016c-4.6133-5.7275-7.9458-9.8657-5.9414-13.3027l.22-.2895a7.2285,7.2285,0,0,1,5.7354-2.4473c5.5258.3286,10.7036,7.1059,15.2714,13.0854,2.002,2.62,4.0655,5.3208,5.4009,6.294,3.5938-1.0137,5.8311-5.7969,7.3916-9.9195,1.604-4.2661,1.2813-9.6025.97-14.7636-.07-1.1636-.14-2.3106-.185-3.4258-.01-.2651-.68-26.2964,6.5454-29.9507,1.2212-.6177,3.208-.9287,5.74,1.0874l-.3735.4693.4575-.3985-.6167.7188.7446-.5738c1.3267,1.7227,1.3956,6.562,1.2373,17.1944-.102,6.8838-.2426,16.31.9444,18.04.4311-1.0747.9438-3.6587,1.3716-9.5249.059-.8086.1059-1.415.146-1.6963a71.84,71.84,0,0,1,1.8481-7.8091c.5684-2.0581,1.1558-4.1865,1.561-6.2314l.1514-.7818c.84-4.3779,2.2461-11.7055,7.0718-12.6411,2.4609-.4682,4.334-.0224,5.5727,1.32,2.6548,2.8775,1.0474,8.7266.1836,11.8692a217.6829,217.6829,0,0,0-3.7715,24.5805l.0289-.1a17.2536,17.2536,0,0,1,1.42-3.7915,80.8791,80.8791,0,0,0,5.6762-12.67c2.4473-6.4614,4.2154-11.13,7.8335-11.2988l.2066-.0093.2021.0464a6.9923,6.9923,0,0,1,5.023,3.5552c1.9756,3.96-.58,9.7226-2.6323,14.353-.5591,1.26-1.0865,2.45-1.4458,3.4355-.1607.4385-.4043,1.0767-.7046,1.8628a131.6251,131.6251,0,0,0-5.0562,14.961,53.58,53.58,0,0,0,5.9341-7.8408c.2471-.521.4985-1.1.7593-1.6993,1.3774-3.167,2.9389-6.7563,6.02-7.747a6.2219,6.2219,0,0,1,5.1938.8847l.3189.1905.1934.3173c3.8266,6.2857-2.5767,15.1827-7.7222,22.3321a52.16,52.16,0,0,0-4.6861,7.1982c-1.75,3.9072-2.8491,9.2344-3.9121,14.3853-1.4638,7.0971-2.8466,13.8-5.895,17.8813-6.2734,8.3911-3.1821,33.2017-.6977,53.1377,1.3227,10.6182,2.4658,19.7881,2.2524,25.8828Zm-35.185-3.1665,32.2607.1528c-.0054-5.9057-1.1006-14.6928-2.2544-23.9526-2.6836-21.5366-5.7251-45.9463,1.272-55.3047,2.6479-3.5454,4.0264-10.2285,5.36-16.6914,1.0952-5.3091,2.2275-10.7993,4.1147-15.0117a52.4293,52.4293,0,0,1,4.9868-7.7183c4.522-6.2832,10.1245-14.0678,7.772-18.7007a3.0992,3.0992,0,0,0-2.4033-.4155c-1.7891.5752-3.1187,3.6319-4.187,6.0879-.2745.6314-.54,1.24-.8033,1.7949-.8144,1.6968-7.394,10.6817-9.8613,11.3311l-1.0259.27-.5962-.8774c-1.09-1.6026-.6006-5.2979,5.0957-20.2071.2945-.77.5337-1.396.69-1.8222.3926-1.0777.94-2.313,1.5205-3.6211,1.7031-3.8413,4.0356-9.1021,2.69-11.7979a3.9649,3.9649,0,0,0-2.771-1.9116c-1.6094.3784-3.41,5.1314-5.0039,9.3413a83.2192,83.2192,0,0,1-5.8955,13.1279,15.3493,15.3493,0,0,0-1.125,3.1075c-.7183,2.4736-1.46,5.0312-3.6592,5.9409l-1.0674.4414-.7-.9194c-2.2846-3.0025,3.0718-30.3946,3.3946-31.5738.5556-2.0215,2.03-7.3877.5044-9.041-.4893-.5312-1.4346-.6694-2.8023-.4087-2.8276.5479-4.0864,7.1079-4.6909,10.26l-.1548.7988c-.4267,2.1538-1.0293,4.3364-1.6123,6.4473a68.8294,68.8294,0,0,0-1.7729,7.4555c-.0323.2266-.0689.7593-.1206,1.47-.6573,9.0092-1.5484,12.0849-3.6675,12.6577-.7832.2124-1.9683.0986-3.1656-1.6475-1.6147-2.3384-1.6347-9.0361-1.4746-19.7886.0855-5.75.2017-13.561-.55-15.1963-1.4-1.0278-2.061-.6933-2.2856-.58-3.8286,1.9365-5.2266,18.7075-4.9019,27.1548.045,1.0922.1128,2.22.1822,3.3642.3305,5.4746.6723,11.1353-1.1573,16.0034-1.2334,3.2569-4.1176,10.8755-10.2031,11.9341l-.4834.084-.44-.2183c-1.9219-.9531-4.1-3.8037-6.857-7.4121-3.7607-4.9228-8.9116-11.665-13.0654-11.9121a4.21,4.21,0,0,0-3.2549,1.3921c-.7216,1.73,2.4268,5.6387,5.7549,9.771a91.3318,91.3318,0,0,1,10.4487,15.0986c1.9776,3.7906,5.2554,7.5938,8.4253,11.2715,3.9458,4.5781,8.0259,9.312,9.9253,14.3369C1061.9778,158.4668,1058.532,207.6582,1057.1766,222.5078Zm37.188-120.582v0ZM1084.0765,93.51Zm-13.688-3.148Z"/><path class="cls-1" d="M1278.0145,244.6743l-38.4859-.1821.1607-1.6382c1.6186-16.5259,4.7959-65.2168.72-75.916-1.7129-4.5322-5.6172-9.062-9.3926-13.4429-3.2812-3.8071-6.6743-7.7441-8.8144-11.8452a88.8744,88.8744,0,0,0-10.1236-14.6016c-4.6133-5.7275-7.9458-9.8657-5.9414-13.3027l.22-.2895a7.2254,7.2254,0,0,1,5.7354-2.4473c5.5259.3286,10.7036,7.1059,15.2715,13.0854,2.0019,2.62,4.0654,5.3208,5.4008,6.294,3.5938-1.0137,5.8311-5.7969,7.3916-9.92,1.6041-4.2661,1.2813-9.6025.97-14.7636-.07-1.1636-.14-2.3106-.1851-3.4258-.01-.2651-.68-26.2964,6.5454-29.9507,1.2212-.6177,3.208-.9292,5.74,1.0874l-.3736.4693.4575-.3985-.6167.7188.7447-.5738c1.3266,1.7227,1.3955,6.562,1.2373,17.1944-.1021,6.8838-.2427,16.31.9443,18.04.4312-1.0747.9439-3.6587,1.3716-9.5249.0591-.8086.106-1.415.146-1.6963a71.9869,71.9869,0,0,1,1.8486-7.811c.5684-2.0576,1.1558-4.1856,1.5611-6.23l.15-.7793c.84-4.3789,2.2456-11.708,7.0722-12.6436,2.4605-.4677,4.3335-.0224,5.5728,1.32,2.6548,2.8775,1.0473,8.7266.1836,11.8692a217.637,217.637,0,0,0-3.7715,24.5805l.0288-.1a17.2587,17.2587,0,0,1,1.42-3.7915,80.88,80.88,0,0,0,5.6763-12.67c2.4472-6.4614,4.2153-11.13,7.8335-11.2988l.2065-.0093.2022.0464a6.9921,6.9921,0,0,1,5.0229,3.5552c1.9756,3.96-.58,9.7226-2.6323,14.353-.5591,1.26-1.0864,2.45-1.4458,3.4355-.1607.4385-.4043,1.0767-.7046,1.8628a131.6164,131.6164,0,0,0-5.0561,14.961,53.5781,53.5781,0,0,0,5.934-7.8408c.2471-.521.4986-1.1.7593-1.6993,1.3775-3.167,2.939-6.7563,6.02-7.747a6.218,6.218,0,0,1,5.1939.8847l.3188.1905.1934.3173c3.8266,6.2862-2.5772,15.1836-7.7222,22.3326a52.1377,52.1377,0,0,0-4.686,7.1982c-1.7505,3.9067-2.8491,9.2339-3.9121,14.3848-1.4639,7.0971-2.8467,13.8-5.895,17.8813-6.2735,8.3911-3.1822,33.2017-.6978,53.1377,1.3228,10.6182,2.4658,19.7881,2.2524,25.8828Zm-35.1851-3.1665,32.2607.1528c-.0053-5.9057-1.1-14.6928-2.2544-23.9526-2.6835-21.5366-5.7251-45.9463,1.272-55.3047,2.648-3.5454,4.0264-10.2285,5.36-16.6914,1.0952-5.3091,2.2275-10.7993,4.1147-15.0117a52.4806,52.4806,0,0,1,4.9864-7.7178c4.5224-6.2832,10.125-14.0683,7.7724-18.7012a3.1,3.1,0,0,0-2.4033-.4155c-1.7891.5752-3.1187,3.6319-4.187,6.0879-.2744.6314-.54,1.24-.8032,1.7949-.8145,1.6968-7.3941,10.6817-9.8614,11.3311l-1.0258.27-.5962-.8774c-1.09-1.6026-.6006-5.2979,5.0957-20.2071.2944-.77.5337-1.396.69-1.8222.3926-1.0777.94-2.313,1.52-3.6211,1.7031-3.8413,4.0357-9.1021,2.69-11.7979a3.9649,3.9649,0,0,0-2.7709-1.9116c-1.6094.3784-3.41,5.1314-5.004,9.3413a83.21,83.21,0,0,1-5.8955,13.1279,15.3493,15.3493,0,0,0-1.125,3.1075c-.7182,2.4736-1.46,5.0312-3.6591,5.9409l-1.0674.4414-.7-.9194c-2.2847-3.0025,3.0717-30.3946,3.3945-31.5738.5557-2.0215,2.03-7.3877.5044-9.041-.49-.5322-1.4336-.6694-2.8023-.4087-2.8281.5484-4.0864,7.1094-4.6909,10.2622l-.1543.7969c-.4267,2.1533-1.0293,4.335-1.6118,6.4453a68.6894,68.6894,0,0,0-1.7739,7.4575c-.0322.2266-.0689.7593-.1206,1.47-.6572,9.0092-1.5484,12.0849-3.6675,12.6577-.7827.2124-1.9687.0986-3.1655-1.6475-1.6148-2.3384-1.6348-9.0361-1.4746-19.7886.0854-5.75.2016-13.561-.55-15.1963-1.4-1.0278-2.0611-.6938-2.2857-.58-3.8286,1.9365-5.2265,18.7075-4.9018,27.1548.0449,1.0922.1128,2.22.1821,3.3642.3306,5.4746.6724,11.1353-1.1572,16.0034-1.2334,3.2569-4.1177,10.8755-10.2031,11.9341l-.4834.084-.44-.2183c-1.9219-.9531-4.1-3.8037-6.8569-7.4121-3.7608-4.9228-8.9116-11.665-13.0655-11.9121a4.2038,4.2038,0,0,0-3.2548,1.3921c-.7217,1.73,2.4267,5.6387,5.7548,9.771a91.3259,91.3259,0,0,1,10.4488,15.0986c1.9775,3.7906,5.2554,7.5938,8.4253,11.2715,3.9458,4.5781,8.0259,9.312,9.9253,14.3369C1247.6307,177.4668,1244.1849,226.6582,1242.8294,241.5078Zm37.188-120.582v0Zm-10.2881-8.4155Zm-13.688-3.148Z"/><path class="cls-1" d="M716.8377,275.4873l-30.9785-.0469.0054-1.5029a162.8121,162.8121,0,0,0-2.41-31.6c-.2813-1.6284-.4536-2.86-.5913-3.8472-.4951-3.5415-.4951-3.5415-3.9575-8.2207-2.6861-3.65-3.7427-8.1557-4.9668-13.3725-1.6324-6.958-3.4825-14.8448-9.7813-23.1729-.3721-.4931-.8227-1.07-1.3266-1.7153-4.7837-6.127-12.7906-16.3818-8.7881-22.4072l.1689-.2544.2554-.168a5.88,5.88,0,0,1,4.8642-1.0117c3.2452.87,5.189,4.75,6.75,7.8667.2793.5571.5459,1.0893.8037,1.57a53.4557,53.4557,0,0,0,6.7745,8.2842c-.8482-3.2256-3.5782-9.0161-5.3853-12.85-4.9512-10.503-9.6279-20.4234-5.6914-24.0078a5.1515,5.1515,0,0,1,4.8227-1.5411c3.9551.99,6.2295,7.3423,7.89,11.981.4321,1.2075.8056,2.2505,1.0932,2.8472a68.6988,68.6988,0,0,0,4.855,8.5136,21.4983,21.4983,0,0,1,2.001,4.2632c-.436-3.0635-1.3213-8.0327-3.0088-16.0693l-.2949-1.415c-.1743-.8951-.6123-2.2588-1.1187-3.8375-1.6972-5.289-3.8095-11.8715-1.1118-14.9814,1.1651-1.3433,2.9741-1.8184,5.377-1.4077,4.9258.8476,7.0044,9.1343,8.6748,15.7925.4111,1.64.7661,3.0556,1.0854,3.9775a77.7648,77.7648,0,0,1,3.021,12.57c.6114,3.502,1.01,5.4268,1.6338,6.1055.9312-3.32.2642-12.1245-.2373-18.7393-.772-10.1855-.9624-14.5068.2813-16.2485l.26-.28c2.3819-1.9848,4.3477-1.7216,5.5767-1.1533,7.5078,3.4722,8.3686,30.3218,8.3711,30.59.1616,16.6289,3.4843,25.8906,9.8794,27.5478a48.53,48.53,0,0,0,4.3745-5.4975c4.6621-6.3565,10.4409-14.3028,16.0268-14.1231,2.1016.0547,3.9048,1.2061,5.36,3.4224l.1665.3413c1.3135,3.8686-2.8618,9.53-8.4561,16.5283-1.3554,1.6958-2.5263,3.16-3.1958,4.1851a32.3687,32.3687,0,0,0-2.4414,4.8466,31.26,31.26,0,0,1-3.1289,5.939c-1.2256,1.7056-2.5542,3.4087-3.8393,5.0557-.9927,1.2729-1.9829,2.542-2.9258,3.8115-.5366.7143-1.04,1.3779-1.5161,2.0063-5.64,7.4366-7.1553,9.4356-7.1182,20.0264Zm-27.97-3.042,24.7837.0371-1.7066-28.2993c-.0434-11.6909,2.0718-14.4805,7.7246-21.9351.4737-.6245.9747-1.2846,1.5035-1.9887.9516-1.2813,1.9565-2.57,2.9638-3.8614,1.2671-1.624,2.5772-3.3037,3.7666-4.9589A28.5167,28.5167,0,0,0,730.72,206.05a35.1862,35.1862,0,0,1,2.6782-5.2866c.75-1.147,1.962-2.6636,3.3658-4.4195,3.0312-3.7924,8.6216-10.7861,8.0034-13.53a3.6262,3.6262,0,0,0-2.8091-1.89c-3.9722-.105-9.7319,7.7207-13.53,12.8985-2.7695,3.7754-4.4038,5.9467-5.7886,6.6606l-.4541.2344-.5024-.0918c-12.6528-2.3052-12.86-23.6006-12.9277-30.5986-.0659-6.8692-2.2051-25.85-6.63-27.8965-.2534-.1162-.9058-.419-2.1934.5722-.6308,1.5376-.08,8.81.3257,14.1607.8491,11.2046,1.2613,18.76-.6709,21.5845l-.3906.5708-.688.0737c-3.9643.4136-4.6885-3.6694-5.5937-8.8526a75.164,75.164,0,0,0-2.9014-12.1074c-.3608-1.0429-.731-2.518-1.16-4.2261-1.144-4.5605-3.2734-13.05-6.271-13.5659-1.2959-.22-2.1728-.081-2.6045.417-1.5913,1.835.5513,8.5117,1.7022,12.0987a42.1455,42.1455,0,0,1,1.2036,4.1665l.2895,1.3862c4.0513,19.2939,3.7271,21.7749,2.9371,22.8755l-.4493.6255h-1.0586l-.352-.1075c-1.9888-.7954-2.8267-3.0273-3.7144-5.3906a20.1314,20.1314,0,0,0-1.8027-3.94,71.439,71.439,0,0,1-5.05-8.8594c-.352-.7305-.75-1.8428-1.2114-3.13-1.1861-3.3134-3.3946-9.4814-5.7935-10.082-.2226-.0562-.8916-.2236-2.0776.8516-2.2949,2.0893,2.93,13.1733,6.3882,20.5078,4.5361,9.6216,7.0215,15.1958,5.3672,17.8672l-.5767.9306-1.0625-.2656c-2.7407-.6846-9.5088-9.44-10.479-11.2773-.2656-.4947-.5454-1.0523-.8379-1.6363-1.2246-2.4443-2.9014-5.7915-4.8447-6.3125a2.7967,2.7967,0,0,0-2.1641.4488c-2.3447,4.3676,5.4424,14.3418,8.8047,18.6484.5156.66.9761,1.25,1.3555,1.7534,6.6811,8.8325,8.6924,17.4068,10.3086,24.2959,1.1484,4.896,2.14,9.124,4.4594,12.2764,3.7315,5.042,3.9424,5.49,4.5152,9.5869.1342.9624.3017,2.1636.5761,3.75A162.1962,162.1962,0,0,1,688.8675,272.4453Z"/><path class="cls-1" d="M1176.3523,230.4873l-30.9785-.0469.0054-1.5029a162.7964,162.7964,0,0,0-2.41-31.6c-.2812-1.6284-.4536-2.86-.5913-3.8472-.4951-3.5415-.4951-3.5415-3.9575-8.2207-2.686-3.65-3.7427-8.1557-4.9668-13.3725-1.6323-6.958-3.4824-14.8448-9.7812-23.1729-.3716-.4927-.8218-1.0688-1.3252-1.7134-4.7847-6.1274-12.7925-16.3833-8.79-22.4091l.169-.2544.2553-.168a5.883,5.883,0,0,1,4.8643-1.0117c3.2451.87,5.189,4.7495,6.7505,7.8667.2793.5571.5459,1.0893.8037,1.57a53.4028,53.4028,0,0,0,6.7749,8.2842c-.8481-3.2251-3.5781-9.0161-5.3853-12.85-4.9516-10.503-9.6284-20.4234-5.6914-24.0078a5.15,5.15,0,0,1,4.8228-1.5411c3.9551.99,6.2295,7.3423,7.89,11.981.4322,1.2075.8057,2.2505,1.0933,2.8472a68.6988,68.6988,0,0,0,4.855,8.5136,21.64,21.64,0,0,1,2.0127,4.2935c-.4444-3.1152-1.3467-8.1265-3.0181-16.0879l-.2978-1.4272c-.1739-.8946-.6119-2.2583-1.1182-3.837-1.6973-5.289-3.81-11.8715-1.1118-14.9814,1.165-1.3442,2.9741-1.8184,5.3769-1.4077,4.9258.8476,7.0044,9.1343,8.6748,15.7925.4112,1.64.7661,3.0556,1.0855,3.9775a77.8209,77.8209,0,0,1,3.0205,12.5689c.6113,3.5024,1.01,5.4277,1.6343,6.1069.9311-3.32.2636-12.1255-.2373-18.7407-.772-10.1851-.9629-14.5059.2807-16.2476l.26-.28c2.38-1.9843,4.3471-1.7221,5.5771-1.1533,7.51,3.4741,8.3682,30.3218,8.3706,30.59.1626,16.629,3.4854,25.89,9.88,27.5469a48.4577,48.4577,0,0,0,4.3745-5.497c4.6626-6.3565,10.4658-14.2627,16.0269-14.1231,2.1015.0547,3.9048,1.2061,5.36,3.4224l.1665.3413c1.3135,3.8686-2.8618,9.53-8.456,16.5283-1.3555,1.6958-2.5264,3.16-3.1958,4.1851a32.3592,32.3592,0,0,0-2.4414,4.8466,31.2661,31.2661,0,0,1-3.1289,5.939c-1.2266,1.707-2.5562,3.4116-3.8428,5.06-.9917,1.2714-1.981,2.54-2.9229,3.8071-.5366.7143-1.04,1.3784-1.5161,2.0063-5.6391,7.4366-7.1548,9.4356-7.1176,20.0264Zm-27.97-3.042,24.7837.0371-1.7065-28.2993c-.0435-11.6909,2.0718-14.48,7.7241-21.9346.4736-.6245.9741-1.2851,1.5034-1.9892.9512-1.28,1.9546-2.5669,2.961-3.857,1.2685-1.6254,2.58-3.3066,3.77-4.9633a28.5167,28.5167,0,0,0,2.8169-5.3892,35.1768,35.1768,0,0,1,2.6782-5.2866c.75-1.147,1.9619-2.6636,3.3657-4.4195,3.0313-3.7924,8.6216-10.7861,8.0034-13.53a3.626,3.626,0,0,0-2.809-1.89c-.0259,0-.0523-.0009-.0787-.0009-3.99,0-9.6782,7.7558-13.4511,12.8994-2.77,3.7754-4.4038,5.9467-5.7886,6.6606l-.4541.2344-.5024-.0918c-12.6519-2.3052-12.86-23.6006-12.9283-30.5986-.0654-6.8687-2.2031-25.8487-6.63-27.8965-.2529-.1162-.9062-.419-2.1933.5722-.6309,1.5381-.08,8.81.3257,14.1592.8491,11.2056,1.2617,18.7617-.6709,21.586l-.3907.5708-.6879.0737c-3.9644.42-4.689-3.6694-5.5938-8.8535a75.25,75.25,0,0,0-2.9014-12.1065c-.3608-1.0429-.7309-2.518-1.16-4.2261-1.1441-4.5605-3.2735-13.05-6.271-13.5659-1.2969-.2207-2.1729-.0805-2.6045.417-1.5913,1.835.5513,8.5117,1.7021,12.0987a42.09,42.09,0,0,1,1.2036,4.1665l.292,1.3979c4.0479,19.2842,3.7237,21.7637,2.9341,22.8638l-.4492.6255h-1.0586l-.3516-.1075c-1.9892-.7954-2.8271-3.0278-3.7143-5.3906a20.1606,20.1606,0,0,0-1.8027-3.94,71.4136,71.4136,0,0,1-5.05-8.8594c-.3521-.7305-.75-1.8428-1.2115-3.13-1.186-3.3134-3.3945-9.4814-5.7934-10.082-.2232-.0552-.8916-.2241-2.0777.8516-2.2949,2.09,2.93,13.1733,6.3882,20.5078,4.5357,9.622,7.0215,15.1958,5.3672,17.8672l-.5767.9306-1.0625-.2656c-2.7407-.6846-9.5092-9.44-10.4794-11.2773-.2657-.4947-.5455-1.0523-.8379-1.6363-1.2246-2.4443-2.9014-5.7915-4.8448-6.3125a2.8054,2.8054,0,0,0-2.164.4483c-2.3448,4.3686,5.4433,14.3437,8.8066,18.6509.5147.6591.9751,1.249,1.354,1.7514,6.6812,8.8325,8.6924,17.4068,10.3086,24.2959,1.1484,4.896,2.14,9.124,4.4595,12.2764,3.7314,5.042,3.9424,5.49,4.5151,9.5869.1343.9624.3018,2.1636.5762,3.75A162.1959,162.1959,0,0,1,1148.3821,227.4453Z"/><path class="cls-1" d="M985.0569,277.4263l-.3393-1.52c-.8565-3.8364-1.48-7.9262-2.0835-11.8813a123.6431,123.6431,0,0,0-3.5049-17.3945c-2.5806-8.4532-6.5132-11.52-13.0278-16.6026l-1.3052-1.02c-9.9439-7.8169-11.4419-9.8008-12.8906-11.7192a23.7248,23.7248,0,0,0-3.9844-4.1812c-.9556-.8408-2.397-1.8994-3.9229-3.02-5.5166-4.0522-12.3818-9.0952-11.9262-14.3359l.0342-.3946.2241-.3261a7.8169,7.8169,0,0,1,5.5166-3.6231c5.5029-.7051,11.6152,4.5986,17.0093,9.2754a41.0328,41.0328,0,0,0,5.9877,4.6773c3.3438-1.5406,5.1412-5.6343,5.3443-12.1827a60.8683,60.8683,0,0,0-2.1641-16.561,74.27,74.27,0,0,1-2.1167-13.0581c-.186-1.8706-.3789-3.8052-.6484-5.7954-.5488-4.1377-.9458-9.9546,1.9248-12.7256a5.7918,5.7918,0,0,1,5.2612-1.3638l.749.1265.1768.3511c3.9307,2.3706,4.0518,7.521,4.1494,11.688a29.7592,29.7592,0,0,0,.3013,4.3857,51.116,51.116,0,0,0,2.1938,7.2788l.43,1.2188a23.9717,23.9717,0,0,1,1.1367,5.2807,18.3687,18.3687,0,0,0,.5586,3.0357,3.3567,3.3567,0,0,0,.896,1.5918,3.7248,3.7248,0,0,0,.2793-1.4659,32.586,32.586,0,0,0-.3877-4.0542c-.1719-1.2954-.3491-2.6347-.4082-3.7739-.0132-.2807-.74-27.7817,3.1187-31.1059,2.2959-1.983,4.3618-2.5415,6.1367-1.6631,4.1133,2.0356,3.6953,10.9375,3.6338,11.9458-.2129,3.374.2724,17.9394,1.0093,25.5273l.0053-.0556a21.7123,21.7123,0,0,1,.7984-4.6412l.4682-1.45a62.5774,62.5774,0,0,0,2.2071-7.95c.0962-.5429.1757-1.5166.2685-2.644.4038-4.9155,1.0137-12.3433,4.751-14.3052,1.0215-.5356,2.7266-.896,5.0459.4385,4.1333,2.3745,2.772,11.918.2231,26.2061-.83,4.6572-1.8252,10.2314-1.831,13.042a8.0644,8.0644,0,0,0,.3681-1.1622,14.4706,14.4706,0,0,1,1.0855-2.9668c.4863-.9575.9-1.6381,1.2656-2.2392a13.6691,13.6691,0,0,0,1.6953-3.72c.2461-.8311.4541-1.8072.6748-2.8408.9234-4.3311,2.1934-10.2671,8.3164-9.5284l.3086.0367.2686.1567c6.7588,3.939,1.6846,16.0649-1.3472,23.31-.3315.793-.6284,1.5015-.8642,2.0982-3.7549,9.4287-4.2925,15.1406-4.1294,25.166.185,13.3745-1.1529,15.5747-2.2276,17.3423-.6723,1.1055-1.2036,1.979-.5454,9.1245.357,3.8618.8252,7.7334,1.2783,11.4775l.3946,3.2827a59.0278,59.0278,0,0,0,1.9145,8.5137c.666,2.4107,1.355,4.9029,1.8052,7.5059l.2349,1.3564ZM935.053,196.3857c.1543,3.522,6.4839,8.1709,10.7212,11.2837,1.6494,1.2115,3.0742,2.2578,4.127,3.1846a26.5266,26.5266,0,0,1,4.3989,4.627c1.3335,1.7661,2.7119,3.5918,12.3491,11.1674l1.2974,1.0137c6.7412,5.2588,11.1943,8.7329,14.0513,18.09a125.9043,125.9043,0,0,1,3.602,17.82c.5386,3.5327,1.0518,6.896,1.72,10.1572l24.084-6.33c-.4126-1.9936-.9555-3.9575-1.4834-5.8682a62.1718,62.1718,0,0,1-2.0014-8.9526l-.3946-3.2822c-.4555-3.7652-.9262-7.6582-1.2871-11.562-.7143-7.7554-.1279-9.1543.9693-10.959.8291-1.3633,1.9643-3.23,1.791-15.7383-.166-10.2427.4209-16.4741,4.3408-26.3179.2407-.6088.5449-1.3359.8852-2.15,2.2564-5.3921,6.9039-16.4975,2.8584-19.396-2.687-.1577-3.6059,2.0572-4.7036,7.2046-.2324,1.0918-.4526,2.1236-.7363,3.0806a16.5439,16.5439,0,0,1-2.0039,4.4131c-.354.582-.72,1.1841-1.1572,2.0449a11.6048,11.6048,0,0,0-.8638,2.3955c-.4526,1.6509-1.0156,3.7051-4.3438,3.9546l-1.07.0806-.4219-.9868c-.9736-2.2779-.1274-7.3965,1.4512-16.2481,1.44-8.07,3.8491-21.5767,1.2354-23.0781-1.3784-.7935-1.9639-.4839-2.1568-.3833-2.2763,1.1948-2.87,8.4214-3.1552,11.8945-.1026,1.251-.1836,2.24-.3038,2.919a64.78,64.78,0,0,1-2.3081,8.3564l-.4653,1.44a19.1608,19.1608,0,0,0-.6684,4.0093c-.2437,2.5557-.4957,5.1983-2.7793,6.4165l-.9956.5308-.7862-.8091c-2.3564-2.4238-2.4516-31.8022-2.4341-32.08.2256-3.7158-.5283-8.3579-1.9707-9.0718-.5654-.2778-1.604.1729-2.8462,1.2461-1.8037,1.982-2.4121,21.6084-2.0815,28.6871.0522,1.0117.2217,2.29.3857,3.5273a33.237,33.237,0,0,1,.4122,4.5386c-.1509,3.813-2.2081,4.3706-2.835,4.4516-1.76.2256-3.4473-1.2983-4.208-3.7929a20.7784,20.7784,0,0,1-.6646-3.5269,21.2058,21.2058,0,0,0-.9917-4.6689l-.4272-1.2115a53.0849,53.0849,0,0,1-2.3174-7.7417,31.753,31.753,0,0,1-.35-4.8554c-.0908-3.8814-.1851-7.8946-2.9492-9.3291a2.58,2.58,0,0,0-2.3042.6157c-1.4024,1.3535-1.75,4.7744-1.0352,10.1684.2764,2.0381.4717,4,.6607,5.8965a71.9183,71.9183,0,0,0,2.0239,12.5591c2.8389,10.3184,4.8564,28.791-5.5879,32.5811l-.5195.1884-.5176-.1938c-1.9673-.7358-4.4853-2.9185-7.4009-5.4463-4.6753-4.0527-10.4844-9.1025-14.6645-8.5659A4.6947,4.6947,0,0,0,935.053,196.3857Z"/></svg>