<svg xmlns="http://www.w3.org/2000/svg" width="26" height="26" viewBox="0 0 26 26"><defs><style>.cls-1{fill:#fff;}</style></defs><title>twitter</title><g id="Layer_2" data-name="Layer 2"><g id="Layer_1-2" data-name="Layer 1"><path class="cls-1" d="M13,0A13,13,0,1,0,26,13,13,13,0,0,0,13,0Zm6.64,10.1113a.5845.5845,0,0,0-.2449.5147,9.3715,9.3715,0,0,1-4.8115,8.3608A8.9539,8.9539,0,0,1,9.4561,20.11a9.2037,9.2037,0,0,1-4.2317-1.2911c-.0491-.0293-.096-.0625-.2244-.1464a6.778,6.778,0,0,0,4.825-1.375A3.4037,3.4037,0,0,1,6.7461,15H8.145a3.5131,3.5131,0,0,1-2.5644-3.2773c.4848.1347.9389.2612,1.393.3877l.0476-.0606a3.4,3.4,0,0,1-.9787-4.3989,9.5043,9.5043,0,0,0,6.7949,3.4609,1.9259,1.9259,0,0,0-.0015-.2563A3.2922,3.2922,0,0,1,18.2837,7.894a.4868.4868,0,0,0,.5488.1285c.5674-.209,1.1372-.4117,1.721-.6221a3.8135,3.8135,0,0,1-1.2862,1.7148c.2869-.06.5769-.1084.8592-.1845.28-.0757.5529-.18.8735-.2862A5.9237,5.9237,0,0,1,19.64,10.1113Z"/></g></g></svg>