<svg id="Layer_1" data-name="Layer 1" xmlns="http://www.w3.org/2000/svg" width="180.6369" height="180.6369" viewBox="0 0 180.6369 180.6369"><defs><style>.cls-1{fill:#105dfb;}.cls-2{fill:#fff;}</style></defs><title>images</title><circle class="cls-1" cx="90.3184" cy="90.3184" r="88"/><path class="cls-2" d="M51.741,41.5052c3.9871-3.3344,8.7614-8.4886,13.4718-10.641,5.7006-2.6049,11.1989,2.5745,16.0716,5.35,9.9024,5.6395,20.0921,10.7025,30.4468,15.4534,20.6853,9.4909,40.95,19.6636,61.098,30.2439,1.7078.8968,3.226-1.6915,1.5141-2.59-23.038-12.0978-46.4563-23.1018-69.9-34.359q-8.4774-4.0707-16.728-8.5908c-5.2569-2.8821-10.3525-6.6174-15.8071-9.0738-3.54-1.594-5.94-.6873-8.9134,1.5009-4.5794,3.37-9.0147,6.9394-13.375,10.5859-1.4826,1.24.6493,3.3524,2.1213,2.1213Z"/><path class="cls-2" d="M33.628,50.5919l-18.06,15.5912c-2.9014,2.5047-9.0794,6.5529-7,11.3194.8961,2.054,3.196,3.1113,4.9805,4.2,3.3187,2.0239,6.6531,4.022,9.97,6.0494q9.95,6.0822,19.8322,12.2742,39.3462,24.6129,78.3,49.8769c1.6216,1.0582,3.1266-1.5381,1.5142-2.59-22.3869-14.6095-44.992-28.8951-67.6024-43.1557Q38.3,93.2694,20.8826,82.6325C17.767,80.74,9.7429,77.9019,12.899,72.53c1.3684-2.3292,4.92-4.3378,6.9571-6.0962l15.8932-13.72c1.4639-1.2638-.6659-3.3777-2.1213-2.1213Z"/><path class="cls-2" d="M124.4941,150.6973c18.0053-22.4175,34.063-46.2427,50.3906-69.8852,1.1-1.5925-1.4993-3.0941-2.59-1.5142-16.1812,23.4306-32.0774,47.0612-49.9216,69.2781-1.1977,1.4913.9119,3.6272,2.1214,2.1213Z"/><path class="cls-2" d="M28.8638,57.7578c2.02,2.4581,4.48,5.09,7.9567,4.8374a5.0316,5.0316,0,0,0,4.8381-4.1822c.6481-4.3128-3.697-7.6838-5.0839-11.3724-.7564-2.0116-1.7422-5.4135.0454-7.2808a6.9719,6.9719,0,0,1,7.85-1.3107c2.7872,1.2923,4.7444,3.9461,6.8729,6.0632,1.812,1.8023,3.2061,3.043,5.6425,1.662.9936-.5632,8.6652-6.9255,9.2322-5.5588.2065.498-5.9849,5.41-6.6687,6.0281L45.4711,59.3694c-2.3,2.079-4.7583,5.0748-7.41,6.6979-.8894.5444-2.5754,2.3117-3.445.2171-.4466-1.0758,2.75-3.744,3.6316-4.5233,1.45-1.2811-.6787-3.3963-2.1213-2.1214-2.81,2.4833-6.7869,7.2909-3.6909,11.1535,3.1962,3.9877,8.6714-3.44,10.7108-5.2838L62.4117,48.0951c1.871-1.6912,9.8148-6.4349,5.89-9.833-1.4586-1.2629-3.2566-.764-4.854-.1373a19.2539,19.2539,0,0,0-3.3091,1.8193c-.9494.6138-3.4417,3.25-4.32,3.3468-2.6556.2931-5.4735-4.3127-7.303-5.7448a12.8043,12.8043,0,0,0-7.3648-3.0128,8.1186,8.1186,0,0,0-8.32,7.0769A13.0369,13.0369,0,0,0,34.55,49.9241c.7368,1.3744,1.9984,2.6434,2.6433,4.0464Q40.08,57.3259,32.95,57.89a25.6643,25.6643,0,0,1-1.9644-2.2534c-1.2266-1.4926-3.3383.64-2.1213,2.1213Z"/><path class="cls-2" d="M40.98,40.8063A2.6016,2.6016,0,0,0,37.4815,44.27c.9961,2.1379,3.8792,2.3985,5.9155,1.8416a3.0367,3.0367,0,0,0,1.7651-4.8153c-1.674-2.2952-4.454-1.5412-6.647-.5471-1.7558.7959-.2325,3.3822,1.5142,2.59a3.9682,3.9682,0,0,1,2.2237-.5982c.2212.0592.6022.3379.555.4175-.141.238-1.3157.1682-1.5.1668-.3214-.0025-.6165-.1244-.9145-.149a.31.31,0,0,1-.198-.1564q-.0573.66-.73.376c1.7437.7956,3.27-1.7892,1.5142-2.59Z"/><path class="cls-2" d="M24.6523,78.6079a65.2626,65.2626,0,0,1,8.1965-9.512c1.3955-1.34-.7277-3.4592-2.1213-2.1213a69.27,69.27,0,0,0-8.6656,10.1191c-1.1138,1.5818,1.4861,3.0823,2.59,1.5142Z"/><path class="cls-2" d="M66.0183,38.9153l4.8182-4.1305c1.4681-1.2586-.6622-3.3723-2.1214-2.1213l-4.8181,4.13c-1.4681,1.2586.6621,3.3723,2.1213,2.1213Z"/><path class="cls-2" d="M23.5438,78.7358c6.3324,5.5259,13.8811,9.31,21.1082,13.5074q12.8931,7.4883,25.5377,15.394c16.5523,10.3481,33.1243,20.9721,48.5152,33.0047,1.5037,1.1757,3.6414-.9328,2.1213-2.1213-14.5935-11.4093-30.2091-21.5486-45.864-31.4273Q62.76,99.3931,50.3186,92.08c-8.2923-4.8746-17.3672-9.1069-24.6535-15.4652-1.449-1.2645-3.5793.849-2.1213,2.1213Z"/><path class="cls-2" d="M122.2531,139.98c7.1856-8.6967,14.037-17.662,20.4711-26.93,6.529-9.4044,12.1888-19.5536,20.0826-27.9193,1.3245-1.4037-.793-3.5291-2.1213-2.1213-7.2373,7.67-12.5445,16.7855-18.4465,25.463q-10.3486,15.2151-22.1072,29.3862c-1.2208,1.4775.89,3.6115,2.1213,2.1213Z"/><path class="cls-2" d="M69.2426,35.4919C99.897,51.6707,131.2253,67.0206,160.76,85.2028c1.6486,1.015,3.1572-1.5789,1.5142-2.59C132.7394,64.43,101.4112,49.08,70.7568,32.9015c-1.7062-.9005-3.2241,1.6879-1.5142,2.59Z"/><path class="cls-2" d="M45.613,80.8543C46.3351,78.496,49.968,76.7,51.6869,75a35.9633,35.9633,0,0,0,5.0125-6.2944c1.04-1.6334-1.5554-3.14-2.59-1.5141a32.2749,32.2749,0,0,1-6.33,7.3269c-1.9886,1.6892-4.2517,2.9013-5.0593,5.5387-.5665,1.85,2.3284,2.6412,2.8929.7975Z"/><path class="cls-2" d="M43.8951,81.23c3.2547,1.4477,5.8912,4.2394,8.8905,6.19,1.5449,1.005,4.1145,3.3979,6.1764,3.0984,2.478-.36,3.8565-3.6793,5.2115-5.32a55.1281,55.1281,0,0,1,7.924-7.7138c1.5014-1.2144-.6327-3.3253-2.1213-2.1213a57.3464,57.3464,0,0,0-5.8311,5.3394c-1.3944,1.4878-3.1526,4.9688-4.8285,6q-.3716,1.4367-1.3055.3836-1.1251-.658-2.2383-1.336c-1.4268-.88-2.8126-1.7973-4.1558-2.8017-2.0795-1.5549-3.8191-3.2472-6.2078-4.31-1.7486-.7778-3.2766,1.8064-1.5141,2.59Z"/><path class="cls-2" d="M55.4139,67.9226q3.62,1.7339,7.2144,3.5194c.9969.4969,7.1136,2.984,6.9792,3.81C69.3,77.14,72.1905,77.9528,72.5,76.049c.4764-2.9273-1.9673-3.9607-4.2623-5.1321q-5.618-2.8674-11.31-5.5847c-1.7329-.83-3.2565,1.7558-1.5142,2.59Z"/><path class="cls-2" d="M66.6285,64.24A118.5169,118.5169,0,0,0,80.4126,49.4978c1.181-1.5008-.9277-3.6381-2.1213-2.1213a118.5028,118.5028,0,0,1-13.7842,14.742c-1.4367,1.2958.69,3.412,2.1214,2.1214Z"/><path class="cls-2" d="M75.1628,70.2172A171.9583,171.9583,0,0,1,89.4652,52.7015c1.3149-1.4114-.8019-3.5376-2.1213-2.1214A177.8486,177.8486,0,0,0,72.5723,68.703c-1.1215,1.5758,1.479,3.0757,2.5905,1.5142Z"/><path class="cls-2" d="M66.3911,94.4269C79.1365,85.0478,88.4716,71.6662,98.3535,59.495c1.2066-1.4861-.9035-3.6212-2.1213-2.1213-9.687,11.9311-18.8591,25.2671-31.3553,34.4628-1.5387,1.1323-.0439,3.737,1.5142,2.59Z"/><path class="cls-2" d="M76.1553,100.6359c6.1472-5.0852,9.8033-12.0924,14.9351-18.07,4.8959-5.7027,11.4377-9.6733,15.488-16.1238,1.03-1.64-1.5651-3.1472-2.59-1.5142-4.1511,6.6111-11.1137,10.6714-15.9889,16.6857-4.633,5.7154-8.2251,12.1525-13.9651,16.9009-1.4888,1.2316.6438,3.3436,2.1213,2.1213Z"/><path class="cls-2" d="M85.0275,105.5862c5.1894-6.8675,11.9989-11.8,17.522-18.2659,4.9753-5.8244,9.1532-12.47,13.61-18.69,1.1264-1.5719-1.4745-3.0714-2.59-1.5141-4.8711,6.7974-9.38,14.4979-15.3191,20.4224-5.4851,5.472-11.1028,10.3-15.8131,16.5331-1.164,1.54,1.44,3.037,2.59,1.5142Z"/><path class="cls-2" d="M95.4891,112.4855c6.7793,2.2578,11.978,7.0365,17.3539,11.5468a1.5254,1.5254,0,0,0,2.1213,0,149.975,149.975,0,0,0,15.6775-20.9416c1.0207-1.6452-1.5735-3.1533-2.59-1.5141A145.4928,145.4928,0,0,1,112.843,121.911h2.1213c-5.7961-4.8629-11.3747-9.8861-18.6776-12.3184-1.8359-.6114-2.6233,2.2848-.7976,2.8929Z"/><path class="cls-2" d="M114.3527,119.1274a11.4912,11.4912,0,0,1-2.452-4.1066,1.649,1.649,0,0,1,2.0264-1.6177,6.381,6.381,0,0,0,2.0264-1.378c1.4062-1.965-.1343-3.4569-.9453-5.2656-2.3119-5.1563.7114-1.9122,2.5916-4.8564,1.5337-2.4014-.65-4.5624-.8742-6.9656-.1775-1.906-3.1792-1.9246-3,0,.1611,1.7289.9723,2.7525.2267,4.3933-.898,1.9762-1.2321.7454-2.5082,2.3222-1.6,1.9768.3665,4.6891.9737,6.6207.58,1.8456,1.0844,1.1647-.5766,2.466-.3983.3121-1.1782.09-1.6436.3906-.8376.5416-1.2406.794-1.5424,1.6731-.944,2.7495,1.9749,6.5427,3.5762,8.4453,1.2447,1.479,3.3575-.6525,2.1213-2.1213Z"/><path class="cls-2" d="M120.4888,88.1781l6.4134-10.4031c1.0159-1.648-1.578-3.1565-2.59-1.5142l-6.4134,10.4031c-1.0159,1.648,1.578,3.1565,2.59,1.5142Z"/><path class="cls-2" d="M128.6984,94.2618l8.5737-11.0377c1.17-1.5066-.938-3.6448-2.1214-2.1213l-8.5736,11.0377c-1.17,1.5066.9379,3.6448,2.1213,2.1213Z"/><path class="cls-2" d="M8.54,77.1238c2.1852,8.8038,13.95,13.2054,20.905,17.4308,10.6668,6.4805,21.3625,12.9181,31.8975,19.612,10.3489,6.5756,20.4622,13.5074,30.6784,20.2849q7.6951,5.105,15.4169,10.17c4.9551,3.2644,9.8515,7.1166,15.32,9.4667a1.52,1.52,0,0,0,2.2571-1.2952l-.1723-4.0195c-.0824-1.9233-3.0829-1.9336-3,0l.1723,4.0195,2.2571-1.2952c-4.9245-2.1162-9.3051-5.504-13.7661-8.4429q-6.9541-4.5813-13.9066-9.1654c-9.6491-6.3769-19.1883-12.9214-28.8976-19.2068-9.6639-6.2559-19.4989-12.2411-29.3363-18.2187q-7.4079-4.5014-14.8163-9.0015c-4.59-2.7884-10.7069-5.4572-12.1164-11.1361-.4648-1.8728-3.3587-1.08-2.8929.7975Z"/><path class="cls-2" d="M172.154,80.3054a22.8653,22.8653,0,0,1,.6644,4.1228c.1277,1.9163,3.1287,1.93,3,0a27.389,27.389,0,0,0-.7716-4.92c-.4745-1.87-3.3686-1.0776-2.8928.7976Z"/><path class="cls-2" d="M124.9693,153.3268c4.8166-5.3885,9.8229-10.6609,14.4507-16.2126,4.308-5.1682,6.4909-11.5529,10.7868-16.7759,9.2714-11.272,17.1823-23.3077,25.3065-35.4341,1.0776-1.6084-1.52-3.1119-2.59-1.5142-8.2961,12.383-16.5369,24.4669-25.8668,36.0778-3.8829,4.8321-5.8261,10.769-9.7575,15.525-4.6027,5.5682-9.6363,10.8268-14.4506,16.2126-1.2832,1.4356.8314,3.5644,2.1213,2.1214Z"/></svg>