<svg id="Layer_1" data-name="Layer 1" xmlns="http://www.w3.org/2000/svg" xmlns:xlink="http://www.w3.org/1999/xlink" width="180.6369" height="180.6369" viewBox="0 0 180.6369 180.6369"><defs><style>.cls-1{fill:none;}.cls-2{fill:#105dfb;}.cls-3{clip-path:url(#clip-path);}.cls-4{fill:#fff;}</style><clipPath id="clip-path"><circle class="cls-1" cx="90.3184" cy="90.3184" r="88"/></clipPath></defs><title>images</title><circle class="cls-2" cx="90.3184" cy="90.3184" r="88"/><g class="cls-3"><path class="cls-4" d="M-32.0767,93.9577l56.639,1.6484c13.6646.3977,30.2173,1.3613,40.5656-9.3793C70.6137,80.533,72.4745,73.104,75.9716,66.269c1.964-3.8385,5.2678-5.9738,8.4924-8.6368a59.0137,59.0137,0,0,0,8.27-8.362,61.1362,61.1362,0,0,0,10.2649-18.42c.5434-1.565.76-3.8191,1.5575-5.2706l.29-1.1428,5.2649-1.2626c.883.3916,2.1288,3.9556,2.265,4.3568a24.8833,24.8833,0,0,1,.24,15.0667c-2.36,7.7519-8.3312,13.8625-11.8486,21.0644a27.5078,27.5078,0,0,0-1.6049,20.5339,1.5013,1.5013,0,0,0,2.8929-.7976c-2.502-8.6853-.4826-15.802,4.17-23.2823,3.925-6.31,8.7062-12.3519,10.0129-19.8578,1.0308-5.9207.4926-14.6241-4.0062-19.2055-3.82-3.89-8.6864-2.1971-10.2791,2.5865-2.9429,8.839-5.7767,16.812-11.8341,24.12C85.2348,53.6522,77.445,57.406,73.71,64.0943c-4.55,8.1495-6.1068,17.51-14.3716,23.1234-7.2325,4.9126-16.4862,5.58-24.9706,5.5975-22.1271.0461-44.3269-1.2138-66.4448-1.8575-1.9312-.0562-1.9295,2.9438,0,3Z"/><path class="cls-4" d="M99.5818,72.0846a108.1772,108.1772,0,0,0,22.5868-2.9335c5.2041-1.2615,10.1466-3.0976,15.23-.1665,4.8107,2.7742,9.3564,9.1689,2.9454,13.1749-3.3209,2.0751-7.7608,2.131-11.5086,2.6049-2.77.35-12.2946,2.6645-14.2352.0127l-.8079-5.7854a28.53,28.53,0,0,1,2.7107-1.3322c1.4747-.6782,2.9835-1.284,4.4713-1.9326a48.79,48.79,0,0,0,9.8564-5.4328c1.5318-1.1392.0376-3.7445-1.5141-2.5905-5.2509,3.9051-11.6135,5.2476-17.0385,8.6976-3.1944,2.0315-4.3067,5.3961-1.9392,8.6133,2.9028,3.9446,8.1777,3.97,12.55,3.4953,5.5249-.6,12.2752-.6671,17.42-2.9876,9.6364-4.3467,6.8214-13.8932-.7081-18.7193-5.3553-3.4326-10.5579-2.4752-16.4178-1.0057a108.64,108.64,0,0,1-23.6,3.2874c-1.9266.0526-1.9344,3.0529,0,3Z"/><path class="cls-4" d="M122.5017,73.2179a3.0623,3.0623,0,0,1,.1522-1.9551,1.5456,1.5456,0,0,0-.5381-2.0523,1.5118,1.5118,0,0,0-2.0523.5381,6.4533,6.4533,0,0,0-.4547,4.2669,1.5,1.5,0,0,0,2.8929-.7976Z"/><path class="cls-4" d="M119.1327,80.1487a5.9036,5.9036,0,0,0,.6023,7.52c1.3432,1.3919,3.4631-.731,2.1213-2.1213a2.9282,2.9282,0,0,1-.1332-3.8843c1.1518-1.551-1.4509-3.0485-2.59-1.5142Z"/><path class="cls-4" d="M111.1934,79.9438a4.56,4.56,0,0,1,.2342,3.9545,1.5519,1.5519,0,0,0,.5381,2.0523,1.51,1.51,0,0,0,2.0523-.5382,7.7807,7.7807,0,0,0-.2341-6.9827c-.9149-1.7009-3.5059-.1877-2.5905,1.5141Z"/><path class="cls-4" d="M137.7293,87.07c6.0567-.68,13.496,6.2011,7.6324,12.0986-2.9422,2.9593-7.9722,3.0971-11.8331,3.1834a86.65,86.65,0,0,1-11.3834-.4269c-2.0791-.229-4.7184-.508-6.5539-1.7022-4.5571-2.9648-4.119-8.5679-.105-11.4254,1.56-1.11.0631-3.7133-1.5141-2.59-4.9478,3.5223-6.4665,10.2782-1.957,14.9475,5.4227,5.6147,17.535,4.6175,24.5483,4.0641,6.0564-.4778,13.5885-3.0717,13.7551-10.2916.1594-6.91-6.071-11.5889-12.5893-10.8571-1.8971.2129-1.9188,3.2153,0,3Z"/><path class="cls-4" d="M117.16,89.459a6.9009,6.9009,0,0,0-1.592,10.2829c1.2424,1.4808,3.355-.6509,2.1213-2.1213a3.86,3.86,0,0,1,.9848-5.5712c1.6428-1.0083.1375-3.6041-1.5141-2.59Z"/><path class="cls-4" d="M138.2378,105.0746c4.7231,5.6794,1.3075,14.0265-6.2236,14.1456-3.9016.0617-7.6309-1.88-11.2571-3.0542-2.9486-.9546-5.3722-.8846-8.3442-1.1591-3.19-.2946-4.3144-1.151-5.3556-4.498-1.3091-4.2083,1.6864-5.9963,5.1848-7.016,1.85-.5392,1.0628-3.4351-.7975-2.8929-6.3861,1.8614-9.5119,5.8966-6.5751,12.4506.9108,2.0325,2.2423,4.9007,4.7045,5.3528,1.7869.3281,3.919-.5439,5.7812-.4a26.4384,26.4384,0,0,1,6.6637,1.7682c5.85,2.0639,12.4529,4.2158,17.6938-.44,5.02-4.4595,4.7473-11.4476.6464-16.3787-1.2357-1.4858-3.3479.6464-2.1213,2.1213Z"/><path class="cls-4" d="M109.1791,104.99a6.9548,6.9548,0,0,0-.0061,7.6484c1.0622,1.6019,3.6615.1011,2.59-1.5141a4.0052,4.0052,0,0,1,.006-4.62c1.0731-1.6115-1.5242-3.1153-2.59-1.5142Z"/><path class="cls-4" d="M132.19,122.2705c6.5392,4.2919-1.6386,11.0809-5.2047,13.2031a34.5583,34.5583,0,0,1-9.8344,3.7454c-7.0873,1.6609-14.5767,1.9586-21.8278,2.2582a74.3594,74.3594,0,0,1-22.71-2.6462c-6.319-1.6763-12.4651-2.99-18.9014-1.1735a1.5013,1.5013,0,0,0,.7975,2.8928c10.0633-2.8409,20.0181,2.8207,30.0133,3.765,9.1252.862,18.8435.0692,27.9114-1.2066,7.62-1.0721,15.808-3.383,21.3376-9.08,4.0573-4.18,5.3744-10.7775-.0671-14.3489-1.6188-1.0624-3.1235,1.5342-1.5142,2.59Z"/><path class="cls-4" d="M54.7236,136.761c-16.1192,2.9855-32.2741,5.8239-48.3558,9.0057-14.4247,2.854-28.6665,6.47-42.0261,12.732-1.7467.8188-.2254,3.4058,1.5142,2.59,13.6586-6.4027,28.3181-9.9065,43.0638-12.7733,15.5082-3.0151,31.0671-5.7847,46.6014-8.6619,1.8958-.3512,1.0928-3.243-.7975-2.8929Z"/><path class="cls-4" d="M56.359,93.8776c-2.6784,4.7625-.8417,9.1712.2895,14.1281,1.4014,6.1408,2.5259,16.726-1.55,22.0843-1.1685,1.5364,1.4355,3.0325,2.59,1.5141,3.2758-4.3069,2.9829-9.8728,2.8623-15.0355a47.55,47.55,0,0,0-1.01-9.36c-.8948-3.9828-2.8117-7.8693-.5919-11.8164.9475-1.6848-1.6429-3.1989-2.59-1.5142Z"/><path class="cls-4" d="M62.1828,110.0533c-.53,3.2533.5849,5.98.5381,9.2547-.0523,3.6585-1.4469,7.1625-1.9492,10.7649-.5274,3.7816-.5463,9.1567,4.0045,10.2328,1.8773.4439,2.6785-2.448.7975-2.8928-4.649-1.0993-.79-11.5-.2813-14.3926.727-4.134-.8668-8.1787-.2167-12.1694.3076-1.8887-2.5828-2.7013-2.8929-.7976Z"/><path class="cls-4" d="M115.1784,134.8025a5.4274,5.4274,0,0,0,1.2629,4.5268,1.5129,1.5129,0,0,0,2.1213,0,1.5308,1.5308,0,0,0,0-2.1213,2.1816,2.1816,0,0,1-.4914-1.608,1.5486,1.5486,0,0,0-1.0477-1.8452,1.5111,1.5111,0,0,0-1.8451,1.0477Z"/><path class="cls-4" d="M96.3821,43.4348a5.7681,5.7681,0,0,1,2.7475.7275c1.6914.9337,3.2066-1.6562,1.5141-2.59a9.0256,9.0256,0,0,0-4.2616-1.1371,1.5009,1.5009,0,0,0,0,3Z"/><path class="cls-4" d="M95.0617,46.5208a3.2305,3.2305,0,0,1,2.4342.9253c1.3857,1.3458,3.5094-.7732,2.1214-2.1213a6.2827,6.2827,0,0,0-4.5556-1.804c-1.9268.0506-1.9344,3.0508,0,3Z"/><path class="cls-4" d="M105.6252,22.8008c-.3421-.0107-1.0782,2.9348-1.2676,3.4237a33.7755,33.7755,0,0,1-1.8756,4.1491c-1.88-.4285-2.6821,2.4632-.7975,2.8929,3.3452.7627,4.645-3.8626,5.5659-6.2445.9281-2.4,2.5423-7.0907-1.6252-7.2212-1.9311-.06-1.929,2.94,0,3Z"/><path class="cls-4" d="M95.4122,87.1975c-3.3009,6.1064-.1191,12.7868-2.5287,18.9676-3.361,8.6213-15.8655,11.9386-23.4821,7.5185a1.5011,1.5011,0,0,0-1.5142,2.59c7.3621,4.2723,16.4642,2.598,22.9451-2.6353a14.6866,14.6866,0,0,0,5.6594-9.3053c.8151-5.2409-1.139-10.72,1.5109-15.6217.9182-1.6985-1.671-3.215-2.59-1.5142Z"/><path class="cls-4" d="M106.9506,75.7624c-2.5428,9.8232-1.8144,19.7062-5.7594,29.2613-2.9875,7.236-5.7408,15.037-1.3626,22.3019a1.5011,1.5011,0,0,0,2.59-1.5141c-4.9333-8.1861.7776-16.7507,3.4572-24.5809,2.7329-7.9861,1.8662-16.5543,3.9673-24.6707a1.5013,1.5013,0,0,0-2.8929-.7975Z"/><path class="cls-4" d="M106.76,132.5606a18.4351,18.4351,0,0,0,.99,7.4131c.6323,1.8112,3.5316,1.0321,2.8928-.7975a16.2245,16.2245,0,0,1-.8825-6.6156c.1361-1.9266-2.8645-1.9181-3,0Z"/><path class="cls-4" d="M110.1739,116.1465c-4.8949,1.0065-6.8555,8.1879-4.4556,12.2509,3.1309,5.3,11.567,8.4006,17.1587,9.9056a1.5013,1.5013,0,0,0,.7975-2.8928,37.2508,37.2508,0,0,1-10.0731-4.2733c-1.5288-.95-3.7118-2.087-4.7376-3.5724-1.5413-2.2321-1.6187-7.7589,2.1076-8.5251,1.89-.3886,1.09-3.281-.7975-2.8929Z"/><path class="cls-4" d="M117.4839,136.6463a5.9262,5.9262,0,0,0,2.24,2.3734,1.5,1.5,0,0,0,1.5142-2.59,2.6291,2.6291,0,0,1-.6842-.556c-.2669-.2557.0447.1139-.1614-.1921a5.0716,5.0716,0,0,1-.318-.549,1.5,1.5,0,1,0-2.59,1.5142Z"/><path class="cls-4" d="M109.0026,126.4731a10.9675,10.9675,0,0,0,2.1841-6.3787c.0548-1.9312-2.9453-1.93-3,0a8.2513,8.2513,0,0,1-1.7745,4.8645,1.5106,1.5106,0,0,0,.5381,2.0523,1.5353,1.5353,0,0,0,2.0523-.5381Z"/></g></svg>