<svg id="Layer_1" data-name="Layer 1" xmlns="http://www.w3.org/2000/svg" xmlns:xlink="http://www.w3.org/1999/xlink" width="180.6369" height="180.6369" viewBox="0 0 180.6369 180.6369"><defs><style>.cls-1{fill:none;}.cls-2{fill:#105dfb;}.cls-3{clip-path:url(#clip-path);}.cls-4{fill:#fff;}</style><clipPath id="clip-path"><circle class="cls-1" cx="90.3184" cy="90.3184" r="88"/></clipPath></defs><title>images</title><circle class="cls-2" cx="90.3184" cy="90.3184" r="88"/><g class="cls-3"><path class="cls-4" d="M-22.0855,58.2222c16.5717-.6589,33.2223-1.3218,49.755.3909,14.57,1.5093,29.7068,6.9046,44.1661,2.0623,1.8215-.61,1.04-3.5083-.7975-2.8928-14.6578,4.9088-30.47-.987-45.3081-2.3594-15.9-1.4706-31.89-.8342-47.8155-.201-1.924.0765-1.9339,3.0769,0,3Z"/><path class="cls-4" d="M-21.4077,102.7329q17.7228-1.0393,35.4456-2.0788c11.4392-.6584,23.7869-1.1924,33.1673,6.537,1.4789,1.2186,3.613-.8921,2.1213-2.1213-8.5241-7.0239-19.2216-8.1074-29.9041-7.6991-13.6154.52-27.2282,1.5645-40.83,2.3622-1.9189.1125-1.9318,3.1133,0,3Z"/><path class="cls-4" d="M218.3236,46.872c-30.022,10.1754-60.3523,20.343-92.1151,23.1582-1.908.1691-1.9259,3.1707,0,3,32.0482-2.84,62.6166-12.9971,92.9127-23.2653,1.8185-.6164,1.0381-3.515-.7976-2.8929Z"/><path class="cls-4" d="M71.785,62.8038c1.2157-2.8869,2.124-5.91,5.2741-7.3257,2.3-1.0341,6.2038-.447,8.7371-.3811,6.0553.1573,12.5341-.3925,17.6347,3.1509,3.141,2.1821,6.6061,3.3045,10.0475,4.8918,4.688,2.1623,7.7843,5.8185,11.1851,9.5425,1.3048,1.4288,3.4216-.6974,2.1214-2.1213-4.1353-4.5283-7.7128-8.2261-13.3953-10.6987a56.1256,56.1256,0,0,1-9.4271-4.9684A12.22,12.22,0,0,0,97.0871,52.52c-6.2564-.3757-13.076-1.093-19.2981-.1708-5.7578.8534-6.8506,4.7981-8.8969,9.6571-.7482,1.7767,2.1537,2.5527,2.8929.7976Z"/><path class="cls-4" d="M67.0525,70.0067c-.0424-1.1249,1.1052-2.0749,1.7611-2.8727l1.8306-2.2269a17.3057,17.3057,0,0,0,1.85-1.9834l-.4192-.2556-.1485.5649a15.0681,15.0681,0,0,0-.5153,1.4162c-.7993,1.8345-2.5548,1.3492-4.1394,2.0749A6.8086,6.8086,0,0,0,64.1494,69.69c-.9351,1.6909,1.6549,3.2059,2.59,1.5142,1.5093-2.7293,4.82-1.48,6.59-3.8433,1.127-1.5043,2.7641-5.2111,1.1228-6.8636-1.9574-1.9708-4.4966.5542-5.7014,2.01-1.7132,2.07-4.8082,4.6053-4.6992,7.4992.0725,1.9245,3.0729,1.934,3,0Z"/><path class="cls-4" d="M64.9,69.18c-2.32,8.0364,11.7052,4.001,14.7317,2.0765,6.24-3.9676,7.5-12.4505.5206-16.4515a1.5011,1.5011,0,0,0-1.5142,2.59c4.4072,2.5264,4.1727,7.8686.2,10.755a15.8643,15.8643,0,0,1-4.6806,2.3158c-.58.18-6.94,1.5073-6.3643-.4886A1.5013,1.5013,0,0,0,64.9,69.18Z"/><path class="cls-4" d="M82.0314,67.1483c.707.8,1.764.7786,2.7518.8919l3.5177.4036a2.7689,2.7689,0,0,0,2.4459-.3923c.79-.769.6267-2.3525.7133-3.35.167-1.9231-2.834-1.9119-3,0a8.31,8.31,0,0,1-.22,1.8907l.6893-.8964c.86-.3635-.29-.2131-.6282-.2519l-1.7588-.2018-1.5076-.1729-.7538-.0865q-.6839-.1365-.128.0444c-1.28-1.45-3.3957.6783-2.1213,2.1213Z"/><path class="cls-4" d="M89.9167,68.6728c.7685-.09,1.5382.7483,2.3588.8227a1.8208,1.8208,0,0,0,1.8751-1.105,11.4923,11.4923,0,0,0,.506-3.0843l.5127-3.6922c.2621-1.8881-2.6281-2.7045-2.8929-.7975L91.8,64.2449l-.22,1.5824c-.04.2864-.4318,1.5739-.0295,1.1157l1.0607-.4393c-.3781-.0093-.9158-.4957-1.28-.63a2.9206,2.9206,0,0,0-1.415-.201c-1.8945.2224-1.9169,3.225,0,3Z"/><path class="cls-4" d="M92.18,69.3859c4.724,2.5817,8.5639,6.9824,12.4677,10.6387,3.6839,3.45,6.24,7.12,9.2671,11.0715,3.1855,4.1577,6.7161,7.5671,9.1842,12.2994,1.5791,3.0278,3.6242,6.4622,2.9839,10.0293-.3277,1.8252-5.96,11.172-8.7038,6.7075-1.0091-1.6421-3.605-.1369-2.59,1.5142,3.0914,5.031,8.558,1.684,11.4073-1.89,4.52-5.6691,2.9427-11.1648-.1137-17.1157a43.9312,43.9312,0,0,0-6.7937-10.1c-2.52-2.7165-4.2843-5.7681-6.5441-8.6658-2.8148-3.61-6.6275-6.583-9.9586-9.7028-2.8768-2.6945-5.61-5.4744-9.0918-7.3772-1.6949-.9262-3.2106,1.6633-1.5141,2.59Z"/><path class="cls-4" d="M115.9128,91.3452a12.1225,12.1225,0,0,0,6.6032-4.7363c1.12-1.5768-1.48-3.0768-2.59-1.5142a8.8476,8.8476,0,0,1-4.81,3.3577,1.5013,1.5013,0,0,0,.7976,2.8928Z"/><path class="cls-4" d="M117.8194,94.0383a16.2022,16.2022,0,0,1,6.44.9515c1.82.653,2.6044-2.2447.7975-2.8929a18.46,18.46,0,0,0-7.2379-1.0586c-1.9207.101-1.9326,3.1017,0,3Z"/><path class="cls-4" d="M128.7147,110.66c4.724-2.162,9.5455-5.5889,8.6541-11.4571-.3754-2.4713-1.7337-4.5909-2.7686-6.82-1.7915-3.8587-.6346-7.6-1.5653-11.577-.44-1.8791-3.3331-1.0837-2.8928.7975.5921,2.53-.166,5.0431.2221,7.5677a17.14,17.14,0,0,0,1.6456,4.7259c.9523,2.01,2.5331,4.2544,2.5013,6.5569-.0567,4.1162-4.0893,6.1412-7.3105,7.6155-1.7533.8025-.2306,3.3889,1.5141,2.59Z"/><path class="cls-4" d="M134.0864,107.94c13.5857-6.9916,28.911-5.2046,43.6345-4.9239,7.1018.1354,13.9223-.6711,20.96-1.4039,6.6171-.6891,13.2976.18,19.7734-1.6249a1.5013,1.5013,0,0,0-.7976-2.8928c-7.17,1.998-14.9927,1.01-22.364,1.9342a144.6814,144.6814,0,0,1-23.3494.8145c-13.4563-.4768-27.0793-.8193-39.3711,5.5064-1.7172.8837-.2013,3.4733,1.5142,2.59Z"/><path class="cls-4" d="M37.8284,100.8611c-1.6514,2.7986-3.0109,7.0542.5914,9.0371,2.7388,1.5076,7.5691.9863,10.1149-.6723,1.6116-1.05.11-3.6484-1.5142-2.59a9.0414,9.0414,0,0,1-5.5748.969c-3.4225-.2334-2.2241-3.2-1.0269-5.2292a1.5011,1.5011,0,0,0-2.59-1.5142Z"/><path class="cls-4" d="M47.7671,105.6041a11.8791,11.8791,0,0,0-2.2385,6.69c-.014,2.1139.951,3.28,2.5344,4.5993,3.7174,3.098,7.4466,2.9441,10.321-1.0187,2.67-3.6817,4.67-8.7557.4006-12.1274-3.5879-2.8338-8.3843-1.4-11.1414,1.8234-1.2487,1.46.8638,3.5914,2.1213,2.1213,1.5931-1.8623,4.1175-3.2894,6.5382-2.0092,3.4875,1.8445,1.6356,5.5607-.02,7.9759-.6615.9647-1.3972,2.24-2.6551,2.5268-1.4057.32-3.2471-1.0457-4.1138-2.001-1.9219-2.1185-.5919-4.9943.8442-7.0664,1.1023-1.5906-1.4969-3.092-2.59-1.5142Z"/><path class="cls-4" d="M50.6276,106.7025a6.0916,6.0916,0,0,0-1.5369,6.699,4.9889,4.9889,0,0,0,5.8214,2.5519c1.673-.4667,5.0417-2.9776,3.1619-4.9388-.7279-.7594-2.0255-.5718-2.9082-1.1029a4.1538,4.1538,0,0,1-1.9136-2.7539c-.421-1.8834-3.314-1.0863-2.8929.7975a6.9622,6.9622,0,0,0,2.21,3.7482,7.2334,7.2334,0,0,0,1.7686,1.1451c.56.2527,1.4325.2464,1.9189.5219l-.6893-.8965.0664.3324.1512-1.1559c-.59,1.2612-2.3955,2.0405-3.5664,1.0329-1.2214-1.051-.3846-2.9347.5307-3.86a1.5008,1.5008,0,0,0-2.1213-2.1213Z"/><path class="cls-4" d="M54.1447,116.6728c-1.7477,4.4091,2.773,9.209,7.1425,9.4957,4.0794.2676,9.6107-4.8013,11.0773-8.3817,1.6-3.9059-2.159-8.9827-5.9683-9.9831a6.6538,6.6538,0,0,0-5.9572,1.4889c-2.0525,1.6769-3.12,5.112-5.3856,6.3607-1.6912.9321-.18,3.5238,1.5142,2.59,3.8476-2.12,6.9437-12.3515,12.0579-5.1824,2.3523,3.2976-.501,5.8953-2.9955,7.9706-1.8423,1.5327-3.4474,2.82-5.9917,1.5087-1.878-.968-3.4722-2.8718-2.6007-5.07.7115-1.795-2.1887-2.5741-2.8929-.7975Z"/><path class="cls-4" d="M66.457,115.784c-.91.4891-1.8162.9858-2.73,1.4673-.8816.4645-2.1971,1.3087-2.7322.1653-1.0256-2.1916,2.15-4.6124,3.5915-5.773l-2.5607-1.0607a6.8813,6.8813,0,0,0,1.2454,4.0694c.9086,1.263,2.2014,2.1635,3.1629,3.3819,1.1953,1.5147,3.3052-.6211,2.1213-2.1213-1.3972-1.7706-3.51-2.8207-3.53-5.33a1.52,1.52,0,0,0-2.5606-1.0607c-2.65,2.134-6.5034,6.4194-3.87,10.0218,2.4164,3.3061,6.8374.1952,9.3768-1.17,1.7012-.9143.1879-3.5052-1.5142-2.59Z"/><path class="cls-4" d="M78.2732,128.3481l.0216-.1321a1.51,1.51,0,0,0-.3857-1.4594l-.12-.094a1.6132,1.6132,0,0,0-1.8177-.2346c-1.9539.8249-3.3183,1.8853-5.5931,1.8068-2.4534-.0847-5.3434-1.1844-4.2813-4.2122.64-1.8254-2.2569-2.61-2.8928-.7975-1.1639,3.3178.6567,6.2952,3.7948,7.4049a11.1622,11.1622,0,0,0,5.4781.4533c1.958-.3162,3.256-1.325,5.0084-2.0648l-1.8177-.2346.12.094-.3857-1.4594-.0216.132c-.309,1.8887,2.5814,2.7012,2.8928.7976Z"/><path class="cls-4" d="M69.1426,120.4947c1.596,1.92,5.9729,5.7654,2.1872,7.753-1.71.8979-.1953,3.488,1.5142,2.59a5.5629,5.5629,0,0,0,3.0122-5.3606c-.2213-2.7761-2.9228-5.0953-4.5923-7.1042-1.2351-1.4862-3.3473.6461-2.1213,2.1213Z"/><path class="cls-4" d="M64.35,123.7329c.83,2.1395,2.24,4.5333,4.9026,4.3037l-1.0606-2.5607a1.2092,1.2092,0,0,1-2.1939-.9489,1.511,1.511,0,0,0-1.5-1.5,1.5321,1.5321,0,0,0-1.5,1.5,4.1877,4.1877,0,0,0,7.3152,3.07c.7545-.891.3491-2.6822-1.0607-2.5607-1.18.1017-1.6522-1.18-2.01-2.1012a1.5442,1.5442,0,0,0-1.8452-1.0477,1.5112,1.5112,0,0,0-1.0477,1.8452Z"/><path class="cls-4" d="M73.0466,124.8763A30.0719,30.0719,0,0,1,77.25,131.77a6.678,6.678,0,0,0,1.72,2.5668c2.275,1.82,6.0757,1.3368,8.5693.3156,2.3709-.971,5.0923-2.8757,4.9346-5.7467-.2192-3.987-4.7116-6.158-4.5418-10.3062.0791-1.93-2.9211-1.9269-3,0a9.2006,9.2006,0,0,0,1.4066,5.1621c1.4464,2.4949,4.9222,5.3319.8053,7.7873a7.2056,7.2056,0,0,1-4.2366.9607c-2.7761-.4119-2.7777-1.7666-3.6928-3.6862a28.2556,28.2556,0,0,0-4.0462-6.0687c-1.2488-1.4758-3.3618.6553-2.1213,2.1213Z"/><path class="cls-4" d="M90.1888,131.9829c5.4223,3.5767,10.3514,3.032,13.9571-2.5773,1.3737-2.1369,1.4515-3.353.3211-5.6339-1.9879-4.0109-4.5093-7.8429-6.8858-11.6295-1.024-1.6315-3.6208-.1275-2.59,1.5141a96.4527,96.4527,0,0,1,6.1926,10.387c1.0884,2.356.993,4.0307-1.1443,5.8108-2.8517,2.375-5.5716,1.3619-8.3361-.4616-1.6162-1.0661-3.1206,1.5308-1.5141,2.59Z"/><path class="cls-4" d="M103.1919,129.4675c5.4674,2.12,14.47-1.0166,14.7221-7.7738.1489-3.9882-3.46-6.9361-5.2247-10.1674a76.2147,76.2147,0,0,1-6.6818-16.158,1.5013,1.5013,0,0,0-2.8928.7975,85.3148,85.3148,0,0,0,6.2509,15.4348c1.1048,2.2112,2.7175,4.0234,3.9046,6.1445,3.807,6.8022-3.7484,10.9746-9.2808,8.83-1.8012-.6983-2.5813,2.2012-.7975,2.8928Z"/><path class="cls-4" d="M96.3472,83.5324c4.03-.5206,8.43,2.3765,9.8239,6.2447.65,1.8028,3.55,1.0251,2.8929-.7975-1.8128-5.0315-7.282-9.1493-12.7168-8.4472-1.8881.2439-1.9124,3.247,0,3Z"/><path class="cls-4" d="M87.5752,97.6409a15.6944,15.6944,0,0,1,8.7753,6.1479c1.0985,1.5706,3.7005.0729,2.59-1.5142A18.9167,18.9167,0,0,0,88.3727,94.748a1.5013,1.5013,0,0,0-.7975,2.8929Z"/><path class="cls-4" d="M80.7653,107.2621c2.2229.3991,7.1124,2.3415,7.4486,4.9951.2394,1.8895,3.2424,1.9135,3,0a6.8586,6.8586,0,0,0-3.25-4.9949,17.2517,17.2517,0,0,0-6.4008-2.893c-1.8878-.339-2.6978,2.5516-.7976,2.8928Z"/><path class="cls-4" d="M74.0885,110.86a9.0957,9.0957,0,0,1,5.2891,7.1013c.2825,1.903,3.1737,1.0942,2.8928-.7975a11.8038,11.8038,0,0,0-6.6677-8.8942c-1.74-.8073-3.2657,1.7778-1.5142,2.59Z"/><path class="cls-4" d="M117.8859,117.7467c2.3668.5733,4.043-1.1927,5.46-2.8381,1.5655-1.8173,2.8042-3.8154,2.8007-6.2881a1.5009,1.5009,0,0,0-3,0,5.9786,5.9786,0,0,1-1.5948,3.78c-.5009.62-1.918,2.6834-2.8688,2.4531-1.8757-.4544-2.6761,2.4378-.7976,2.8928Z"/></g></svg>