<svg id="Layer_1" data-name="Layer 1" xmlns="http://www.w3.org/2000/svg" width="180.6369" height="180.6369" viewBox="0 0 180.6369 180.6369"><defs><style>.cls-1{fill:#105dfb;}.cls-2{fill:#fff;}</style></defs><title>images</title><circle class="cls-1" cx="90.3184" cy="90.3184" r="88"/><path class="cls-2" d="M85.239,165.3483c.1953-5.7862.1743-11.8487-2.413-17.176-2.6087-5.3714-7.9791-7.3852-12.2724-11.1219a79.14,79.14,0,0,0-6.6462-4.9262,36.0755,36.0755,0,0,1-9.2921-9.7191c-3.382-4.8867-8.0011-10.27-13.37-13.06-2.2095-1.1485-4.5319-.948-6.8219-1.5588-9.3586-2.496.1655-6.2768,3.415-6.7894,8.3289-1.314,13.1091,4.26,19.1743,8.7172,3.27,2.4027,7.6094,4.267,11.6184,2.34,4.3276-2.08,5.5472-9.6065,6.194-13.7616.2941-1.8887-2.5962-2.7025-2.8928-.7975-.5785,3.7158-1.8558,11.05-5.9837,12.1056-4.0268,1.03-7.5693-2.5751-10.3672-4.95-3.6842-3.1268-7.6712-5.9712-12.5693-6.7244-3.9354-.6052-9.8457.1011-13.1126,2.6185a5.5573,5.5573,0,0,0-.8956,8.2357c1.5208,1.5846,3.3417,1.7745,5.4195,2.0058,4.85.54,8.1139,3.0982,11.6711,6.2354,5.2968,4.6714,7.9923,11.3581,13.5918,15.7411,4.838,3.7869,9.7694,7.5841,14.9036,10.94,7.5888,4.96,7.9277,13.3874,7.6489,21.6461-.0652,1.9309,2.9349,1.9285,3,0Z"/><path class="cls-2" d="M74.7731,98.317c.3176-8.2173-.7236-16.27-2.0148-24.3645-.73-4.5753-1.7437-9.2045-1.85-13.8419-.0689-3.0166.1438-5.7579-.5777-8.713-.4576-1.8747-3.3514-1.0808-2.8928.7975.84,3.4418.2852,6.8373.5688,10.33.2816,3.4695,1.0054,6.9435,1.56,10.3789,1.3635,8.4537,2.5383,16.83,2.2066,25.4128-.0746,1.9306,2.9255,1.9274,3,0Z"/><path class="cls-2" d="M70.8023,51.1058c-.466-2.7586-.6807-4.5508.3239-7.2215q.0794-3.4337,3.321-2.21,2.5319-1.1074,2.8081.9562c1.2175,1.64.6879,5.8157.7918,7.8216A103.8989,103.8989,0,0,0,79.98,66.2893c1.01,4.8423,2.992,18.372,10.2822,17.1378,1.9-.3216,1.094-3.2131-.7975-2.8929-4.9669.8409-7.5865-20.4972-7.9235-23.6832-.5166-4.8843.7008-12.2306-2.03-16.6465A5.8856,5.8856,0,0,0,71.175,38.47c-4.676,2.9207-4.0591,8.7358-3.2656,13.4335.3209,1.8995,3.2124,1.094,2.8929-.7975Z"/><path class="cls-2" d="M84.1214,148.2358c4.8911-.6283,9.6709-4.09,12.9294-7.6871a18.2589,18.2589,0,0,0,4.6014-13.3687c-.0974-1.9212-3.098-1.9328-3,0a15.3345,15.3345,0,0,1-3.7228,11.2474c-2.5263,2.8289-6.9489,6.3127-10.808,6.8084-1.8885.2426-1.9127,3.2457,0,3Z"/><path class="cls-2" d="M103.2729,140.7305c2.9431,2.7854,7.6651,7.269,12.0912,7.0732,4.67-.2067,7.0948-5.7351,8.6641-9.36,5.3473-12.35,4.6588-26.2179,6.4092-39.3077.255-1.9074-2.7475-1.8886-3,0-1.2611,9.4305-1.2236,19.0588-3.18,28.3923a44.4739,44.4739,0,0,1-4.2785,12.4647c-2.0728,3.7284-4.2628,5.0461-8.6865,3.1994-2.2176-.9258-4.17-2.9482-5.8983-4.5836-1.4018-1.3267-3.5271.7909-2.1213,2.1213Z"/><path class="cls-2" d="M118.3011,143.6255c-.8359,3.8573-.4165,7.9622-.9455,11.8948a35.9135,35.9135,0,0,0-.2808,10.3018c.2835,1.9029,3.1747,1.0942,2.8929-.7975-.5637-3.7838.1663-7.3644.6164-11.117.3735-3.1137-.05-6.4375.61-9.4846.4079-1.8822-2.4835-2.6864-2.8928-.7975Z"/><path class="cls-2" d="M130.8734,99.1692c.9428-4.7661,4.27-7.7971,7.181-11.4481a39.2323,39.2323,0,0,0,5.0968-8.7912c1.9984-4.5067,6.2109-12.3614,2.827-17.0308-3.2392-4.47-6.7714-.8583-8.9183,2.2648-2.52,3.666-4.959,7.3912-7.4377,11.0855l-4.25,6.3346-2.125,3.1673q-1.482,3.7392-5.5274,1.6784c-.3142-1.9-3.2056-1.0941-2.8928.7976.6425,3.8852,4.9826,4.7135,7.9165,2.6216,2.6888-1.9173,4.491-5.6655,6.2817-8.3344l7.4376-11.0855c.8851-1.3192,1.9015-3.7529,3.1876-4.7509q1.3217-3.6765,4.4588.3459a20.2359,20.2359,0,0,1-.7923,4.2475,52.271,52.271,0,0,1-4.9826,11.8027c-3.29,5.6769-9.0237,9.5744-10.3536,16.2975-.373,1.8856,2.5179,2.6927,2.8928.7975Z"/><path class="cls-2" d="M91.8227,81.87c.135-9.4406.1437-18.8954.5128-28.33.1738-4.4432.4268-8.8938.9414-13.3122.1721-1.4779.2872-4.5033,1.3248-5.88q4.8777-3.8167,6.6828,2.0292a16.6694,16.6694,0,0,1-.3267,6.7268c-1.2676,8.2052-.5875,16.1374-.2666,24.3891.1623,4.1725-.6362,8.3052-.5571,12.4163.0359,1.8621.66,3.6554,2.5882,4.1972,5.4353,1.5273,5.8243-9.693,6.4846-12.642,1.7269-7.7131,3.9264-15.485,4.4394-23.4031q.0732-1.5084.1082-3.0181-.7156-3.7251,3.2457-1.9636,4.0911-1.2438,3.3884,2.7029a26.3157,26.3157,0,0,1-.3561,5.0493c-.5232,3.75-1.4241,7.3886-1.6029,11.1822-.2154,4.5717-.1028,8.8971-1.2525,13.3841-1.0494,4.0956-2.3168,8.01-2.6964,12.2427-.1724,1.9223,2.8287,1.9107,3,0,.4078-4.5473,2.02-8.7166,3.014-13.1332a52.5751,52.5751,0,0,0,.9023-10.7558c.1306-6.959,4.071-15.9064,1.0237-22.6518-1.5435-3.4165-5.8788-5.6558-9.1516-3.0292-4.0663,3.2636-2.6967,12.1831-3.4693,16.5947-.727,4.1516-1.7528,8.2612-2.6734,12.373l-1.2185,5.4425c-.2475,1.1053-.7192,6.5729-1.6248,7.2567-1.87,1.4123-.7512-3.113-.6815-3.9588a61.7868,61.7868,0,0,0,.1524-6.4394c-.0948-4.3193-.5319-8.6226-.6836-12.9394a77.8724,77.8724,0,0,1,1.1118-14.3909c.3936-2.6662.6067-5.58-.62-8.0786-1.7557-3.5754-6.3789-5.9287-9.8509-3.1652-2.1477,1.71-2.771,4.6069-3.1561,7.1694a134.2108,134.2108,0,0,0-1.1391,13.6989c-.4666,10.0665-.449,20.1615-.593,30.2365a1.5009,1.5009,0,0,0,3,0Z"/><path class="cls-2" d="M78.9911,101.434A50.0867,50.0867,0,0,1,97.0522,107.78c4.8975,2.9223,8.6176,7.9961,12.4524,12.1284,1.3161,1.4183,3.4338-.7069,2.1213-2.1213-4.4137-4.7561-8.5421-10.3739-14.4539-13.3366A58.21,58.21,0,0,0,78.9911,98.434c-1.9081-.2518-1.89,2.7506,0,3Z"/><path class="cls-2" d="M88.0349,106.4354c3.0974,5.8573,8.7049,10.3512,9.8223,17.14.3128,1.9,3.2042,1.0941,2.8928-.7975-1.1686-7.1-6.8926-11.7448-10.1247-17.8567-.9029-1.7073-3.4933-.1931-2.59,1.5142Z"/><path class="cls-2" d="M93.4818,100.8024c4.8785,2.8886,9.8208,6.6009,15.4836,7.7421,5.4442,1.0971,12.6882-1.59,17.3571,1.7462,1.5735,1.1245,3.0732-1.4763,1.5141-2.59-4.177-2.9849-8.95-1.6264-13.74-1.6735-7.3746-.0724-12.9885-4.1957-19.1006-7.8148a1.5011,1.5011,0,0,0-1.5142,2.59Z"/><path class="cls-2" d="M88.46,152.208c4.4146.7056,7.6328-1.5728,11.8353-2.3676,5.2448-.992,10.2455,2.3253,15.6145,1.5374,1.9032-.2792,1.0941-3.17-.7975-2.8928-4.7857.7023-9.0468-2.1528-13.7971-1.8164-4.1763.2958-7.7514,3.3349-12.0576,2.6465-1.8887-.3019-2.7018,2.5885-.7976,2.8929Z"/></svg>